<svg id="Livello_1" data-name="Livello 1" xmlns="http://www.w3.org/2000/svg" viewBox="0 0 684.62 360.64"><defs><style>.cls-1{fill:none;}.cls-2{fill:#fff;}</style></defs><path class="cls-1" d="M815.51,539h0q0-74.11,0-148.24a16.19,16.19,0,0,0-.42-5c-1.69-5-5.13-9-9.08-12.23-5.31-4.34-10.85-8.44-17.58-10.65-6.52-2.14-13-4.35-19.95-4.3-2.89,0-5.79,0-8.69,0a46.47,46.47,0,0,0-12.06,1.4c-9.23,2.57-15.57,8.71-21.18,15.76-5.27,6.61-11.24,12-19.31,14.87-2.23.78-4.48,1.46-6.68,2.3a78.26,78.26,0,0,0-15.65,8.36,38.11,38.11,0,0,0-12.44,13.91c-1.76,3.25-2.58,7-3.86,10.52-2.05,5.64-1.69,11.56-.57,17.12,1,4.92,1,8.76-2.12,13a27.31,27.31,0,0,1-9.79,8.08,70.44,70.44,0,0,0-11.84,7.15,57.08,57.08,0,0,0-9,9.69A40,40,0,0,0,627,501a35,35,0,0,1-.62,5.35,17.21,17.21,0,0,0,0,9.12,7.86,7.86,0,0,1-.36,4.59c-1.33,3.36-2.93,6.62-4.56,9.85-2.37,4.67-1.76,12.68,2.53,16.53,3.07,2.76,3.85,5.87,3.27,9.63-.47,3-1.08,6.06-1.49,9.11-.54,4,.59,7.89,1.1,11.83a45.2,45.2,0,0,0,7,18.38,44.38,44.38,0,0,0,17.58,15.81c4,2.09,8.25,3.78,12.28,5.86a12.9,12.9,0,0,1,3.73,3.19c2.79,3.29,2.19,7.37,1.19,10.85-1.52,5.26-1.31,10.48-1.06,15.71a28.26,28.26,0,0,0,2.06,9.54,75.06,75.06,0,0,0,6.32,11.3c4.39,6.79,10.87,11.27,18.12,14.34,5.52,2.34,11.49,3.63,17.23,5.46a48.53,48.53,0,0,1,6.35,2.41c3.8,1.85,6.34,5.15,8.14,8.73a33.69,33.69,0,0,0,11.93,13.6A40.4,40.4,0,0,0,761,719.16c4.93-.12,9.88.64,14.74-1.45,3-1.26,6.5-1.08,9.53-2.21,7.87-2.92,15.29-6.68,21.55-12.51,5.66-5.28,8.91-11,8.84-19.31C815.32,635.46,815.51,587.25,815.51,539Zm352.06-29.42.14-.7c1-.12,1.91-.31,2.87-.34a53.66,53.66,0,0,1,6.59,0c6.59.66,13.76-5.87,13.15-13.28a61.67,61.67,0,0,1,0-8.38c.15-3-1.25-5.32-2.86-7.57-2.46-3.45-6-4.6-10.11-4.58-14.18.08-28.36,0-42.55,0-4.36,0-4.83.49-4.83,4.81v46.7c0,.6,0,1.2,0,1.8a2.56,2.56,0,0,0,2.75,2.85c1.6.09,3.2.06,4.79,0,5.39,0,5.42,0,5.43-5.27,0-4.79,0-9.58,0-14.37,0-2,.84-2.78,2.87-2.86a7.42,7.42,0,0,1,5.87,2.22c6.16,6,12.35,11.89,18.64,17.71a8.18,8.18,0,0,0,4.34,2.36,131.54,131.54,0,0,0,13.47.08c.71,0,1.95-1,2-1.6.21-3,.09-6.1.09-9.61-3.54,0-6.61-.06-9.67,0a5.31,5.31,0,0,1-4.25-1.69C1173.48,515.13,1170.49,512.4,1167.57,509.61Zm-131.79,10.26c-1.64-.08-2.81-.19-4-.19-12.09,0-24.18.05-36.26,0-7.53,0-6.74,1.35-6.8-6.86,0-4.22,0-4.23,4.41-4.23h37.76c1,0,2,0,3-.06a1.68,1.68,0,0,0,1.85-1.86c0-1.6,0-3.2,0-4.79,0-4.49,0-4.5-4.37-4.5h-33c-2.1,0-4.2,0-6.3,0-3-.05-3.35-.37-3.42-3.52,0-1.39,0-2.79,0-4.19.06-3.21.2-3.38,3.42-3.39q14.83,0,29.67,0c3.79,0,7.59-.06,11.38,0,1.76,0,2.6-.66,2.57-2.44,0-2.3,0-4.59,0-6.89,0-1.38-.71-2-2-2-.8,0-1.6-.06-2.4-.06q-20.37,0-40.75,0a35.43,35.43,0,0,0-4.49.21c-4.42.55-9.25,5.61-9.28,9.89-.06,12,0,24,0,35.93a5.6,5.6,0,0,0,.56,2.88c2.85,4.28,6.32,7.42,12,7.35,14.19-.15,28.37,0,42.56,0,.6,0,1.19,0,1.79,0a1.75,1.75,0,0,0,2-2C1035.76,526.07,1035.78,523.19,1035.78,519.87Zm201.15-45.05h0c-5.89,0-11.78,0-17.68,0-2.54,0-5,.33-7,2-2.56,2.06-5.07,4.37-5.1,7.93-.11,12.08,0,24.16,0,36.24a4.87,4.87,0,0,0,.45,2.61c2.88,4.19,6.19,7.59,11.94,7.52,11.49-.16,23-.09,34.47,0a10.94,10.94,0,0,0,6.74-1.87c2.68-1.92,5.28-4,5.29-7.74,0-12.37,0-24.75,0-37.13a7.71,7.71,0,0,0-1-3.33c-2.15-4.21-5.77-6.1-10.39-6.14C1248.72,474.78,1242.83,474.82,1236.93,474.82ZM913.05,496c.77,0,.91,0,1,0q17.12,16.23,34.24,32.46c2.12,2,4.71,3.46,7.54,2.08a7.14,7.14,0,0,0,4.2-6.9c-.09-6.29,0-12.58,0-18.86q0-13.19,0-26.35c0-3.22-.36-3.55-3.62-3.65-1.4,0-2.8,0-4.19,0-4.14,0-4.18.07-4.19,4.18,0,9.48,0,19-.05,28.44a8,8,0,0,1-.81,2.39,7.87,7.87,0,0,1-2.23-1c-8.36-7.83-16.66-15.73-25-23.57-3.31-3.11-6.59-6.27-10.08-9.17-2.66-2.2-7.3-1.36-8.52,1.51a17.31,17.31,0,0,0-1.47,6.3c-.14,10.88-.06,21.76-.06,32.63,0,3.8,0,7.59,0,11.38,0,2.42.65,3,3,3.13,1.9.09,3.8,0,5.7,0,3.81,0,4.16-.36,4.17-4.07,0-9.08,0-18.17,0-27.25C912.68,498.47,912.92,497.24,913.05,496Zm191.65,69.78a12.93,12.93,0,0,1,1.57,1q8.57,8.09,17.1,16.2,8.27,7.81,16.56,15.61c3.49,3.27,7,3.53,9.65.69a7.86,7.86,0,0,0,2-5.76c-.06-12.27,0-24.54,0-36.81,0-2.89-.07-5.78,0-8.67,0-2-.88-3-2.84-3-1.7,0-3.39-.07-5.09,0-3.77,0-3.88.15-3.89,3.86,0,9.48,0,19,0,28.43a1.86,1.86,0,1,1-3.37,1.48c-6.07-5.64-12.09-11.34-18.12-17-5.16-4.88-10.27-9.82-15.47-14.66-4-3.65-8.84-2.42-10.42,2.62a17,17,0,0,0-.76,5c-.07,13.27,0,26.54,0,39.81,0,.89,0,1.79,0,2.69.07,3.57.49,4,4,4q2.25,0,4.5,0c4.17,0,4.48-.32,4.49-4.39q0-13.47,0-26.93C1104.46,568.68,1104.59,567.52,1104.7,565.75Zm93.7,35.41c8.79,0,17.58,0,26.37,0,3.21,0,3.73-.54,3.83-3.57,0-1.39,0-2.79,0-4.19-.07-3.16-.47-3.58-3.72-3.59-5.49,0-11,0-16.48,0-3.56,0-4.09-.46-4.11-3.87q-.07-12.87,0-25.75c0-3.3.55-3.79,3.89-3.81,5.59,0,11.18,0,16.78,0,2.57,0,3.42-.83,3.59-3.36.12-1.68,0-3.39,0-5.08a2.56,2.56,0,0,0-2.74-2.86c-.9-.06-1.8-.07-2.7-.07H1174c-.8,0-1.6,0-2.39,0-2.52.21-2.93.62-3,3.08-.06,1.5,0,3,0,4.5.07,3.35.44,3.73,3.86,3.76,5.4,0,10.79,0,16.18,0,3.36,0,3.5.16,3.51,3.61q0,13.17,0,26.34c0,3.42-.1,3.47-3.59,3.48-5.69,0-11.39.05-17.08,0-2,0-3,.78-2.89,2.83.06,1.49,0,3,0,4.49,0,3.88.18,4,4.07,4Q1185.51,601.19,1198.4,601.16Zm-153.51,0q13,0,26.06,0c3.55,0,3.64-.12,3.68-3.74,0-1.4,0-2.79,0-4.19-.07-3.29-.17-3.41-3.38-3.43-5.59,0-11.18,0-16.77,0-3.36,0-3.6-.24-3.61-3.56q0-13.17,0-26.33c0-3.26.28-3.52,3.65-3.54,5.59,0,11.18,0,16.77,0,3,0,3.23-.3,3.32-3.28.06-1.79,0-3.59,0-5.38s-.86-2.75-2.72-2.7c-.69,0-1.39,0-2.09,0h-49.72c-.8,0-1.59,0-2.39,0a2.06,2.06,0,0,0-2.33,2.4c0,1.9,0,3.79,0,5.69.07,3,.26,3.23,3.28,3.25,5.69,0,11.38,0,17.07,0,3.08,0,3.28.19,3.29,3.2q.06,13.47,0,26.93c0,3.22-.12,3.29-3.45,3.3-5.39,0-10.78,0-16.17,0-4,0-4,0-4,3.88V597c0,4.17,0,4.18,4.07,4.18Zm-149.85,0h7.19c5.29,0,10.58,0,15.88,0,1.37,0,3,.13,3.06-1.93.07-2.49,0-5,0-7.48a1.71,1.71,0,0,0-1.86-1.87c-1,0-2-.07-3-.07h-38c-4.23,0-4.31,0-4.34-4.35q-.09-12.72,0-25.44c0-3.47.24-3.64,3.83-3.64q19,0,38,0c1,0,2,0,3,0a2.17,2.17,0,0,0,2.4-2.42c0-1.79.06-3.59,0-5.38,0-3-.39-3.37-3.47-3.54-.6,0-1.2,0-1.8,0q-20.07,0-40.14,0a29.09,29.09,0,0,0-5.37.34,10.15,10.15,0,0,0-7.92,6.81,32,32,0,0,0-1.25,9.39c-.16,7.68-.12,15.36,0,23a76.61,76.61,0,0,0,.89,7.65c.57,5,6.76,9.09,11,9C880.46,601,887.75,601.16,895,601.16Zm362.65-11.36c-.09-1.57-.2-2.55-.2-3.54q0-13.15,0-26.33c0-3.48.08-3.56,3.49-3.57q12.87,0,25.76,0c5,0,10,0,15,0,2.66,0,2.9-.28,3-2.93.07-2,0-4,0-6a2.05,2.05,0,0,0-2.31-2.42c-1.3,0-2.59,0-3.89,0-13.68,0-27.36.13-41,0a11.76,11.76,0,0,0-12.08,12.17c.29,10.77,0,21.55.1,32.32a11.52,11.52,0,0,0,11.88,11.73c14.58,0,29.15,0,43.73,0h.6c2.75-.08,2.91-.21,3-2.86,0-1.49,0-3,0-4.49,0-4,0-4-3.92-4h-43.11Zm-156.88-70.13h-31.28c-3.6,0-3.65,0-3.66-3.68,0-9,0-18,0-26.94,0-3.6,0-7.19,0-10.78,0-3-.39-3.37-3.49-3.46q-2.55-.07-5.1,0c-3,.08-3.21.27-3.21,3.31,0,14,0,27.94,0,41.91A11,11,0,0,0,1065,531q18.43.13,36.85,0c5.73,0,11.13-5.62,11.14-11.28,0-13.77,0-27.54,0-41.31,0-1-.08-2-.14-3.36-2.44-.08-4.7-.2-7-.21-4.85,0-4.86,0-4.86,4.71q0,17.81,0,35.62C1101.06,516.49,1100.91,517.86,1100.81,519.67Zm-128.94,81.5h19.46c7.41,0,7,.47,7-7,0-4.21-.2-4.41-4.39-4.41H954.43c-4.18,0-4.32-.15-4.32-4.42v-35.6c0-.9,0-1.8,0-2.69a1.8,1.8,0,0,0-2-2.05c-2.19,0-4.39-.12-6.58,0-2.88.11-3.29.54-3.33,3.37,0,3.49,0,7,0,10.47,0,10,0,19.94,0,29.91,0,6.62,5.88,12.65,12.45,12.46C957.7,601,964.79,601.16,971.87,601.17Z" transform="translate(-620.11 -358.57)"/><path class="cls-2" d="M815.51,539c0,48.22-.19,96.43.17,144.65.07,8.33-3.18,14-8.84,19.31-6.26,5.83-13.68,9.59-21.55,12.51-3,1.13-6.58,1-9.53,2.21C770.9,719.8,766,719,761,719.16a40.4,40.4,0,0,1-23.22-6.93,33.69,33.69,0,0,1-11.93-13.6c-1.8-3.58-4.34-6.88-8.14-8.73a48.53,48.53,0,0,0-6.35-2.41c-5.74-1.83-11.71-3.12-17.23-5.46-7.25-3.07-13.73-7.55-18.12-14.34a75.06,75.06,0,0,1-6.32-11.3,28.26,28.26,0,0,1-2.06-9.54c-.25-5.23-.46-10.45,1.06-15.71,1-3.48,1.6-7.56-1.19-10.85a12.9,12.9,0,0,0-3.73-3.19c-4-2.08-8.25-3.77-12.28-5.86a44.38,44.38,0,0,1-17.58-15.81,45.2,45.2,0,0,1-7-18.38c-.51-3.94-1.64-7.81-1.1-11.83.41-3.05,1-6.07,1.49-9.11.58-3.76-.2-6.87-3.27-9.63-4.29-3.85-4.9-11.86-2.53-16.53,1.63-3.23,3.23-6.49,4.56-9.85a7.86,7.86,0,0,0,.36-4.59,17.21,17.21,0,0,1,0-9.12A35,35,0,0,0,627,501a40,40,0,0,1,8.31-20.28,57.08,57.08,0,0,1,9-9.69,70.44,70.44,0,0,1,11.84-7.15,27.31,27.31,0,0,0,9.79-8.08c3.16-4.26,3.1-8.1,2.12-13-1.12-5.56-1.48-11.48.57-17.12,1.28-3.52,2.1-7.27,3.86-10.52a38.11,38.11,0,0,1,12.44-13.91,78.26,78.26,0,0,1,15.65-8.36c2.2-.84,4.45-1.52,6.68-2.3,8.07-2.84,14-8.26,19.31-14.87,5.61-7.05,12-13.19,21.18-15.76a46.47,46.47,0,0,1,12.06-1.4c2.9,0,5.8,0,8.69,0,7-.05,13.43,2.16,19.95,4.3,6.73,2.21,12.27,6.31,17.58,10.65,4,3.22,7.39,7.22,9.08,12.23a16.19,16.19,0,0,1,.42,5q0,74.11,0,148.24Zm-83,152.39c.62,1.67.88,3.19,1.67,4.34a64.26,64.26,0,0,0,4.92,6.12c4.07,4.61,9.68,6.25,15.37,7.56a71.67,71.67,0,0,0,8.55,1.13,11.77,11.77,0,0,0,3-.14,28.1,28.1,0,0,1,3.17-.77c5-.23,9.72-1.67,14.45-3.13a48.77,48.77,0,0,0,19.06-11.38,5.74,5.74,0,0,0,1.37-6.28c-1.23-2.88-2.44-5.77-3.83-8.58-3.14-6.36-6.39-12.65-9.57-19-2.51-5-5-10-7.45-15-2.29-4.57-4.57-9.14-6.89-13.69a10.3,10.3,0,0,0-7-5.48,5.35,5.35,0,0,0-5.86,2.44q-6.15,10.24-12.28,20.51C746,658.7,741,667.34,735.74,675.9a4.79,4.79,0,0,0-.21,5,4.42,4.42,0,0,1,0,3C734.63,686.42,733.51,688.9,732.48,691.42Zm-21-13.31a21.91,21.91,0,0,0,3.53-1.32c4.09-2.36,8.15-4.79,12.14-7.3a7.87,7.87,0,0,0,2.46-2.48c3.55-5.66,7-11.41,10.49-17.09,4.19-6.77,8.54-13.42,12.54-20.29,1.18-2,3-4.08,2.19-6.86-1.11-3.67-6-7.37-9.93-7.15-5.16.29-10.31.9-15.47,1.21-4.19.25-8.39.19-12.58.42q-10.74.6-21.46,1.43a5.05,5.05,0,0,0-2.62,1.1,44.25,44.25,0,0,1-10.87,7,4.52,4.52,0,0,0-3,3.47,39.32,39.32,0,0,1-1.37,7c-1.34,3.69-.77,7.13-.08,10.88a35.29,35.29,0,0,0,6.4,15.09,30,30,0,0,0,10.65,9.1C699.86,675,705.22,677.53,711.45,678.11Zm1.13-278.25c-4.68.13-8.94,1.63-13.16,3.38a37.23,37.23,0,0,0-12.57,8c-5.77,5.85-9.67,12.44-9.37,21,.14,3.78.15,7.57.29,11.35a8.2,8.2,0,0,0,.66,2.26c.85,2.51,2.81,4,4.88,5.41,3,2.09,5.46,4.85,5.87,8.5.48,4.24,2.52,7.34,5.44,10.1,2.52,2.39,3.54,2.53,6,.15q12.66-12.15,25.12-24.51a6.93,6.93,0,0,0,2.16-4c.08-2.63-.6-5.27-.93-7.91-.14-1.16-.59-2.49-.2-3.46a35,35,0,0,1,3.34-6.17c1.56-2.34,2.68-4.75,1.59-7.5-1-2.46-2.24-4.8-3.44-7.16C725,402.8,719.7,399.79,712.58,399.86ZM772,557c.46-4-1.5-7-4-9.6s-5-5-7.58-7.47-4.8-4.74-7.28-7c-1.24-1.13-2.56-2.1-4.53-1.59a49.38,49.38,0,0,1-6.95,1.26,6.71,6.71,0,0,0-5.46,3.35c-3,4.76-6.22,9.32-9.3,14-3.37,5.1-6.77,10.19-10,15.39-2.6,4.2-.88,10.44,3.41,12.93,2.21,1.28,4.5,2.4,6.74,3.62,6.59,3.57,13.11,7.26,19.76,10.68,3.7,1.91,7.4,4.51,12,2.17,1.74-.9,3.61-1.55,5.42-2.33a6,6,0,0,0,4-6,64.88,64.88,0,0,1,.48-7.75c.29-2.54.9-5,1.2-7.58s.22-5,.57-7.44C770.84,561.37,771.52,559.19,772,557Zm32.36-69.3c1.26-2.38,1.41-87.69.24-90.82a7.68,7.68,0,0,0-2.1.73c-6.88,4.91-13.7,9.89-20.56,14.82-4.15,3-8.39,5.86-12.49,8.91-2.25,1.67-4.94,3.05-5.12,6.49-.25,4.76-.71,9.51-1,14.27a3.78,3.78,0,0,0,.92,2.42q6.64,7.37,13.43,14.61c5.84,6.27,11.72,12.51,17.57,18.77C798.35,481.1,801.33,484.36,804.4,487.68Zm-70-89.71a20.94,20.94,0,0,0,.81,4.36,41.87,41.87,0,0,0,3.14,6c1.72,2.76,3.47,5.44,7.18,6.09a69.16,69.16,0,0,1,9.66,2.58c1.67.55,3,.68,4.49-.38,3.16-2.32,6.33-4.63,9.56-6.85,9.5-6.55,19.06-13,28.54-19.59,1.61-1.11,3-2.59,4.46-3.86s1.71-2.52,0-3.86C799,380,796,377.35,792.71,375a17.49,17.49,0,0,0-4.25-2c-3.24-1.19-6.51-2.29-9.77-3.41-5.3-1.83-10.85-2.17-16.38-2.54a8.15,8.15,0,0,0-2,.31c-1.56.29-3.1.73-4.66.88a26.38,26.38,0,0,0-13.43,4.95c-5.07,3.79-9.34,8.13-7.4,15.36.23.86.58,1.69.73,2.56a6.6,6.6,0,0,1,0,2.26C735.19,394.94,734.75,396.55,734.42,398ZM635.14,567.54c.62,3.79,1.24,7.49,1.84,11.19.91,5.6,3.65,10.35,7.06,14.71,5.19,6.64,12.09,10.86,20,13.5a5,5,0,0,0,3.2-.12Q674.09,604,680.8,601a8.34,8.34,0,0,0,3.31-2.4c4-5.73,8.25-11.3,10.93-17.84,1.11-2.69.71-4.7-1.51-6.29A47.12,47.12,0,0,0,688.3,571c-9.89-5.32-19.86-10.52-29.74-15.88-4.41-2.4-8.73-4.58-14.06-3.62-3.52.63-6.38,2-7.4,5.48A98.73,98.73,0,0,0,635.14,567.54ZM754.65,447.81c-4,2.34-5,5.24-4.83,8.95.19,4.68,0,9.39-.13,14.07-.29,7.47-.71,14.92-1.14,22.38a7.68,7.68,0,0,0,1.86,5.51c1.51,1.83,3.13,3.56,4.74,5.3A10.44,10.44,0,0,0,766,506.7c4.05-1.2,8.2-2.11,12.35-3,3.39-.71,6.85-1.12,10.27-1.74,2.62-.48,5.24-1,7.81-1.65a32.4,32.4,0,0,0,4.5-2Zm49.67,122.81.8-.24c.09-1,.26-1.89.26-2.83q0-27.84-.15-55.68c0-3.16-.52-3.69-3.76-3.29-2.25.28-4.43,1.07-6.66,1.51-3.78.74-7.61,1.27-11.37,2.08-6.57,1.42-13.09,3.09-19.66,4.46-4.86,1-6.68,4.8-4,8.89a20.17,20.17,0,0,0,2.5,3.3q15.81,16,31.71,31.86C797.36,564.06,800.87,567.31,804.32,570.62ZM657,540.37l-.31,1c.64.91,1.1,2.11,2,2.69,3.08,2.1,6.24,4.11,9.49,5.92,8.52,4.75,17.07,9.45,25.7,14,6.63,3.51,11.76,2.21,15.38-3.51q4.95-7.83,10-15.61c2.78-4.3,5.78-8.48,8.31-12.93a5.55,5.55,0,0,0-.2-4.72,4.57,4.57,0,0,0-4.8-2.38c-3,.67-5.91,1.64-8.88,2.38s-6.16,1.39-9.24,2.07c-4,.86-7.92,1.68-11.87,2.56-3.18.71-6.34,1.5-9.52,2.2-4,.89-8.12,1.7-12.17,2.61-3,.66-6,1.4-8.93,2.17C660.24,539.28,658.63,539.86,657,540.37Zm35-60.31c-1.59-1.52-3.57-3.26-5.37-5.17a4.55,4.55,0,0,0-4.3-1.52A23.86,23.86,0,0,1,667,471a5.86,5.86,0,0,0-4,.15,50.59,50.59,0,0,0-9.9,5.14c-7.8,4.73-12.58,11.75-15.71,19.95-2.13,5.55-2,11.51-1.62,17.39.18,2.84,1.34,3.91,4.28,4.4a13.72,13.72,0,0,1,3.4,1,7.65,7.65,0,0,0,9-1.36C661.32,509,670.1,500.28,679,491.7,683.05,487.82,687.33,484.2,692,480.06Zm-36.23,48.83a11.13,11.13,0,0,0,6.92-.22,26.6,26.6,0,0,1,3.68-1.06c3.31-.67,6.64-1.2,9.94-1.88,4.64-1,9.26-2,13.9-3,3.29-.71,6.59-1.4,9.89-2.1,4-.85,7.91-1.69,11.86-2.55,2.61-.57,5.27-1,7.81-1.81a4.06,4.06,0,0,0,3.1-3.94,4.82,4.82,0,0,1,.26-2.06c1.52-2.87-.17-4.74-2.06-6.37q-9.3-8-18.75-15.82c-2.89-2.4-3.35-2.34-6.43-.13a11.78,11.78,0,0,0-1.55,1.37c-10,9.9-20.07,19.78-30,29.75C661.31,522,657.77,524.51,655.73,528.89Zm84.4-55.08h0c0-3.89,0-7.78,0-11.67,0-3.19,0-6.4-.26-9.57s-2.76-4-5.28-2.06c-.62.48-1.19,1-1.77,1.57l-24.35,23.11c-2.7,2.57-2.66,3.7.27,6.16,5.11,4.31,10.2,8.64,15.38,12.87a40.38,40.38,0,0,0,5.84,3.94c3,1.64,5.82.41,8.48-1,2.17-1.17,1.68-3.43,1.7-5.37C740.16,485.78,740.13,479.79,740.13,473.81Zm9.39,131.91.11-.84a36.72,36.72,0,0,0-3.31-2.28c-10.21-5.59-20.45-11.13-30.67-16.71-4.24-2.31-11.31-1.07-14,2.89-3.55,5.19-6.8,10.58-10.07,16-1.37,2.25-.27,4.08,2.43,4.3a36.49,36.49,0,0,0,4.79.12c9.05-.46,18.12.2,27.17-1.26,5.28-.85,10.77-.36,16.14-.73A57.86,57.86,0,0,0,749.52,605.72Zm31-44.26c-.11.94-.22,1.89-.32,2.83-.64,6-1.26,12-1.94,18.05a23,23,0,0,1-.8,2.23c-.87,3.79-1.81,7.68,1.13,11a63.79,63.79,0,0,0,6.32,6.2c1.22,1,2.77,2.22,4.25,2.33a99.59,99.59,0,0,0,12,0,4.38,4.38,0,0,0,4.24-4.48c.08-3.49-.12-7,.06-10.48.15-2.94-1.2-5.13-3-7.08q-8.73-9.27-17.64-18.37C783.76,562.65,782.82,561.05,780.53,561.46ZM804.07,668l1,0a24.55,24.55,0,0,0,.45-3.26c0-9,0-18,0-26.92,0-7,0-14,0-20.93,0-3-.27-3.24-3.27-3.26-4.19,0-8.39-.07-12.57.12-4.88.23-9,6.26-7.29,10.78,1.44,3.76,3.24,7.39,5,11,3.14,6.32,6.4,12.59,9.62,18.87Q800.55,661.21,804.07,668Z" transform="translate(-620.11 -358.57)"/><path class="cls-2" d="M1167.57,509.61c2.92,2.79,5.91,5.52,8.74,8.39a5.31,5.31,0,0,0,4.25,1.69c3.06-.08,6.13,0,9.67,0,0,3.51.12,6.57-.09,9.61,0,.6-1.28,1.58-2,1.6a131.54,131.54,0,0,1-13.47-.08,8.18,8.18,0,0,1-4.34-2.36c-6.29-5.82-12.48-11.74-18.64-17.71a7.42,7.42,0,0,0-5.87-2.22c-2,.08-2.89.84-2.87,2.86,0,4.79,0,9.58,0,14.37,0,5.24,0,5.27-5.43,5.27-1.59,0-3.19,0-4.79,0a2.56,2.56,0,0,1-2.75-2.85c0-.6,0-1.2,0-1.8v-46.7c0-4.32.47-4.81,4.83-4.81,14.19,0,28.37.05,42.55,0,4.16,0,7.65,1.13,10.11,4.58,1.61,2.25,3,4.58,2.86,7.57a61.67,61.67,0,0,0,0,8.38c.61,7.41-6.56,13.94-13.15,13.28a53.66,53.66,0,0,0-6.59,0c-1,0-1.91.22-2.87.34Zm-7-23.39h0c-3.48,0-7-.06-10.46,0-7.77.16-7.14-1.55-7.12,7.46,0,3.27.42,3.63,3.62,3.65,7.57,0,15.14,0,22.71,0,2,0,4,0,6,0a2.64,2.64,0,0,0,2.92-3c0-1.59,0-3.18,0-4.77-.06-2.9-.4-3.28-3.31-3.31C1170.11,486.18,1165.33,486.22,1160.55,486.22Z" transform="translate(-620.11 -358.57)"/><path class="cls-2" d="M1035.78,519.87c0,3.32,0,6.2,0,9.09a1.75,1.75,0,0,1-2,2c-.6,0-1.19,0-1.79,0-14.19,0-28.37-.1-42.56,0-5.71.07-9.18-3.07-12-7.35a5.6,5.6,0,0,1-.56-2.88c0-12-.07-24,0-35.93,0-4.28,4.86-9.34,9.28-9.89a35.43,35.43,0,0,1,4.49-.21q20.37,0,40.75,0c.8,0,1.6,0,2.4.06,1.31,0,2,.66,2,2,0,2.3,0,4.59,0,6.89,0,1.78-.81,2.46-2.57,2.44-3.79-.07-7.59,0-11.38,0q-14.83,0-29.67,0c-3.22,0-3.36.18-3.42,3.39,0,1.4,0,2.8,0,4.19.07,3.15.37,3.47,3.42,3.52,2.1,0,4.2,0,6.3,0h33c4.36,0,4.37,0,4.37,4.5,0,1.59,0,3.19,0,4.79a1.68,1.68,0,0,1-1.85,1.86c-1,0-2,.06-3,.06H993.15c-4.39,0-4.43,0-4.41,4.23.06,8.21-.73,6.81,6.8,6.86,12.08.08,24.17,0,36.26,0C1033,519.68,1034.14,519.79,1035.78,519.87Z" transform="translate(-620.11 -358.57)"/><path class="cls-2" d="M1236.93,474.82c5.9,0,11.79,0,17.69,0,4.62,0,8.24,1.93,10.39,6.14a7.71,7.71,0,0,1,1,3.33c.06,12.38,0,24.76,0,37.13,0,3.76-2.61,5.82-5.29,7.74A10.94,10.94,0,0,1,1254,531c-11.49-.07-23-.14-34.47,0-5.75.07-9.06-3.33-11.94-7.52a4.87,4.87,0,0,1-.45-2.61c0-12.08-.09-24.16,0-36.24,0-3.56,2.54-5.87,5.1-7.93,2-1.63,4.49-2,7-2,5.9,0,11.79,0,17.68,0Zm-.16,44.85c4.79,0,9.59,0,14.38,0,2.82,0,3-.14,3-2.77.06-9.29,0-18.57,0-27.85,0-2-.67-2.87-2.79-2.85q-14.84.1-29.67,0c-2.08,0-2.8.8-2.79,2.83.06,9.28,0,18.56,0,27.85,0,2.64.19,2.76,3,2.78C1227,519.69,1231.87,519.67,1236.77,519.67Z" transform="translate(-620.11 -358.57)"/><path class="cls-2" d="M913.05,496c-.13,1.27-.37,2.5-.38,3.72,0,9.08,0,18.17,0,27.25,0,3.71-.36,4-4.17,4.07-1.9,0-3.8.06-5.7,0-2.36-.11-3-.71-3-3.13-.07-3.79,0-7.58,0-11.38,0-10.87-.08-21.75.06-32.63a17.31,17.31,0,0,1,1.47-6.3c1.22-2.87,5.86-3.71,8.52-1.51,3.49,2.9,6.77,6.06,10.08,9.17,8.34,7.84,16.64,15.74,25,23.57a7.87,7.87,0,0,0,2.23,1,8,8,0,0,0,.81-2.39c.06-9.48,0-19,.05-28.44,0-4.11,0-4.15,4.19-4.18,1.39,0,2.79,0,4.19,0,3.26.1,3.61.43,3.62,3.65q0,13.17,0,26.35c0,6.28-.07,12.57,0,18.86a7.14,7.14,0,0,1-4.2,6.9c-2.83,1.38-5.42-.08-7.54-2.08Q931.11,512.28,914,496S913.82,496,913.05,496Z" transform="translate(-620.11 -358.57)"/><path class="cls-2" d="M1104.7,565.75c-.11,1.77-.24,2.93-.25,4.09q0,13.45,0,26.93c0,4.07-.32,4.36-4.49,4.39q-2.25,0-4.5,0c-3.46,0-3.88-.48-4-4,0-.9,0-1.8,0-2.69,0-13.27,0-26.54,0-39.81a17,17,0,0,1,.76-5c1.58-5,6.47-6.27,10.42-2.62,5.2,4.84,10.31,9.78,15.47,14.66,6,5.69,12,11.39,18.12,17a1.86,1.86,0,1,0,3.37-1.48c.07-9.47,0-19,0-28.43,0-3.71.12-3.82,3.89-3.86,1.7,0,3.39,0,5.09,0,2,0,2.88,1,2.84,3-.07,2.89,0,5.78,0,8.67,0,12.27,0,24.54,0,36.81a7.86,7.86,0,0,1-2,5.76c-2.68,2.84-6.16,2.58-9.65-.69q-8.31-7.77-16.56-15.61-8.55-8.1-17.1-16.2A12.93,12.93,0,0,0,1104.7,565.75Z" transform="translate(-620.11 -358.57)"/><path class="cls-2" d="M1198.4,601.17q-12.89,0-25.77,0c-3.89,0-4-.17-4.07-4,0-1.5.06-3,0-4.49-.08-2,.89-2.85,2.89-2.83,5.69.05,11.39,0,17.08,0,3.49,0,3.58-.06,3.59-3.48q0-13.17,0-26.34c0-3.45-.15-3.59-3.51-3.61-5.39,0-10.78,0-16.18,0-3.42,0-3.79-.41-3.86-3.76,0-1.5,0-3,0-4.5.11-2.46.52-2.87,3-3.08.79-.07,1.59,0,2.39,0h49.14c.9,0,1.8,0,2.7.07a2.56,2.56,0,0,1,2.74,2.86c0,1.69.08,3.4,0,5.08-.17,2.53-1,3.34-3.59,3.36-5.6.06-11.19,0-16.78,0-3.34,0-3.88.51-3.89,3.81q-.07,12.89,0,25.75c0,3.41.55,3.86,4.11,3.87,5.5,0,11,0,16.48,0,3.25,0,3.65.43,3.72,3.59,0,1.4,0,2.8,0,4.19-.1,3-.62,3.56-3.83,3.57C1216,601.18,1207.19,601.16,1198.4,601.17Z" transform="translate(-620.11 -358.57)"/><path class="cls-2" d="M1044.89,601.17h-25.46c-4,0-4,0-4.07-4.18v-3.3c0-3.87,0-3.87,4-3.88,5.39,0,10.78,0,16.17,0,3.33,0,3.43-.08,3.45-3.3q0-13.47,0-26.93c0-3-.21-3.18-3.29-3.2-5.69,0-11.38,0-17.07,0-3,0-3.21-.24-3.28-3.25,0-1.9,0-3.79,0-5.69a2.06,2.06,0,0,1,2.33-2.4c.8,0,1.59,0,2.39,0h49.72c.7,0,1.4,0,2.09,0,1.86-.05,2.77.79,2.72,2.7s.05,3.59,0,5.38c-.09,3-.35,3.26-3.32,3.28-5.59,0-11.18,0-16.77,0-3.37,0-3.64.28-3.65,3.54q0,13.17,0,26.33c0,3.32.25,3.54,3.61,3.56,5.59,0,11.18,0,16.77,0,3.21,0,3.31.14,3.38,3.43,0,1.4,0,2.79,0,4.19,0,3.62-.13,3.74-3.68,3.74Q1057.92,601.19,1044.89,601.17Z" transform="translate(-620.11 -358.57)"/><path class="cls-2" d="M895,601.16c-7.29,0-14.58-.12-21.87,0-4.24.09-10.43-4-11-9a76.61,76.61,0,0,1-.89-7.65c-.11-7.69-.15-15.37,0-23a32,32,0,0,1,1.25-9.39,10.15,10.15,0,0,1,7.92-6.81,29.09,29.09,0,0,1,5.37-.34q20.07,0,40.14,0c.6,0,1.2,0,1.8,0,3.08.17,3.42.5,3.47,3.54,0,1.79,0,3.59,0,5.38a2.17,2.17,0,0,1-2.4,2.42c-1,0-2,0-3,0q-19,0-38,0c-3.59,0-3.81.17-3.83,3.64q-.06,12.72,0,25.44c0,4.34.11,4.35,4.34,4.35h38c1,0,2,0,3,.07a1.71,1.71,0,0,1,1.86,1.87c0,2.5,0,5,0,7.48,0,2.06-1.69,1.92-3.06,1.93-5.3,0-10.59,0-15.88,0H895Z" transform="translate(-620.11 -358.57)"/><path class="cls-2" d="M1257.69,589.8h43.11c3.89,0,3.9,0,3.92,4,0,1.5,0,3,0,4.49-.08,2.65-.24,2.78-3,2.86h-.6c-14.58,0-29.15,0-43.73,0a11.52,11.52,0,0,1-11.88-11.73c-.09-10.77.19-21.55-.1-32.32a11.76,11.76,0,0,1,12.08-12.17c13.67.15,27.35,0,41,0,1.3,0,2.59,0,3.89,0a2.05,2.05,0,0,1,2.31,2.42c0,2,0,4,0,6-.08,2.65-.32,2.9-3,2.93-5,0-10,0-15,0q-12.88,0-25.76,0c-3.41,0-3.49.09-3.49,3.57q0,13.17,0,26.33C1257.49,587.25,1257.6,588.23,1257.69,589.8Z" transform="translate(-620.11 -358.57)"/><path class="cls-2" d="M1100.81,519.67c.1-1.81.25-3.18.25-4.54q0-17.82,0-35.62c0-4.71,0-4.73,4.86-4.71,2.25,0,4.51.13,7,.21.06,1.4.14,2.38.14,3.36,0,13.77,0,27.54,0,41.31,0,5.66-5.41,11.24-11.14,11.28q-18.42.15-36.85,0a11,11,0,0,1-11-10.94c-.07-14,0-27.94,0-41.91,0-3,.22-3.23,3.21-3.31q2.55-.07,5.1,0c3.1.09,3.46.42,3.49,3.46.05,3.59,0,7.18,0,10.78,0,9,0,18,0,26.94,0,3.65.06,3.67,3.66,3.68h31.28Z" transform="translate(-620.11 -358.57)"/><path class="cls-2" d="M971.87,601.17c-7.08,0-14.17-.17-21.25,0-6.57.19-12.44-5.84-12.45-12.46,0-10,0-19.94,0-29.91,0-3.49,0-7,0-10.47,0-2.83.45-3.26,3.33-3.37,2.19-.09,4.39,0,6.58,0a1.8,1.8,0,0,1,2,2.05c0,.89,0,1.79,0,2.69v35.6c0,4.27.14,4.42,4.32,4.42H994c4.19,0,4.37.2,4.39,4.41,0,7.43.4,7-7,7Z" transform="translate(-620.11 -358.57)"/><path class="cls-1" d="M732.48,691.42c1-2.52,2.15-5,3-7.56a4.42,4.42,0,0,0,0-3,4.79,4.79,0,0,1,.21-5c5.21-8.56,10.28-17.2,15.41-25.81q6.14-10.26,12.28-20.51a5.35,5.35,0,0,1,5.86-2.44,10.3,10.3,0,0,1,7,5.48c2.32,4.55,4.6,9.12,6.89,13.69,2.49,5,4.94,10,7.45,15,3.18,6.34,6.43,12.63,9.57,19,1.39,2.81,2.6,5.7,3.83,8.58a5.74,5.74,0,0,1-1.37,6.28,48.77,48.77,0,0,1-19.06,11.38c-4.73,1.46-9.45,2.9-14.45,3.13a28.1,28.1,0,0,0-3.17.77,11.77,11.77,0,0,1-3,.14,71.67,71.67,0,0,1-8.55-1.13c-5.69-1.31-11.3-3-15.37-7.56a64.26,64.26,0,0,1-4.92-6.12C733.36,694.61,733.1,693.09,732.48,691.42Z" transform="translate(-620.11 -358.57)"/><path class="cls-1" d="M711.45,678.11c-6.23-.58-11.59-3.12-16.93-5.79a30,30,0,0,1-10.65-9.1,35.29,35.29,0,0,1-6.4-15.09c-.69-3.75-1.26-7.19.08-10.88a39.32,39.32,0,0,0,1.37-7,4.52,4.52,0,0,1,3-3.47,44.25,44.25,0,0,0,10.87-7,5.05,5.05,0,0,1,2.62-1.1q10.73-.82,21.46-1.43c4.19-.23,8.39-.17,12.58-.42,5.16-.31,10.31-.92,15.47-1.21,3.9-.22,8.82,3.48,9.93,7.15.84,2.78-1,4.84-2.19,6.86-4,6.87-8.35,13.52-12.54,20.29-3.51,5.68-6.94,11.43-10.49,17.09a7.87,7.87,0,0,1-2.46,2.48c-4,2.51-8,4.94-12.14,7.3A21.91,21.91,0,0,1,711.45,678.11Z" transform="translate(-620.11 -358.57)"/><path class="cls-1" d="M712.58,399.86c7.12-.07,12.43,2.94,15.7,9.37,1.2,2.36,2.47,4.7,3.44,7.16,1.09,2.75,0,5.16-1.59,7.5a35,35,0,0,0-3.34,6.17c-.39,1,.06,2.3.2,3.46.33,2.64,1,5.28.93,7.91a6.93,6.93,0,0,1-2.16,4Q713.31,457.83,700.64,470c-2.48,2.38-3.5,2.24-6-.15-2.92-2.76-5-5.86-5.44-10.1-.41-3.65-2.84-6.41-5.87-8.5-2.07-1.42-4-2.9-4.88-5.41a8.2,8.2,0,0,1-.66-2.26c-.14-3.78-.15-7.57-.29-11.35-.3-8.54,3.6-15.13,9.37-21a37.23,37.23,0,0,1,12.57-8C703.64,401.49,707.9,400,712.58,399.86Z" transform="translate(-620.11 -358.57)"/><path class="cls-1" d="M772,557c-.52,2.21-1.2,4.39-1.52,6.63-.35,2.45-.28,5-.57,7.44s-.91,5-1.2,7.58a64.88,64.88,0,0,0-.48,7.75,6,6,0,0,1-4,6c-1.81.78-3.68,1.43-5.42,2.33-4.57,2.34-8.27-.26-12-2.17-6.65-3.42-13.17-7.11-19.76-10.68-2.24-1.22-4.53-2.34-6.74-3.62-4.29-2.49-6-8.73-3.41-12.93,3.22-5.2,6.62-10.29,10-15.39,3.08-4.68,6.35-9.24,9.3-14a6.71,6.71,0,0,1,5.46-3.35,49.38,49.38,0,0,0,6.95-1.26c2-.51,3.29.46,4.53,1.59,2.48,2.28,4.86,4.67,7.28,7s5.15,4.89,7.58,7.47S772.5,553,772,557Z" transform="translate(-620.11 -358.57)"/><path class="cls-1" d="M804.4,487.68c-3.07-3.32-6-6.58-9.06-9.8-5.85-6.26-11.73-12.5-17.57-18.77q-6.76-7.26-13.43-14.61a3.78,3.78,0,0,1-.92-2.42c.24-4.76.7-9.51,1-14.27.18-3.44,2.87-4.82,5.12-6.49,4.1-3.05,8.34-5.93,12.49-8.91,6.86-4.93,13.68-9.91,20.56-14.82a7.68,7.68,0,0,1,2.1-.73C805.81,400,805.66,485.3,804.4,487.68Z" transform="translate(-620.11 -358.57)"/><path class="cls-1" d="M734.42,398c.33-1.42.77-3,1.08-4.66a6.6,6.6,0,0,0,0-2.26c-.15-.87-.5-1.7-.73-2.56-1.94-7.23,2.33-11.57,7.4-15.36a26.38,26.38,0,0,1,13.43-4.95c1.56-.15,3.1-.59,4.66-.88a8.15,8.15,0,0,1,2-.31c5.53.37,11.08.71,16.38,2.54,3.26,1.12,6.53,2.22,9.77,3.41a17.49,17.49,0,0,1,4.25,2c3.25,2.39,6.32,5,9.51,7.46,1.75,1.34,1.6,2.54,0,3.86s-2.85,2.75-4.46,3.86c-9.48,6.57-19,13-28.54,19.59-3.23,2.22-6.4,4.53-9.56,6.85-1.45,1.06-2.82.93-4.49.38a69.16,69.16,0,0,0-9.66-2.58c-3.71-.65-5.46-3.33-7.18-6.09a41.87,41.87,0,0,1-3.14-6A20.94,20.94,0,0,1,734.42,398Z" transform="translate(-620.11 -358.57)"/><path class="cls-1" d="M635.14,567.54a98.73,98.73,0,0,1,2-10.52c1-3.45,3.88-4.85,7.4-5.48,5.33-1,9.65,1.22,14.06,3.62,9.88,5.36,19.85,10.56,29.74,15.88a47.12,47.12,0,0,1,5.23,3.38c2.22,1.59,2.62,3.6,1.51,6.29-2.68,6.54-6.95,12.11-10.93,17.84a8.34,8.34,0,0,1-3.31,2.4q-6.72,3.07-13.56,5.87a5,5,0,0,1-3.2.12c-7.91-2.64-14.81-6.86-20-13.5-3.41-4.36-6.15-9.11-7.06-14.71C636.38,575,635.76,571.33,635.14,567.54Z" transform="translate(-620.11 -358.57)"/><path class="cls-1" d="M754.65,447.81,801,498.3a32.4,32.4,0,0,1-4.5,2c-2.57.68-5.19,1.17-7.81,1.65-3.42.62-6.88,1-10.27,1.74-4.15.86-8.3,1.77-12.35,3A10.44,10.44,0,0,1,755.15,504c-1.61-1.74-3.23-3.47-4.74-5.3a7.68,7.68,0,0,1-1.86-5.51c.43-7.46.85-14.91,1.14-22.38.18-4.68.32-9.39.13-14.07C749.66,453.05,750.66,450.15,754.65,447.81Z" transform="translate(-620.11 -358.57)"/><path class="cls-1" d="M804.32,570.62c-3.45-3.31-7-6.56-10.34-9.94q-15.9-15.88-31.71-31.86a20.17,20.17,0,0,1-2.5-3.3c-2.67-4.09-.85-7.87,4-8.89,6.57-1.37,13.09-3,19.66-4.46,3.76-.81,7.59-1.34,11.37-2.08,2.23-.44,4.41-1.23,6.66-1.51,3.24-.4,3.75.13,3.76,3.29q.1,27.84.15,55.68c0,.94-.17,1.88-.26,2.83Z" transform="translate(-620.11 -358.57)"/><path class="cls-1" d="M657,540.37c1.64-.51,3.25-1.09,4.91-1.52,3-.77,5.94-1.51,8.93-2.17,4-.91,8.12-1.72,12.17-2.61,3.18-.7,6.34-1.49,9.52-2.2,4-.88,7.91-1.7,11.87-2.56,3.08-.68,6.18-1.32,9.24-2.07s5.89-1.71,8.88-2.38a4.57,4.57,0,0,1,4.8,2.38,5.55,5.55,0,0,1,.2,4.72c-2.53,4.45-5.53,8.63-8.31,12.93q-5,7.79-10,15.61c-3.62,5.72-8.75,7-15.38,3.51-8.63-4.56-17.18-9.26-25.7-14-3.25-1.81-6.41-3.82-9.49-5.92-.86-.58-1.32-1.78-2-2.69Z" transform="translate(-620.11 -358.57)"/><path class="cls-1" d="M692,480.06c-4.63,4.14-8.91,7.76-13,11.64-8.91,8.58-17.69,17.3-26.56,25.93a7.65,7.65,0,0,1-9,1.36,13.72,13.72,0,0,0-3.4-1c-2.94-.49-4.1-1.56-4.28-4.4-.37-5.88-.51-11.84,1.62-17.39,3.13-8.2,7.91-15.22,15.71-19.95a50.59,50.59,0,0,1,9.9-5.14,5.86,5.86,0,0,1,4-.15,23.86,23.86,0,0,0,15.28,2.41,4.55,4.55,0,0,1,4.3,1.52C688.39,476.8,690.37,478.54,692,480.06Z" transform="translate(-620.11 -358.57)"/><path class="cls-1" d="M655.73,528.89c2-4.38,5.58-6.86,8.53-9.81,10-10,20-19.85,30-29.75a11.78,11.78,0,0,1,1.55-1.37c3.08-2.21,3.54-2.27,6.43.13q9.44,7.83,18.75,15.82c1.89,1.63,3.58,3.5,2.06,6.37a4.82,4.82,0,0,0-.26,2.06,4.06,4.06,0,0,1-3.1,3.94c-2.54.81-5.2,1.24-7.81,1.81-3.95.86-7.9,1.7-11.86,2.55-3.3.7-6.6,1.39-9.89,2.1-4.64,1-9.26,2-13.9,3-3.3.68-6.63,1.21-9.94,1.88a26.6,26.6,0,0,0-3.68,1.06A11.13,11.13,0,0,1,655.73,528.89Z" transform="translate(-620.11 -358.57)"/><path class="cls-1" d="M740.13,473.81c0,6,0,12,0,17.95,0,1.94.47,4.2-1.7,5.37-2.66,1.44-5.5,2.67-8.48,1a40.38,40.38,0,0,1-5.84-3.94c-5.18-4.23-10.27-8.56-15.38-12.87-2.93-2.46-3-3.59-.27-6.16l24.35-23.11c.58-.54,1.15-1.09,1.77-1.57,2.52-1.92,5-1,5.28,2.06s.23,6.38.26,9.57c0,3.89,0,7.78,0,11.67Z" transform="translate(-620.11 -358.57)"/><path class="cls-1" d="M749.52,605.72a57.86,57.86,0,0,1-7.42,1.45c-5.37.37-10.86-.12-16.14.73-9.05,1.46-18.12.8-27.17,1.26A36.49,36.49,0,0,1,694,609c-2.7-.22-3.8-2-2.43-4.3,3.27-5.38,6.52-10.77,10.07-16,2.7-4,9.77-5.2,14-2.89,10.22,5.58,20.46,11.12,30.67,16.71a36.72,36.72,0,0,1,3.31,2.28Z" transform="translate(-620.11 -358.57)"/><path class="cls-1" d="M780.53,561.46c2.29-.41,3.23,1.19,4.24,2.22q8.93,9.08,17.64,18.37c1.83,2,3.18,4.14,3,7.08-.18,3.48,0,7-.06,10.48a4.38,4.38,0,0,1-4.24,4.48,99.59,99.59,0,0,1-12,0c-1.48-.11-3-1.29-4.25-2.33a63.79,63.79,0,0,1-6.32-6.2c-2.94-3.33-2-7.22-1.13-11a23,23,0,0,0,.8-2.23c.68-6,1.3-12,1.94-18.05C780.31,563.35,780.42,562.4,780.53,561.46Z" transform="translate(-620.11 -358.57)"/><path class="cls-1" d="M804.07,668q-3.51-6.82-7-13.63c-3.22-6.28-6.48-12.55-9.62-18.87-1.8-3.6-3.6-7.23-5-11-1.72-4.52,2.41-10.55,7.29-10.78,4.18-.19,8.38-.14,12.57-.12,3,0,3.26.28,3.27,3.26.05,7,0,14,0,20.93,0,9,0,17.94,0,26.92a24.55,24.55,0,0,1-.45,3.26Z" transform="translate(-620.11 -358.57)"/><path class="cls-1" d="M1160.55,486.22c4.78,0,9.56,0,14.35,0,2.91,0,3.25.41,3.31,3.31,0,1.59,0,3.18,0,4.77a2.64,2.64,0,0,1-2.92,3c-2,0-4,0-6,0-7.57,0-15.14,0-22.71,0-3.2,0-3.61-.38-3.62-3.65,0-9-.65-7.3,7.12-7.46,3.49-.07,7,0,10.46,0Z" transform="translate(-620.11 -358.57)"/><path class="cls-1" d="M1236.77,519.67c-4.9,0-9.79,0-14.69,0-2.84,0-3-.14-3-2.78,0-9.29,0-18.57,0-27.85,0-2,.71-2.85,2.79-2.83q14.84.07,29.67,0c2.12,0,2.79.87,2.79,2.85,0,9.28,0,18.56,0,27.85,0,2.63-.23,2.76-3,2.77C1246.36,519.69,1241.56,519.67,1236.77,519.67Z" transform="translate(-620.11 -358.57)"/></svg>