<svg id="Livello_1" data-name="Livello 1" xmlns="http://www.w3.org/2000/svg" viewBox="0 0 768 768"><defs><style>.cls-1,.cls-2{opacity:0.7;}.cls-2{fill:none;}</style></defs><g class="cls-1"><path class="cls-2" d="M576,156h768V924H576ZM682.85,558.59H683q0,112.3,0,224.61c0,10.8,2.43,20.89,8.15,30,12.88,20.44,31.67,29.77,55.73,29.76q209-.15,418.09,0a77.49,77.49,0,0,0,10.44-.72c27.71-3.78,49.28-28.62,49.28-56.6q0-40.12,0-80.25,0-55.5,0-111c0-2.16-.38-4.13,2.8-5.13,12.23-3.83,19-13.23,19.11-26.08q.15-23.8,0-47.62c-.1-12-6.82-21.88-18-25.92-3.25-1.17-4-2.62-4-5.81q.17-76.87.07-153.74c0-16-5.66-29.75-17.22-40.95s-25.55-16.68-41.66-16.69q-46.87,0-93.75,0c-2.47,0-3.67-.65-4.62-3.05a37.15,37.15,0,0,0-16.16-18.58c-6.79-4-14.19-5.33-21.92-5.33q-77.81,0-155.61-.08a22.85,22.85,0,0,1-8-1.51c-25.73-9.84-51.34,2.42-58.83,25.92-.75,2.33-2.1,2.65-4.14,2.64-11.62-.06-23.25-.12-34.87,0-11.11.1-22.29-.31-33.32.74-29.11,2.76-51.69,28.29-51.68,57.49Q682.88,444.61,682.85,558.59Z" transform="translate(-576 -156)"/><path d="M682.85,558.59q0-114,0-228c0-29.2,22.57-54.73,51.68-57.49,11-1.05,22.21-.64,33.32-.74,11.62-.1,23.25,0,34.87,0,2,0,3.39-.31,4.14-2.64,7.49-23.5,33.1-35.76,58.83-25.92a22.85,22.85,0,0,0,8,1.51q77.8.14,155.61.08c7.73,0,15.13,1.31,21.92,5.33a37.15,37.15,0,0,1,16.16,18.58c1,2.4,2.15,3.05,4.62,3.05q46.88-.11,93.75,0c16.11,0,30,5.45,41.66,16.69S1224.58,314,1224.59,330q.06,76.86-.07,153.74c0,3.19.72,4.64,4,5.81,11.22,4,17.94,13.88,18,25.92q.2,23.82,0,47.62c-.09,12.85-6.88,22.25-19.11,26.08-3.18,1-2.8,3-2.8,5.13q0,55.5,0,111,0,40.13,0,80.25c0,28-21.57,52.82-49.28,56.6a77.49,77.49,0,0,1-10.44.72q-209,0-418.09,0c-24.06,0-42.85-9.32-55.73-29.76-5.72-9.08-8.16-19.17-8.15-30q.11-112.31,0-224.61Zm84.78-19.51h0q0,103.3,0,206.61c0,5.87-.15,11.75.08,17.62.25,6.28,3,8.73,9.17,8.77q7.32,0,14.62,0,118.68,0,237.36,0,58.68,0,117.36,0c8.35,0,10.31-2.07,10.28-10.48,0-13.88,0-27.75,0-41.63q0-64.68,0-129.36c0-2.38-.24-4.15-2.74-5.48-8.49-4.51-12.63-12-12.76-21.41-.22-16.49-.34-33,.07-49.49.21-8.55,4.15-15.69,11.82-20.07,2.67-1.52,3.57-3.27,3.56-6.24-.07-26.12,0-52.24,0-78.36,0-5.89-.46-6.34-6.47-6.34-19.24,0-38.49,0-57.74.08-13.16.08-24.67-3.47-34.26-13.1-9.85-9.9-15.36-21.38-15.36-35.38,0-17.75-.07-35.5.16-53.24,0-3.73-.84-4.91-4.71-4.9q-72.56.19-145.11,0c-3.09,0-4.12.85-4.07,4,.2,12,.22,24,.16,36a40,40,0,0,1-.92,9.28c-5,20.06-24.68,33.48-45.33,31-22.46-2.7-37.9-19.34-38-41-.06-11.75-.22-23.5-.09-35.25,0-3.21-1-4.09-4.07-4-4.87.21-9.75,0-14.62.09-8.42.07-14,3.81-16.69,11.82a34.66,34.66,0,0,0-1.55,10.64Q767.57,429.21,767.63,539.08Zm413.79,52.59c-.08,1.66-.18,2.76-.18,3.87l0,70.48q0,50-.07,100.09c0,10.64-4.31,19.1-13,25.21-7.29,5.12-15.57,6.15-24.26,6.14q-133.83-.09-267.68,0-51.54,0-103.09-.13c-2,0-3.44.14-3.43,2.63.05,5.82,0,11.64,0,17.9h7q67.85,0,135.71.07,127.47,0,254.93-.18c18.89,0,31.78-13.58,31.75-32.37q-.12-78.36,0-156.71,0-16.68-.2-33.36c0-1.61.53-3.71-2.36-3.66C1191.54,591.72,1186.68,591.67,1181.42,591.67Zm17.28-105.06c.1-1.41.24-2.51.24-3.61q0-78,0-156a25.82,25.82,0,0,0-4.7-15.15c-7.16-10.23-17.16-14.88-29.47-14.94q-33.73-.14-67.48-.21a19.61,19.61,0,0,0-2.73.35l-1,1.35c6.75,6.3,13.69,12.41,20.21,18.93,18.28,18.29,36.39,36.75,54.55,55.16,8.65,8.77,13,19.1,12.85,31.66-.3,26,0,52,0,78v4.46ZM1194,566.3c6.61,0,13.23.08,19.84,0,4.63-.07,7.35-2.47,7.39-6.7.12-13.23.17-26.46,0-39.69,0-4.69-3.17-7.68-7.88-7.71-13-.08-26-.08-39,.07-5.08.06-7.77,2.86-8,8-.18,3.49-.06,7-.06,10.49,0,8.86-.09,17.72.05,26.58.09,6.35,2.78,9,8.89,9S1187.76,566.29,1194,566.3Zm-330.45-257h.16c0-4.38,0-8.75,0-13.12s.25-9,0-13.48a23.79,23.79,0,0,0-1.63-8.33c-3.21-7.12-11.12-10.54-19.17-8.77a16.25,16.25,0,0,0-12.78,15.94c-.07,18,0,36,.05,54,0,10,6.76,16.92,16.45,17.11,10.26.2,16.65-6,16.86-16.71C863.7,327,863.56,318.11,863.56,309.25Z" transform="translate(-576 -156)"/><path class="cls-2" d="M767.63,539.08q0-109.88.06-219.73a34.66,34.66,0,0,1,1.55-10.64c2.67-8,8.27-11.75,16.69-11.82,4.87-.05,9.75.12,14.62-.09,3-.13,4.1.75,4.07,4-.13,11.75,0,23.5.09,35.25.12,21.65,15.56,38.29,38,41,20.65,2.48,40.37-10.94,45.33-31a40,40,0,0,0,.92-9.28c.06-12,0-24-.16-36-.05-3.14,1-4,4.07-4q72.55.12,145.11,0c3.87,0,4.76,1.17,4.71,4.9-.23,17.74-.16,35.49-.16,53.24,0,14,5.51,25.48,15.36,35.38,9.59,9.63,21.1,13.18,34.26,13.1,19.25-.11,38.5-.08,57.74-.08,6,0,6.47.45,6.47,6.34,0,26.12-.06,52.24,0,78.36,0,3-.89,4.72-3.56,6.24-7.67,4.38-11.61,11.52-11.82,20.07-.41,16.49-.29,33-.07,49.49.13,9.43,4.27,16.9,12.76,21.41,2.5,1.33,2.74,3.1,2.74,5.48q0,64.68,0,129.36c0,13.88,0,27.75,0,41.63,0,8.41-1.93,10.48-10.28,10.48q-58.68,0-117.36,0-118.68,0-237.36,0-7.31,0-14.62,0c-6.2,0-8.92-2.49-9.17-8.77-.23-5.87-.08-11.75-.08-17.62q0-103.31,0-206.61ZM967.91,655.81c4.86-.34,9.74-.48,14.56-1.06,47.49-5.63,83.67-29,107.77-70.21,16-27.47,21.77-57.26,16.17-88.77-6.06-34.12-23.08-62-50-83.6-33.66-27-72-37-114.48-29.08-36.62,6.84-66.06,25.76-88.18,55.56-21.67,29.19-30.7,62.16-25.14,98.24C839.14,605.46,898.52,655.71,967.91,655.81ZM874.12,730v-.1c21.37,0,42.73,0,64.1,0,7.64,0,13.23-5.55,13-12.52s-5.89-12.15-13.15-12.15l-119.58.11c-2.87,0-5.75-.19-8.61,0A12.52,12.52,0,0,0,797.8,718c.05,7,4.74,11.53,12.22,11.91,1.12.05,2.25,0,3.37,0Zm183.05,0v-.05c20.36,0,40.71.07,61.07,0,7.73,0,13.5-5.58,13.31-12.32-.2-7.07-6.19-12.37-13.8-12.36q-55.08.09-110.15.1c-4.24,0-8.5-.18-12.73.1a12,12,0,0,0-11.71,11.45c-.47,6.26,3.15,11.35,9.23,12.7A26,26,0,0,0,998,730Q1027.58,730,1057.17,730ZM838.82,650.89v0c-9.61,0-19.23-.1-28.84,0-7.29.1-12.37,5.49-12.36,12.75,0,6.63,5.23,11.66,12.42,11.83,4,.1,8,0,12,0,14.73,0,29.46.09,44.19,0,8.17,0,13.75-5.45,13.53-12.83-.22-7.18-5.91-11.94-14-11.86C856.8,651,847.81,650.89,838.82,650.89Zm253.86,0c-8.5,0-17-.06-25.48,0-7.86.06-12.82,4.86-13,12.41-.19,7.1,4.8,12.12,12.72,12.19q25.86.24,51.71,0c7.7-.06,13.18-5.63,13-12.61-.15-7.19-6-12.16-13.86-12.06C1109.41,651,1101,650.88,1092.68,650.88Z" transform="translate(-576 -156)"/><path class="cls-2" d="M1181.42,591.67c5.26,0,10.12.05,15,0,2.89,0,2.35,2.05,2.36,3.66q.16,16.68.2,33.36,0,78.36,0,156.71c0,18.79-12.86,32.33-31.75,32.37q-127.47.19-254.93.18-67.86,0-135.71-.07h-7c0-6.26,0-12.08,0-17.9,0-2.49,1.39-2.63,3.43-2.63q51.54.13,103.09.13,133.85,0,267.68,0c8.69,0,17-1,24.26-6.14,8.73-6.11,13-14.57,13-25.21q0-50,.07-100.09l0-70.48C1181.24,594.43,1181.34,593.33,1181.42,591.67Z" transform="translate(-576 -156)"/><path class="cls-2" d="M1198.7,486.61h-17.48v-4.46c0-26-.28-52,0-78,.15-12.56-4.2-22.89-12.85-31.66-18.16-18.41-36.27-36.87-54.55-55.16-6.52-6.52-13.46-12.63-20.21-18.93l1-1.35a19.61,19.61,0,0,1,2.73-.35q33.73.07,67.48.21c12.31.06,22.31,4.71,29.47,14.94A25.82,25.82,0,0,1,1199,327q0,78,0,156C1198.94,484.1,1198.8,485.2,1198.7,486.61Z" transform="translate(-576 -156)"/><path class="cls-2" d="M1194,566.29c-6.25,0-12.49,0-18.73,0s-8.8-2.64-8.89-9c-.14-8.86-.05-17.72-.05-26.58,0-3.5-.12-7,.06-10.49.28-5.12,3-7.92,8-8,13-.15,26-.15,39-.07,4.71,0,7.84,3,7.88,7.71.13,13.23.08,26.46,0,39.69,0,4.23-2.76,6.63-7.39,6.7C1207.24,566.38,1200.62,566.3,1194,566.29Z" transform="translate(-576 -156)"/><path class="cls-2" d="M863.56,309.25c0,8.86.14,17.73,0,26.6-.21,10.7-6.6,16.91-16.86,16.71-9.69-.19-16.41-7.11-16.45-17.11-.07-18-.12-36-.05-54A16.25,16.25,0,0,1,843,265.55c8-1.77,16,1.65,19.17,8.77a23.79,23.79,0,0,1,1.63,8.33c.23,4.48,0,9,0,13.48s0,8.74,0,13.12Z" transform="translate(-576 -156)"/><path d="M967.91,655.81c-69.39-.1-128.77-50.35-139.33-118.92-5.56-36.08,3.47-69.05,25.14-98.24,22.12-29.8,51.56-48.72,88.18-55.56,42.53-7.95,80.82,2.12,114.48,29.08,26.95,21.59,44,49.48,50,83.6,5.6,31.51-.12,61.3-16.17,88.77-24.1,41.25-60.28,64.58-107.77,70.21C977.65,655.33,972.77,655.47,967.91,655.81Zm-.11-25.38a113.39,113.39,0,0,0,71.43-25c27.48-22.28,43-51.12,43.72-86.74.57-28.09-9.82-52.56-28.57-73.3-22.24-24.61-50.06-38.51-83.29-39.49-36.5-1.07-67.08,13.08-91,40.49-24.64,28.26-33.25,61.08-23.89,97.69C869.07,594.42,915.41,630,967.8,630.43Z" transform="translate(-576 -156)"/><path d="M874.12,730H813.39c-1.12,0-2.25,0-3.37,0-7.48-.38-12.17-5-12.22-11.91a12.52,12.52,0,0,1,12.12-12.74c2.86-.18,5.74,0,8.61,0l119.58-.11c7.26,0,13,5.29,13.15,12.15s-5.4,12.49-13,12.52c-21.37.07-42.73,0-64.1,0Z" transform="translate(-576 -156)"/><path d="M1057.17,730q-29.6,0-59.2,0a26,26,0,0,1-5.58-.41c-6.08-1.35-9.7-6.44-9.23-12.7a12,12,0,0,1,11.71-11.45c4.23-.28,8.49-.1,12.73-.1q55.08,0,110.15-.1c7.61,0,13.6,5.29,13.8,12.36.19,6.74-5.58,12.28-13.31,12.32-20.36.11-40.71,0-61.07,0Z" transform="translate(-576 -156)"/><path d="M838.82,650.89c9,0,18,.07,27,0,8.05-.08,13.74,4.68,14,11.86.22,7.38-5.36,12.79-13.53,12.83-14.73.07-29.46,0-44.19,0-4,0-8,.09-12,0-7.19-.17-12.41-5.2-12.42-11.83,0-7.26,5.07-12.65,12.36-12.75,9.61-.13,19.23,0,28.84,0Z" transform="translate(-576 -156)"/><path d="M1092.68,650.88c8.36,0,16.73.08,25.1,0,7.89-.1,13.71,4.87,13.86,12.06.15,7-5.33,12.55-13,12.61q-25.84.22-51.71,0c-7.92-.07-12.91-5.09-12.72-12.19.2-7.55,5.16-12.35,13-12.41C1075.69,650.82,1084.18,650.88,1092.68,650.88Z" transform="translate(-576 -156)"/><path class="cls-2" d="M967.8,630.43c-52.39-.43-98.73-36-111.59-86.37-9.36-36.61-.75-69.43,23.89-97.69,23.91-27.41,54.49-41.56,91-40.49,33.23,1,61.05,14.88,83.29,39.49,18.75,20.74,29.14,45.21,28.57,73.3-.73,35.62-16.24,64.46-43.72,86.74A113.39,113.39,0,0,1,967.8,630.43Zm-.3-27.72v.06h14.62c5,0,10,0,15-.09,9.45-.24,16-6.68,16.25-16,.16-7,.2-14,.07-21-.07-3.5,1.11-4.9,4.78-4.75,6.61.25,13.27-.31,19.86.18,12.05.89,18.57-8.32,18.28-18.27-.37-12.74-.13-25.49-.16-38.24,0-6.25.19-12.51-.14-18.74-.48-9-7.64-15.39-16.62-15.33-6.87.05-13.75,0-20.62,0-4.84,0-5.3-.42-5.34-5.38-.07-6.87.17-13.75-.11-20.62a16.11,16.11,0,0,0-15.93-15.3q-29.43-.14-58.87,0c-9.61.06-16.7,7.25-16.87,16.9-.11,6.24,0,12.49,0,18.74,0,5.61-.17,5.83-5.93,5.81l-.75,0c-6.13,0-12.25-.1-18.37-.1-11.75,0-18,6.23-18.09,18.08-.05,16,0,32,.11,48a98,98,0,0,0,.25,10.85,15.14,15.14,0,0,0,15,13.49c7.87.1,15.75.12,23.62,0,3.14-.07,4.22,1.18,4.17,4.18-.11,6.87-.16,13.75-.05,20.62.16,10.25,6.78,16.88,17,17C948.25,602.79,957.88,602.71,967.5,602.71Z" transform="translate(-576 -156)"/><path d="M967.5,602.71c-9.62,0-19.25.08-28.87,0-10.18-.1-16.8-6.73-17-17-.11-6.87-.06-13.75.05-20.62,0-3-1-4.25-4.17-4.18-7.87.16-15.75.14-23.62,0a15.14,15.14,0,0,1-15-13.49,98,98,0,0,1-.25-10.85c-.06-16-.16-32-.11-48,0-11.85,6.34-18.06,18.09-18.08,6.12,0,12.24.07,18.37.1l.75,0c5.76,0,6-.2,5.93-5.81,0-6.25-.13-12.5,0-18.74.17-9.65,7.26-16.84,16.87-16.9q29.45-.18,58.87,0a16.11,16.11,0,0,1,15.93,15.3c.28,6.87,0,13.75.11,20.62,0,5,.5,5.37,5.34,5.38,6.87,0,13.75.07,20.62,0,9-.06,16.14,6.31,16.62,15.33.33,6.23.12,12.49.14,18.74,0,12.75-.21,25.5.16,38.24.29,10-6.23,19.16-18.28,18.27-6.59-.49-13.25.07-19.86-.18-3.67-.15-4.85,1.25-4.78,4.75.13,7,.09,14-.07,21-.22,9.37-6.8,15.81-16.25,16-5,.12-10,.08-15,.09H967.5Zm.26-24.45v0c5.37,0,10.74,0,16.11,0,4.64,0,5.37-.79,5.36-5.52q0-13.5-.06-27c0-6.82,2.38-9.37,9.09-9.39,9.24,0,18.49,0,27.73,0,4.45,0,5.37-.92,5.38-5.2q0-15.18,0-30.36c0-4.53-1.23-5.7-5.86-5.7-9.12,0-18.24,0-27.36,0-7.2,0-9-1.91-9-9.18,0-8.75.12-17.49.08-26.24,0-4.73-1.15-5.71-5.79-5.69q-15.55.06-31.1.06c-5.3,0-6,.64-6,6.08,0,8.62,0,17.24,0,25.86,0,7-2.18,9.13-9.24,9.14-9.49,0-19,0-28.48-.1-3.48,0-5,1.39-4.95,4.92.1,10.37,0,20.74.07,31.11,0,4,1.39,5.27,5.5,5.27,9.37,0,18.74,0,28.11,0,6.21,0,9,2.68,9,8.85,0,9.24,0,18.49,0,27.73,0,4.15,1.22,5.32,5.39,5.34C957,578.28,962.39,578.26,967.76,578.26Z" transform="translate(-576 -156)"/><path class="cls-2" d="M967.76,578.26c-5.37,0-10.75,0-16.12,0-4.17,0-5.38-1.19-5.39-5.34,0-9.24,0-18.49,0-27.73,0-6.17-2.76-8.84-9-8.85-9.37,0-18.74,0-28.11,0-4.11,0-5.48-1.24-5.5-5.27-.06-10.37,0-20.74-.07-31.11,0-3.53,1.47-5,4.95-4.92,9.49.11,19,.11,28.48.1,7.06,0,9.22-2.16,9.24-9.14,0-8.62,0-17.24,0-25.86,0-5.44.69-6.08,6-6.08q15.54,0,31.1-.06c4.64,0,5.77,1,5.79,5.69,0,8.75-.06,17.49-.08,26.24,0,7.27,1.81,9.16,9,9.18,9.12,0,18.24,0,27.36,0,4.63,0,5.85,1.17,5.86,5.7q.06,15.18,0,30.36c0,4.28-.93,5.19-5.38,5.2-9.24,0-18.49,0-27.73,0-6.71,0-9.12,2.57-9.09,9.39q.06,13.5.06,27c0,4.73-.72,5.49-5.36,5.52-5.37,0-10.74,0-16.11,0Z" transform="translate(-576 -156)"/></g></svg>