<svg id="Livello_1" data-name="Livello 1" xmlns="http://www.w3.org/2000/svg" viewBox="0 0 768 768"><defs><style>.cls-1{opacity:0.7;}.cls-2{fill:none;}</style></defs><g class="cls-1"><path class="cls-2" d="M576,924V156h768V924ZM898.83,542.89a8.33,8.33,0,0,1-1.26.83c-16.83,5.73-31.84,14.32-43.85,27.7a6.57,6.57,0,0,1-2.89,1.57c-27.09,8.31-50.06,23-68.31,44.72-13.17,15.64-22.38,33.5-23.2,54.17-1,24.71-.81,49.49-.37,74.22.35,19.52,14.4,33.53,33.85,33.91,27.61.54,55.24.38,82.85.4q94.11.08,188.23,0c20.74,0,41.5.22,62.22-.54a33.48,33.48,0,0,0,31.83-32.5c.45-24.49.52-49-.13-73.48a73.68,73.68,0,0,0-5-24.78c-15.68-39.38-45.66-63.21-85.12-76.32a13.49,13.49,0,0,1-5.2-3.31c-9.07-9.34-19.37-16.89-31.48-21.82-4-1.63-8-3.13-12.48-4.84,1.3-1.38,2.3-2.46,3.32-3.52,14.76-15.36,26.17-32.7,32-53.43.34-1.2,1.93-2.25,3.17-3,2.58-1.49,5.51-2.42,7.94-4.11,12.56-8.7,18-35.29-.29-47.11-1.88-1.21-2.36-2.3-1.47-4.54,2-5,3.75-10.05,5.24-15.19,5.36-18.51,10.1-37.12,8.52-56.69-1.45-18-12.9-31.24-30.49-35.32a6.25,6.25,0,0,1-3.65-3,62.3,62.3,0,0,0-25-26.71c-15.52-9.09-32.44-13.26-50.27-14.44-26.62-1.76-52.11,2.58-75.87,14.81-32.26,16.59-49.61,42.75-49.47,79.65.08,19.37,4.15,37.92,11.1,55.92.51,1.33.91,2.72,1.29,3.89-2,1.35-3.61,2.29-5,3.49-10.85,9.18-12.11,27.29-2.82,39.85,3.28,4.44,7.29,8.05,12.77,9.23,2.27.49,2.87,1.54,3.62,3.43,3.22,8.1,6.19,16.36,10.15,24.1C879.66,522.53,888.83,532.83,898.83,542.89Z" transform="translate(-576 -156)"/><path d="M898.83,542.89c-10-10.06-19.17-20.36-25.48-32.68-4-7.74-6.93-16-10.15-24.1-.75-1.89-1.35-2.94-3.62-3.43-5.48-1.18-9.49-4.79-12.77-9.23-9.29-12.56-8-30.67,2.82-39.85,1.42-1.2,3.06-2.14,5-3.49-.38-1.17-.78-2.56-1.29-3.89-7-18-11-36.55-11.1-55.92-.14-36.9,17.21-63.06,49.47-79.65,23.76-12.23,49.25-16.57,75.87-14.81,17.83,1.18,34.75,5.35,50.27,14.44a62.3,62.3,0,0,1,25,26.71,6.25,6.25,0,0,0,3.65,3c17.59,4.08,29,17.29,30.49,35.32,1.58,19.57-3.16,38.18-8.52,56.69-1.49,5.14-3.26,10.22-5.24,15.19-.89,2.24-.41,3.33,1.47,4.54,18.29,11.82,12.85,38.41.29,47.11-2.43,1.69-5.36,2.62-7.94,4.11-1.24.72-2.83,1.77-3.17,3-5.82,20.73-17.23,38.07-32,53.43-1,1.06-2,2.14-3.32,3.52,4.43,1.71,8.48,3.21,12.48,4.84,12.11,4.93,22.41,12.48,31.48,21.82a13.49,13.49,0,0,0,5.2,3.31c39.46,13.11,69.44,36.94,85.12,76.32a73.68,73.68,0,0,1,5,24.78c.65,24.48.58,49,.13,73.48a33.48,33.48,0,0,1-31.83,32.5c-20.72.76-41.48.53-62.22.54q-94.11.08-188.23,0c-27.61,0-55.24.14-82.85-.4-19.45-.38-33.5-14.39-33.85-33.91-.44-24.73-.61-49.51.37-74.22.82-20.67,10-38.53,23.2-54.17C800.77,596,823.74,581.3,850.83,573a6.57,6.57,0,0,0,2.89-1.57c12-13.38,27-22,43.85-27.7A8.33,8.33,0,0,0,898.83,542.89Zm-59.5,61c-15.17,7-28.11,15.77-38.44,28-10.17,12-17.15,25.66-17.46,41.68-.47,24.11-.4,48.24-.31,72.35,0,6.11,4.22,9.27,10.85,9.27q61.11,0,122.22,0l206.22,0c8,0,11.58-3.44,11.59-11.27,0-23,.29-46-.15-69a66.72,66.72,0,0,0-3.7-19.73c-5.88-17.37-18-30-32.73-40.33-5.87-4.08-12.16-7.55-18.26-11.29l-.81.79a98.22,98.22,0,0,1-4.43,47.39l-20.19-6.33c.84-6.36,2-12.39,2.33-18.48a125.27,125.27,0,0,0-.62-18.67,32.1,32.1,0,0,0-6.58-16.91c-18.25,57.33-50.9,105.2-90.2,149.54C919,696.72,886.73,649,868.14,592.68c-.39.3-.79.45-.93.74-.9,1.92-1.88,3.82-2.59,5.81-5.19,14.67-5.1,29.78-2.44,44.77,2.23,12.5,5.76,24.77,8.78,37.12.41,1.67,1,3.1-1.18,4-6.1,2.44-12.16,5-18.59,7.62C842,663.83,833.87,635.2,839.33,603.84ZM1022.6,359.32c-38.17,39.23-81.6,53.27-133.76,29.43-.23.38-.64,1-1,1.63A95.75,95.75,0,0,0,876,448.1c3,28.7,13.83,53.44,35.42,73.06,28.41,25.84,65.57,26.25,93.86.84,18.51-16.62,29.67-37.38,34.17-61.79,4.17-22.61,2.52-44.42-7.62-65.47-3.33-6.9-5.16-14.57-7.18-22C1023.44,368.34,1023.23,363.69,1022.6,359.32ZM934.19,672.57c.69-1.79,1-2.34,1.12-2.92,2.52-10,5.07-20.07,7.45-30.15a5.65,5.65,0,0,0-.79-3.76c-2.36-4-4.88-7.84-7.45-11.67-1.18-1.74-1.15-3,.47-4.5,3.69-3.36,7.25-6.86,10.81-10.36,2.89-2.84,5.7-5.75,9.16-9.26-23-5.49-42.38-16.19-60.06-30.12-1.26.87-2.19,1.47-3.09,2.12-6.5,4.79-6.07,2.67-3.5,10.31a332.56,332.56,0,0,0,27.42,60.18C921.45,652.35,927.67,662,934.19,672.57Zm48.28-.67c1.23-1.67,2.07-2.69,2.77-3.8,3.68-5.79,7.43-11.54,11-17.42a362,362,0,0,0,33.1-71.11c1.92-5.71-3-5.83-5.22-8.24s-3.77-.39-5.39.85C1005,582.63,990.52,591.55,974,596.7c-3.79,1.17-7.61,2.24-12,3.52l22.09,21.24c-3.08,4.89-6,9.24-8.6,13.77a7.62,7.62,0,0,0-.79,4.85c1.18,6,2.64,11.92,4.1,17.85C979.88,662.36,981.11,666.76,982.47,671.9Z" transform="translate(-576 -156)"/><path class="cls-2" d="M839.33,603.84c-5.46,31.36,2.7,60,11.86,88.88,6.43-2.64,12.49-5.18,18.59-7.62,2.21-.88,1.59-2.31,1.18-4-3-12.35-6.55-24.62-8.78-37.12-2.66-15-2.75-30.1,2.44-44.77.71-2,1.69-3.89,2.59-5.81.14-.29.54-.44.93-.74,18.59,56.28,50.9,104,90.52,148.15,39.3-44.34,71.95-92.21,90.2-149.54a32.1,32.1,0,0,1,6.58,16.91,125.27,125.27,0,0,1,.62,18.67c-.28,6.09-1.49,12.12-2.33,18.48l20.19,6.33a98.22,98.22,0,0,0,4.43-47.39l.81-.79c6.1,3.74,12.39,7.21,18.26,11.29,14.75,10.28,26.85,23,32.73,40.33a66.72,66.72,0,0,1,3.7,19.73c.44,23,.2,46,.15,69,0,7.83-3.61,11.27-11.59,11.27l-206.22,0q-61.11,0-122.22,0c-6.63,0-10.82-3.16-10.85-9.27-.09-24.11-.16-48.24.31-72.35.31-16,7.29-29.65,17.46-41.68C811.22,619.61,824.16,610.87,839.33,603.84Zm217.33,134.74c21.74,0,39.38-17,39.57-38.22.19-22.11-17.6-40.27-39.37-40.2-21.42.07-38.87,17.7-39,39.39A39.09,39.09,0,0,0,1056.66,738.58ZM871.88,699c-12-.11-21.28,8.89-21.38,20.85A21,21,0,1,0,871.88,699Z" transform="translate(-576 -156)"/><path class="cls-2" d="M1022.6,359.32c.63,4.37.84,9,2,13.4,2,7.45,3.85,15.12,7.18,22,10.14,21.05,11.79,42.86,7.62,65.47-4.5,24.41-15.66,45.17-34.17,61.79-28.29,25.41-65.45,25-93.86-.84C889.81,501.54,879,476.8,876,448.1a95.75,95.75,0,0,1,11.87-57.72c.35-.64.76-1.25,1-1.63C941,412.59,984.43,398.55,1022.6,359.32Z" transform="translate(-576 -156)"/><path class="cls-2" d="M934.19,672.57c-6.52-10.6-12.74-20.22-18.46-30.13a332.56,332.56,0,0,1-27.42-60.18c-2.57-7.64-3-5.52,3.5-10.31.9-.65,1.83-1.25,3.09-2.12C912.58,583.76,932,594.46,955,600c-3.46,3.51-6.27,6.42-9.16,9.26-3.56,3.5-7.12,7-10.81,10.36-1.62,1.49-1.65,2.76-.47,4.5,2.57,3.83,5.09,7.71,7.45,11.67a5.65,5.65,0,0,1,.79,3.76c-2.38,10.08-4.93,20.11-7.45,30.15C935.16,670.23,934.88,670.78,934.19,672.57Z" transform="translate(-576 -156)"/><path class="cls-2" d="M982.47,671.9c-1.36-5.14-2.59-9.54-3.68-14-1.46-5.93-2.92-11.87-4.1-17.85a7.62,7.62,0,0,1,.79-4.85c2.59-4.53,5.52-8.88,8.6-13.77L962,600.22c4.36-1.28,8.18-2.35,12-3.52,16.56-5.15,31.06-14.07,44.73-24.52,1.62-1.24,3.22-3.22,5.39-.85s7.14,2.53,5.22,8.24a362,362,0,0,1-33.1,71.11c-3.53,5.88-7.28,11.63-11,17.42C984.54,669.21,983.7,670.23,982.47,671.9Z" transform="translate(-576 -156)"/><path d="M1056.66,738.58a39.09,39.09,0,0,1-38.79-39c.12-21.69,17.57-39.32,39-39.39,21.77-.07,39.56,18.09,39.37,40.2C1096,721.58,1078.4,738.63,1056.66,738.58Zm7.87-18V707.71h13.86V692.2c-3.9,0-7.6-.06-11.31,0-1.94,0-2.68-.76-2.64-2.66.07-3.6,0-7.2,0-11.1h-14.87v13.86h-14V708h14.34v12.55Z" transform="translate(-576 -156)"/><path d="M871.88,699a20.86,20.86,0,1,1-21.38,20.85C850.6,707.92,859.83,698.92,871.88,699Z" transform="translate(-576 -156)"/><path class="cls-2" d="M1064.53,720.56h-14.61V708h-14.34V692.33h14V678.47h14.87c0,3.9,0,7.5,0,11.1,0,1.9.7,2.7,2.64,2.66,3.71-.09,7.41,0,11.31,0v15.51h-13.86Z" transform="translate(-576 -156)"/></g></svg>