<svg id="Livello_1" data-name="Livello 1" xmlns="http://www.w3.org/2000/svg" viewBox="0 0 804 804"><defs><style>.cls-1{opacity:0.7;}.cls-2{fill:none;}</style></defs><g id="_-Product-Icons" data-name="ðŸ”-Product-Icons" class="cls-1"><g id="ic_fluent_person_delete_24_regular" data-name="ic fluent person delete 24 regular"><path id="_-Color" data-name="ðŸŽ¨-Color" d="M526.43,387.29A139.13,139.13,0,1,1,387.31,526.42,139.13,139.13,0,0,1,526.43,387.29ZM387.87,437.87A163.78,163.78,0,0,0,370,475.82H191.36a19,19,0,0,0-19,19v23A56.92,56.92,0,0,0,192.2,560.9C224,588.26,272,602.33,336.72,602.33a374.77,374.77,0,0,0,42.7-2.3,162.52,162.52,0,0,0,23.5,34.91,383.83,383.83,0,0,1-66.2,5.33c-73.09,0-129.72-16.61-169.25-50.6a94.84,94.84,0,0,1-33-71.92v-23a56.91,56.91,0,0,1,56.91-56.91Zm77.68,24.46-1.76,1.46-1.46,1.75a12.65,12.65,0,0,0,0,14.38l1.46,1.75,44.76,44.76-44.69,44.69-1.46,1.75a12.66,12.66,0,0,0,0,14.39l1.46,1.75,1.75,1.46a12.65,12.65,0,0,0,14.38,0l1.76-1.46,44.69-44.69,44.75,44.75,1.75,1.46a12.65,12.65,0,0,0,14.38,0l1.75-1.46,1.46-1.76a12.65,12.65,0,0,0,0-14.38l-1.46-1.75-44.75-44.75,44.82-44.75,1.46-1.76a12.65,12.65,0,0,0,0-14.38l-1.46-1.75-1.75-1.46a12.65,12.65,0,0,0-14.38,0l-1.75,1.46-44.82,44.76-44.76-44.76-1.75-1.46a12.65,12.65,0,0,0-12.46-1.1l-1.92,1.1ZM336.72,134.46A126.48,126.48,0,1,1,210.24,260.94,126.48,126.48,0,0,1,336.72,134.46Zm0,37.95a88.53,88.53,0,1,0,88.53,88.53A88.52,88.52,0,0,0,336.72,172.41Z" transform="translate(4 4)"/></g></g><rect class="cls-2" width="804" height="804"/></svg>