<svg id="Livello_1" data-name="Livello 1" xmlns="http://www.w3.org/2000/svg" viewBox="0 0 514 514"><defs><style>.cls-1{opacity:0.7;}.cls-2{fill:none;}</style></defs><path class="cls-1" d="M134.51,132.93c0-11.56-8.54-20.9-19.11-20.9s-19.1,9.34-19.1,20.9V352.35c0,28.86,21.37,52.24,47.76,52.24H382.89c10.57,0,19.11-9.34,19.11-20.9s-8.54-20.89-19.11-20.89H144.06c-5.25,0-9.55-4.71-9.55-10.45Zm242.77,56.55a22.35,22.35,0,0,0,0-29.58,18,18,0,0,0-27,0l-62.87,68.83-34.27-37.48a18,18,0,0,0-27.05,0l-66.87,73.13a22.36,22.36,0,0,0,0,29.59,18,18,0,0,0,27.05,0l53.38-58.32,34.27,37.49a18,18,0,0,0,27.05,0l76.42-83.59Z" transform="translate(2 2)"/><rect class="cls-2" width="514" height="514"/></svg>