<svg id="Livello_1" data-name="Livello 1" xmlns="http://www.w3.org/2000/svg" viewBox="0 0 768 768"><defs><style>.cls-1{opacity:0.7;}.cls-2{fill:none;}</style></defs><g class="cls-1"><path class="cls-2" d="M576,156h768V924H576Zm484.85,417.53c.58,1.56,1.12,2.81,1.51,4.1,5.18,17.32,10.84,34.51,15.34,52,3.56,13.8,8.64,26.48,18.57,37,2.75,2.89,5,6.21,7.64,9.23,8.95,10.35,15.77,21.77,18.83,35.3,1.78,7.87,4.23,15.58,6.18,23.41,4.31,17.27,8.51,34.58,12.71,51.88,1.44,6,1.4,6,7.53,6.45.19,0,.36.28,1,.8-8.41,8.89-11.4,18.13,1.72,25.11,6.49,3.46,15.33-.58,17.74-7.27a16.57,16.57,0,0,0,.26-9c-1.58-6.54-7-8.82-13.13-9.59.19-.83.18-1.42.38-1.51,5.26-2.34,4.23-6.5,3.14-10.69-2.25-8.63-4.63-17.23-6.72-25.9q-3.22-13.41-6-26.95c-2.4-11.7-5-23.39-6.75-35.2-1.81-12.45,1.8-24.52,4-36.66,1.39-7.56,3.87-15.08,2.08-22.94q-5.52-24.24-11.09-48.46-2.65-11.58-5.33-23.23a25.15,25.15,0,0,1,2.57-.87c11-2.26,15-13.29,14.28-20.93-1.06-10.88-8.44-18-21.17-19.3-3.74-.39-4.36-2.08-5-4.92-2.3-10.59-4.63-21.17-7.1-31.72q-10-42.57-20-85.11c-1-4.23-.48-5.31,3.82-6.26,6.32-1.4,12.73-2.39,19.07-3.71,4.75-1,7.26-4.42,6.8-9.21a29.17,29.17,0,0,0-1.37-6.54c-2.06-6-6.17-8.31-12.49-7.17-1.59.28-3.18.52-4.76.78-.15-.46-.3-.92-.46-1.38,3.31-1.71,6.49-4.42,10-4.87s5.18-1.79,5.75-4.87,1.34-6.18,1.2-9.24c-1-21.31-21.84-36.88-42.6-32-11.78,2.79-21.36,9.7-30.44,17.09a462.32,462.32,0,0,0-69.2,69.32,665.72,665.72,0,0,0-59.11,87.37c-5.6,9.84-9.53,20-8.88,31.61a12.6,12.6,0,0,1-1.12,5.06q-13.71,34.74-27.52,69.45c-2.19,5.53-4.4,11-6.67,16.74a24.58,24.58,0,0,0,2.87,1.18c7.39,1.77,14.8,3.5,22.18,5.27a21.73,21.73,0,0,1,4.62,1.42c2.37,1.21,3.8,3.6,2.53,5.85-.69,1.22-3.6,1.94-5.33,1.67-5-.77-9.93-2.22-14.92-3.28s-9.72-1.91-14.58-2.85l-.39,1c13.34,11.89,25.29,25.34,40.62,36.25,14.21-33.83,28.17-67.07,42.27-100.62.64.74,1,1.08,1.26,1.47,19.26,28,38.4,56,57.85,83.84,6,8.53,10.2,16.6,7.61,27.9-3.6,15.74-5.21,31.94-7.89,47.9q-6.9,41.16-14.11,82.28c-1.19,6.84-1.43,13.41,2.75,19.43.15.21,0,.65,0,.71-14.7-.56-29.29-1.58-43.87-1.59-47.61,0-95.22.28-142.83.51-22.74.11-45.49.14-68.23.56-17.15.32-34.29,1.19-51.43,1.87a21.6,21.6,0,0,0-6.66.87c-1.56.6-2.69,2.35-4,3.58,1.32,1,2.58,2.83,4,2.91,4.72.28,9.47-.17,14.21-.14,27,.2,53.94.55,80.92.67,28.49.11,57,0,85.47,0,5.58,0,11.16.49,16.74.75-13.36,1.09-26.67,2.06-40,2.33-16.36.33-32.73,0-49.1.09-11,.08-22,.38-32.94.8-1.16,0-2.26,1.6-3.38,2.45,1.11.92,2.15,2.51,3.34,2.63a127.65,127.65,0,0,0,13.82.58c8.78-.09,17.56-.47,26.33-.58,6.3-.08,12.6.33,18.88.08,4.68-.18,9.36-1.67,14-1.48s9.2,1.45,14,.93c3.87-.42,7.9.87,11.86.87,18.74,0,37.47-.28,56.21-.39,15.37-.09,30.74,0,46.11-.16,18-.19,36-.54,54-.85,15.11-.25,30.24-.36,45.34-.86,30.83-1,61.65-2.53,92.49-3.36,23.22-.63,46.47-.48,69.7-.85,1.29,0,2.54-1.63,3.81-2.5-1.16-1.17-2.29-2.38-3.53-3.46-.29-.26-1-.08-1.46-.11q-22-1.27-44.08-2.56c-5.32-.32-10.28-.48-15.39,2.53-6.49,3.81-14,4.14-20.65,0-4.29-2.69-8.43-3.89-13.31-2.92a15,15,0,0,1-3,.09l-80.58-.95c-2.88,0-5.77,0-9.55,0,5.87-5.52,6.53-12,7.57-18.44,3.25-19.95,6.68-39.86,10.09-59.78,4.66-27.17,9.14-54.37,14.19-81.47,1.86-10,.94-18.9-4.42-27.61-8.82-14.34-17.1-29-25.93-43.35q-19.82-32.2-40.14-64.09c-2.35-3.72-2.61-6.72-.21-10.58,4-6.46,7.42-13.28,11.08-19.95,2.9-5.29,3.59-10.41-.25-15.74a100.49,100.49,0,0,1-6.36-11c-7.07-13-14.21-26.05-21.08-39.2-4.23-8.08-3.21-15.95,2.39-23.09a43.11,43.11,0,0,1,6.34-6.33c16.77-14,33.53-28,50.45-41.78,10.82-8.84,21.91-17.35,32.87-26,2.52-2,5.24-3.74,8.55-2.54,1.46.53,3.35,1.83,3.63,3.09s-1,3.18-2.09,4.22c-1.72,1.58-4,2.48-5.87,4q-41.71,33.87-83.36,67.83c-5.74,4.68-6.86,9.35-4.23,16.29a47.18,47.18,0,0,0,2.17,4.75q23,44.6,45.95,89.19c4,7.84,7.57,15.92,11.46,24.17-1.76.47-2.94.82-4.14,1.11-5.56,1.35-8.77,4.92-7.91,10.48a50.88,50.88,0,0,0,4.53,14c1.84,3.83,5.76,4.91,10,4.16C1057.31,574.49,1058.85,574,1060.85,573.53Zm107.51-318.8c-27.62-.28-48.44,19.92-48.76,47.32s20.94,48.87,48.55,49.17c26.28.29,48-20.9,48.27-47C1216.66,276.38,1195.91,255,1168.36,254.73Zm-445.26,501c.61,2.29,1.63,6.9,3.08,11.38,3.27,10.07,6.33,20.24,10.29,30A14.28,14.28,0,0,0,754,805.78c8.14-2.31,12.11-8.21,11.49-16.85-.34-4.85-.47-9.72-.75-14.58a6.31,6.31,0,0,1,2.84-6.06c5.46-3.83,10.78-7.86,16.19-11.76,7.08-5.11,14.09-10.32,21.33-15.19,2.74-1.84,3.13-3.3,1.11-5.86q-12.23-15.6-24.26-31.33c-1.51-2-2.9-1.83-4.68-.52-15.53,11.51-31.13,22.91-46.57,34.54C725.75,741.86,723,747,723.1,755.77Zm84.41,88.28,0,1.47c1.43.13,2.86.33,4.3.37,10.49.29,21,.5,31.47.83,11.46.37,22.92,1.09,34.38,1.19,13.21.11,26.43-.54,39.64-.38,19.95.24,39.89,1.25,59.83,1.29,18.47,0,36.94-.91,55.4-1.17,15.57-.23,31.14,0,46.71-.15,10.09-.07,20.18-.22,30.26-.55,1.49-.05,4.5.83,4-2.21-.15-1-2.77-1.65-4.3-2.37a3.68,3.68,0,0,0-1.49-.07c-17.49-.2-35-.5-52.46-.55-13.75,0-27.49.36-41.23.33-21.23,0-42.45-.38-63.67-.37-18.71,0-37.41.36-56.12.51-15.41.13-30.82.17-46.22.29-4,0-8,.24-11.94.4ZM812.4,629.9c6.85.2,10.54-2.16,12.67-7.23,1.26-3,2.56-5.95,3.76-9a7.46,7.46,0,0,1,5.95-4.9c6-1.25,11.83-2.88,17.74-4.31,3-.72,5.23-2.16,4.52-5.63s-3.69-2.83-6.06-2.39c-7.46,1.36-14.89,3-22.34,4.38a7.48,7.48,0,0,0-5.87,4.48c-2,4.17-4.26,8.19-6.12,12.4-1.13,2.58-2.7,3.21-5.29,2.66-3.89-.82-7.87-1.25-11.73-2.18-5.89-1.42-11.34-1.1-16.89,1.83-8.82,4.65-18,8.63-28.07,9.72a32.46,32.46,0,0,0-5.85,1.19c-2.91.88-3.82,3.17-3.15,5.9.63,2.54,2.74,3.1,5,2.63,10.21-2,20.8-2.69,29.9-8.7a37.28,37.28,0,0,1,7.79-3.6,9.78,9.78,0,0,1,4.63-.56C799.93,627.68,806.79,628.94,812.4,629.9ZM705.79,722.24a15.83,15.83,0,0,0,3.1-2.24c4.87-5.34,9.58-10.83,14.46-16.16a6.79,6.79,0,0,1,3.57-2.29c9.62-1.27,19.26-2.51,28.92-3.35,3.38-.29,6-1.2,8-3.89,4.19-5.57,8.26-11.24,12.64-16.66a48.93,48.93,0,0,1,7.38-7.22c3.39-2.73,7.3-4.84,10.53-7.73a6.29,6.29,0,0,0,1.63-5.43c-.88-2.55-3.31-1.37-5.06-.43-4.93,2.66-9.93,5.23-14.65,8.23a25.58,25.58,0,0,0-5.77,5.66c-4.31,5.32-8.39,10.82-12.69,16.16a5.87,5.87,0,0,1-3.26,2.15c-10.58,1.46-21.18,2.79-31.79,4.05-3,.36-5.31,1.31-7,4.15a97.51,97.51,0,0,1-6.72,9.4c-2.41,3.17-5.15,6.12-7.35,9.43C699.83,719.06,701.52,722.17,705.79,722.24ZM873,696.12c4.81-3.14,9-5.93,13.32-8.67,5-3.16,5-3.22,1.58-8.21-7.28-10.55-14.74-21-21.89-31.61-5.62-8.36-4.39-8.7-13.26-1.25-1.69,1.42-1.89,2.85-.87,4.9,2.78,5.57,5.3,11.26,7.94,16.9Zm-6.93,45.25.31,0c-.35,1.82-.61,3.66-1.08,5.45-.88,3.37-1.85,6.72-2.86,10-.85,2.83-.74,5.36,2.52,6.37s4.7-1.29,5.65-3.94c1.56-4.33,3.16-8.65,4.6-13a11.12,11.12,0,0,0,.45-4c-.22-3.36-.82-6.7-.93-10-.4-13-2.21-9.34,8.09-16.36.31-.21.66-.36,1-.57,5.69-4.05,11.44-8,17-12.19,2.4-1.8,2.55-4.26.41-6.46s-4.11-1.7-6.15.35a28.11,28.11,0,0,1-4.39,3.4c-7.86,5.28-15.82,10.42-23.58,15.86a6.19,6.19,0,0,0-2.23,4.53C865,727.67,865.62,734.52,866.06,741.37ZM793.67,797.8c1.17,1.17,2.06,2.79,3.24,3a6.17,6.17,0,0,0,4.54-1.07,7.48,7.48,0,0,0,2.22-4.22c1.52-8.11,7-12.85,13.66-16.76a16.13,16.13,0,0,0,4.24-3c1.37-1.6,2.85-3.51,3.21-5.49a154.39,154.39,0,0,0,2-16.34,9.93,9.93,0,0,1,3.5-7.07,28.25,28.25,0,0,0,5.77-6.7c.64-1.12,0-3.94-1.09-4.77s-3.51-.38-4.84.4c-2.22,1.3-3.86,3.58-6,5-5,3.18-7.56,7.28-6.55,13.37.24,1.43-.51,3-.33,4.46.94,8.06-3.13,13.15-10,16.06C796.92,779,798.15,789.54,793.67,797.8Zm14.9-118,35.54,18.41c-2.1-13.76-4.08-26.67-6.23-40.73Zm140.49-265,1.5.95a47,47,0,0,0,3.56-3.34c13.93-16,27.69-32.09,41.78-47.91,5.87-6.59,12.39-12.61,18.68-18.81,1.91-1.89,3-4,1.22-6.24s-3.27-.49-4.75.69c-24.43,19.63-42.65,44.59-60.12,70.18A23.11,23.11,0,0,0,949.06,414.79ZM790.8,693l47.42,21.76c3.32,1.53,6,.92,7.21-1.74,1.13-2.44-.54-5.76-3.53-7.17-3.15-1.48-6.26-3-9.38-4.59-9.27-4.59-18.51-9.25-27.83-13.72-1.67-.79-4.17-1.65-5.5-1C796.29,688.09,793.89,690.56,790.8,693ZM966.88,374.48c-.61-.87-1.13-2.14-1.54-2.11a5.28,5.28,0,0,0-3.17,1.23c-4.15,4.31-7.81,9.14-12.26,13.09-15.38,13.67-25.16,31.46-36.27,48.28-1.3,2-2.67,4.49.17,6.21,2.64,1.59,4-.59,5.25-2.59,13-21.53,29.39-40.48,45-60C965.05,377.31,965.88,375.94,966.88,374.48ZM927.29,697.3c-.18,3.45-.68,5.89-.28,8.17.25,1.36,1.76,3.21,3,3.47s3-1,4.12-2c.77-.75.92-2.29,1-3.51.33-3.48,1.05-7,.62-10.44a30.26,30.26,0,0,1,5.07-21.07c1.12-1.73,1.21-4.59.81-6.75a84.91,84.91,0,0,0-3.73-13.66,5.93,5.93,0,0,0-4.13-3.18c-2.53-.25-3.62,1.89-3.43,4.31.17,2.23.6,4.44.94,6.66.82,5.38,2.37,10.78-2,15.58-3.29,3.63-3.46,8.09-2.89,12.7C926.88,691.15,927.08,694.76,927.29,697.3ZM992.75,660c-1.15-1-2.16-2.42-3.53-2.93-2.12-.78-3.91.14-4.62,2.48-2.43,8-5,15.93-7.14,24-1,3.81-2.08,7.31-4.86,10.27-3,3.19-5.64,6.69-8.38,10.09-1.81,2.25-2,4.76.12,6.72s4.16.62,5.82-1.18c4.32-4.68,8.71-9.3,12.88-14.11a11,11,0,0,0,2.09-4.62c1.29-5.43,2.26-10.94,3.58-16.36C989.82,669.75,991.26,665.24,992.75,660ZM791.17,701.84l-.49.72,25,31.44,18-12.59ZM873.8,644.1l-.29.5,5,7c5.94,8.17,11.91,16.33,17.8,24.54,1.85,2.57,3.86,2.35,5.4.09a74,74,0,0,0,5.68-10,3.74,3.74,0,0,0-.89-3.49,98.68,98.68,0,0,0-9.26-5.61C889.47,652.72,881.63,648.43,873.8,644.1Zm-12.16-80.68c.1-4.63-2-6-5.3-4.39a84.68,84.68,0,0,0-8.13,4.63c-9.62,6.26-19.22,12.55-28.69,19a6.45,6.45,0,0,0-2.5,4.52c0,3.07,2.84,3.89,6.21,1.8q18.25-11.38,36.39-23A7.85,7.85,0,0,0,861.64,563.42Zm42.91,189.9c1,.89,2.16,2.69,3.59,2.95,1.25.23,3.06-1,4.17-2.12.77-.75,1-2.27,1.1-3.48A38.12,38.12,0,0,1,921.16,732a91.44,91.44,0,0,0,5.19-8.2c1.46-2.45,2-5.06-.88-6.82s-4.69.18-6.21,2.33c-2.58,3.66-4.78,7.66-7.71,11C905.91,736.75,906.63,744.93,904.55,753.32ZM849.61,666l-1.23.26,5.79,41.36c3.93-2.41,6.74-4,9.29-5.85.64-.47.84-2.23.52-3.16-1.09-3.16-2.43-6.25-3.8-9.32C856.69,681.52,853.14,673.77,849.61,666ZM1158.34,845.8c0-.46.07-.91.1-1.37-7.8-1.22-15.57-3.12-23.49-1l-.06,1.25Zm-284-212-6.37-5.48-.82,1C868,632.7,871.65,632.68,874.31,633.75Z" transform="translate(-576 -156)"/><path d="M1060.85,573.53c-2,.49-3.54,1-5.12,1.24-4.2.75-8.12-.33-10-4.16a50.88,50.88,0,0,1-4.53-14c-.86-5.56,2.35-9.13,7.91-10.48,1.2-.29,2.38-.64,4.14-1.11-3.89-8.25-7.45-16.33-11.46-24.17q-22.86-44.66-45.95-89.19a47.18,47.18,0,0,1-2.17-4.75c-2.63-6.94-1.51-11.61,4.23-16.29q41.63-34,83.36-67.83c1.83-1.48,4.15-2.38,5.87-4,1.12-1,2.36-3,2.09-4.22s-2.17-2.56-3.63-3.09c-3.31-1.2-6,.56-8.55,2.54-11,8.66-22,17.17-32.87,26-16.92,13.8-33.68,27.8-50.45,41.78a43.11,43.11,0,0,0-6.34,6.33c-5.6,7.14-6.62,15-2.39,23.09,6.87,13.15,14,26.16,21.08,39.2a100.49,100.49,0,0,0,6.36,11c3.84,5.33,3.15,10.45.25,15.74-3.66,6.67-7.07,13.49-11.08,19.95-2.4,3.86-2.14,6.86.21,10.58q20.25,31.93,40.14,64.09c8.83,14.33,17.11,29,25.93,43.35,5.36,8.71,6.28,17.64,4.42,27.61-5,27.1-9.53,54.3-14.19,81.47-3.41,19.92-6.84,39.83-10.09,59.78-1,6.44-1.7,12.92-7.57,18.44,3.78,0,6.67,0,9.55,0l80.58.95a15,15,0,0,0,3-.09c4.88-1,9,.23,13.31,2.92,6.64,4.15,14.16,3.82,20.65,0,5.11-3,10.07-2.85,15.39-2.53q22,1.31,44.08,2.56c.49,0,1.17-.15,1.46.11,1.24,1.08,2.37,2.29,3.53,3.46-1.27.87-2.52,2.48-3.81,2.5-23.23.37-46.48.22-69.7.85-30.84.83-61.66,2.33-92.49,3.36-15.1.5-30.23.61-45.34.86-18,.31-36,.66-54,.85-15.37.16-30.74.07-46.11.16-18.74.11-37.47.35-56.21.39-4,0-8-1.29-11.86-.87-4.85.52-9.39-.74-14-.93s-9.31,1.3-14,1.48c-6.28.25-12.58-.16-18.88-.08-8.77.11-17.55.49-26.33.58a127.65,127.65,0,0,1-13.82-.58c-1.19-.12-2.23-1.71-3.34-2.63,1.12-.85,2.22-2.4,3.38-2.45,11-.42,22-.72,32.94-.8,16.37-.11,32.74.24,49.1-.09,13.32-.27,26.63-1.24,40-2.33-5.58-.26-11.16-.73-16.74-.75-28.49-.07-57,.06-85.47,0-27-.12-54-.47-80.92-.67-4.74,0-9.49.42-14.21.14-1.37-.08-2.63-1.89-4-2.91,1.33-1.23,2.46-3,4-3.58a21.6,21.6,0,0,1,6.66-.87c17.14-.68,34.28-1.55,51.43-1.87,22.74-.42,45.49-.45,68.23-.56,47.61-.23,95.22-.54,142.83-.51,14.58,0,29.17,1,43.87,1.59,0-.06.19-.5,0-.71-4.18-6-3.94-12.59-2.75-19.43q7.18-41.12,14.11-82.28c2.68-16,4.29-32.16,7.89-47.9,2.59-11.3-1.65-19.37-7.61-27.9C995.54,614,976.4,586,957.14,558c-.27-.39-.62-.73-1.26-1.47-14.1,33.55-28.06,66.79-42.27,100.62-15.33-10.91-27.28-24.36-40.62-36.25l.39-1c4.86.94,9.74,1.82,14.58,2.85s9.9,2.51,14.92,3.28c1.73.27,4.64-.45,5.33-1.67,1.27-2.25-.16-4.64-2.53-5.85a21.73,21.73,0,0,0-4.62-1.42c-7.38-1.77-14.79-3.5-22.18-5.27a24.58,24.58,0,0,1-2.87-1.18c2.27-5.69,4.48-11.21,6.67-16.74q13.79-34.71,27.52-69.45a12.6,12.6,0,0,0,1.12-5.06c-.65-11.58,3.28-21.77,8.88-31.61a665.72,665.72,0,0,1,59.11-87.37,462.32,462.32,0,0,1,69.2-69.32c9.08-7.39,18.66-14.3,30.44-17.09,20.76-4.91,41.63,10.66,42.6,32,.14,3.06-.62,6.18-1.2,9.24s-2.16,4.4-5.75,4.87-6.65,3.16-10,4.87c.16.46.31.92.46,1.38,1.58-.26,3.17-.5,4.76-.78,6.32-1.14,10.43,1.14,12.49,7.17a29.17,29.17,0,0,1,1.37,6.54c.46,4.79-2,8.21-6.8,9.21-6.34,1.32-12.75,2.31-19.07,3.71-4.3.95-4.82,2-3.82,6.26q10,42.56,20,85.11c2.47,10.55,4.8,21.13,7.1,31.72.61,2.84,1.23,4.53,5,4.92,12.73,1.34,20.11,8.42,21.17,19.3.75,7.64-3.33,18.67-14.28,20.93a25.15,25.15,0,0,0-2.57.87q2.67,11.67,5.33,23.23,5.55,24.23,11.09,48.46c1.79,7.86-.69,15.38-2.08,22.94-2.22,12.14-5.83,24.21-4,36.66,1.72,11.81,4.35,23.5,6.75,35.2q2.78,13.53,6,26.95c2.09,8.67,4.47,17.27,6.72,25.9,1.09,4.19,2.12,8.35-3.14,10.69-.2.09-.19.68-.38,1.51,6.14.77,11.55,3,13.13,9.59a16.57,16.57,0,0,1-.26,9c-2.41,6.69-11.25,10.73-17.74,7.27-13.12-7-10.13-16.22-1.72-25.11-.63-.52-.8-.79-1-.8-6.13-.46-6.09-.49-7.53-6.45-4.2-17.3-8.4-34.61-12.71-51.88-2-7.83-4.4-15.54-6.18-23.41-3.06-13.53-9.88-25-18.83-35.3-2.61-3-4.89-6.34-7.64-9.23-9.93-10.47-15-23.15-18.57-37-4.5-17.49-10.16-34.68-15.34-52C1062,576.34,1061.43,575.09,1060.85,573.53Zm-15.23-128.94c-1.55-3.86-2.78-7-4-10.07-2.57-6.31-2.43-6.91,2.94-11.15,9.69-7.67,19.41-15.29,29-23,.94-.75,1.4-2.09,2.08-3.15-1.26-.68-2.45-1.77-3.78-2-4.09-.62-7.56,1.19-10.71,3.56-9.47,7.14-18.94,14.27-28.32,21.5-5.17,4-5.39,4.77-2.74,10.68Q1045,464.26,1060,497.45c4.87,10.79,9.78,21.56,14.63,32.36,1.07,2.36,2.16,3.63,5.31,3a24.52,24.52,0,0,1,10,.18c11.41,2.58,18.06,14.11,15.1,26.18-1.94,7.9-6.08,13.7-15.15,14.78-3.85.45-7.54,2.32-11.42,3.58.11.68.15,1.16.27,1.61,4.28,15.87,9.17,31.6,12.66,47.63,2.72,12.49,8.35,23,16.36,32.68,8.27,10,15.94,20.46,20.7,32.73,0,.14.43.15.9.31-1.58-12.62.37-24.91,2.19-37.25,1-6.72,2.48-13.91,1.14-20.35-4.6-22.07-10.36-43.9-15.64-65.84-.56-2.36-1-4.58-4.37-3.43.57-3,1.15-5.5,1.54-8.07,2.89-19.31-12.29-35.34-29.07-34.08-2.63.19-3.78-1.13-4.7-3.27q-8.34-19.24-16.79-38.42c-3.63-8.22-7.43-16.36-11-24.59-.47-1.07-.71-3-.11-3.67,4.29-5,8.83-9.72,13.55-14.83.8,1.41,1.34,2.23,1.76,3.11,6.29,13.16,12.49,26.37,18.88,39.48,5,10.32,10.25,20.53,15.48,30.75.42.84,1.52,1.34,2.31,2a11.49,11.49,0,0,0,.57-2.94,25.62,25.62,0,0,0-.82-4.4q-10.1-42.18-20.22-84.35c-.86-3.57-1.76-7.13-2.89-11.72ZM930.11,554c2.14-1.68,3.81-3,1.68-5.36-4.14-4.63-8.27-9.28-12.48-13.84-.45-.49-1.46-.47-2.2-.69,0,.88-.43,2,0,2.61C921.32,542.53,925.69,548.21,930.11,554Zm-20.92,41.31c-4.86-3.76-9.5-7.47-14.31-11-.78-.56-2.31-.08-3.49-.08.41,1.09.51,2.56,1.3,3.22,3.9,3.24,8,6.25,12,9.4C906.65,598.52,908,598.11,909.19,595.35Zm132.5,77.76-.06-2.07c-3.89-.46-7.76-1.12-11.66-1.32-3.72-.19-4.6,1.26-3.57,5.45Zm.1,18.54c-5.39-1.37-10.32-2.72-15.31-3.79-.7-.15-1.7,1.09-2.86,1.89C1033.45,694.31,1038.86,695.09,1041.79,691.65Zm-5.34-58.35c-7-.72-13.56,4.72-12.28,10Zm-25.88-29.5-.56-.92c-1.22.2-3-.06-3.58.66a70.62,70.62,0,0,0-5.62,8.33c-.25.42.29,1.57.78,2.07.25.25,1.5,0,1.81-.4C1005.86,610.35,1008.2,607.06,1010.57,603.8Zm-1.28,21.84c3.28-3.66,6.16-6.82,8.92-10.07a2,2,0,0,0,0-1.91c-.35-.41-1.64-.66-1.87-.41q-4.11,4.69-7.95,9.61C1008.13,623.16,1008.76,624.12,1009.29,625.64ZM904.45,550.58c3.61,3.92,6.27,6.86,9,9.71.41.43,1.26.44,1.9.64.16-.75.72-1.78.42-2.21a52.3,52.3,0,0,0-5.95-7.58C909,550.34,907,550.79,904.45,550.58Zm100.27-137.06c-6.32,3-8.23,6.62-3.92,11.72C1002.06,421.47,1003.27,417.87,1004.72,413.52Zm8.33,347.41c.87,1,1.57,2.53,2.21,2.5,3.6-.17,7.18-.71,10.77-1.12l-.09-1.38ZM988.91,576.68a13.18,13.18,0,0,0-2.63-.69c-1.29,2.34-2.45,4.74-3.55,7.16-.07.16.64,1,.95.93a2.12,2.12,0,0,0,1.55-.75C986.44,581.33,987.52,579.24,988.91,576.68Zm28,170.76-.23,1.82,9.6,1.07.19-1.34Z" transform="translate(-576 -156)"/><path d="M1168.36,254.73c27.55.28,48.3,21.65,48.06,49.5-.23,26.09-22,47.28-48.27,47-27.61-.3-48.88-21.84-48.55-49.17S1140.74,254.45,1168.36,254.73Zm-33.64,21.77,16.7-11.91C1147.6,261.54,1136,269.42,1134.72,276.5Z" transform="translate(-576 -156)"/><path d="M723.1,755.77c-.09-8.77,2.65-13.91,7.55-17.6,15.44-11.63,31-23,46.57-34.54,1.78-1.31,3.17-1.44,4.68.52q12,15.74,24.26,31.33c2,2.56,1.63,4-1.11,5.86-7.24,4.87-14.25,10.08-21.33,15.19-5.41,3.9-10.73,7.93-16.19,11.76a6.31,6.31,0,0,0-2.84,6.06c.28,4.86.41,9.73.75,14.58.62,8.64-3.35,14.54-11.49,16.85a14.28,14.28,0,0,1-17.48-8.59c-4-9.8-7-20-10.29-30C724.73,762.67,723.71,758.06,723.1,755.77Zm54.13-26.27c-1.86-5.65-4-7.73-7.53-7.49C771.74,724.81,773,727.9,777.23,729.5Z" transform="translate(-576 -156)"/><path d="M807.51,844.05l28.62-1.14c4-.16,8-.36,11.94-.4,15.4-.12,30.81-.16,46.22-.29,18.71-.15,37.41-.5,56.12-.51,21.22,0,42.44.34,63.67.37,13.74,0,27.48-.37,41.23-.33,17.48,0,35,.35,52.46.55a3.68,3.68,0,0,1,1.49.07c1.53.72,4.15,1.37,4.3,2.37.48,3-2.53,2.16-4,2.21-10.08.33-20.17.48-30.26.55-15.57.1-31.14-.08-46.71.15-18.46.26-36.93,1.2-55.4,1.17-19.94,0-39.88-1.05-59.83-1.29-13.21-.16-26.43.49-39.64.38-11.46-.1-22.92-.82-34.38-1.19-10.49-.33-21-.54-31.47-.83-1.44,0-2.87-.24-4.3-.37Z" transform="translate(-576 -156)"/><path d="M812.4,629.9c-5.61-1-12.47-2.22-19.37-3.27a9.78,9.78,0,0,0-4.63.56,37.28,37.28,0,0,0-7.79,3.6c-9.1,6-19.69,6.65-29.9,8.7-2.3.47-4.41-.09-5-2.63-.67-2.73.24-5,3.15-5.9a32.46,32.46,0,0,1,5.85-1.19c10.11-1.09,19.25-5.07,28.07-9.72,5.55-2.93,11-3.25,16.89-1.83,3.86.93,7.84,1.36,11.73,2.18,2.59.55,4.16-.08,5.29-2.66,1.86-4.21,4.16-8.23,6.12-12.4a7.48,7.48,0,0,1,5.87-4.48c7.45-1.42,14.88-3,22.34-4.38,2.37-.44,5.32-1.2,6.06,2.39s-1.51,4.91-4.52,5.63c-5.91,1.43-11.78,3.06-17.74,4.31a7.46,7.46,0,0,0-5.95,4.9c-1.2,3-2.5,6-3.76,9C822.94,627.74,819.25,630.1,812.4,629.9Z" transform="translate(-576 -156)"/><path d="M705.79,722.24c-4.27-.07-6-3.18-4-6.17,2.2-3.31,4.94-6.26,7.35-9.43a97.51,97.51,0,0,0,6.72-9.4c1.66-2.84,4-3.79,7-4.15,10.61-1.26,21.21-2.59,31.79-4.05a5.87,5.87,0,0,0,3.26-2.15c4.3-5.34,8.38-10.84,12.69-16.16a25.58,25.58,0,0,1,5.77-5.66c4.72-3,9.72-5.57,14.65-8.23,1.75-.94,4.18-2.12,5.06.43a6.29,6.29,0,0,1-1.63,5.43c-3.23,2.89-7.14,5-10.53,7.73a48.93,48.93,0,0,0-7.38,7.22c-4.38,5.42-8.45,11.09-12.64,16.66-2,2.69-4.67,3.6-8,3.89-9.66.84-19.3,2.08-28.92,3.35a6.79,6.79,0,0,0-3.57,2.29c-4.88,5.33-9.59,10.82-14.46,16.16A15.83,15.83,0,0,1,705.79,722.24Z" transform="translate(-576 -156)"/><path d="M873,696.12l-13.18-27.94c-2.64-5.64-5.16-11.33-7.94-16.9-1-2-.82-3.48.87-4.9,8.87-7.45,7.64-7.11,13.26,1.25,7.15,10.63,14.61,21.06,21.89,31.61,3.44,5,3.37,5-1.58,8.21C882,690.19,877.8,693,873,696.12Z" transform="translate(-576 -156)"/><path d="M866.06,741.37c-.44-6.85-1-13.7-1.21-20.55a6.19,6.19,0,0,1,2.23-4.53c7.76-5.44,15.72-10.58,23.58-15.86a28.11,28.11,0,0,0,4.39-3.4c2-2,4.07-2.48,6.15-.35s2,4.66-.41,6.46c-5.58,4.18-11.33,8.14-17,12.19-.3.21-.65.36-1,.57-10.3,7-8.49,3.33-8.09,16.36.11,3.35.71,6.69.93,10a11.12,11.12,0,0,1-.45,4c-1.44,4.37-3,8.69-4.6,13-1,2.65-2.29,5-5.65,3.94s-3.37-3.54-2.52-6.37c1-3.33,2-6.68,2.86-10,.47-1.79.73-3.63,1.08-5.45Z" transform="translate(-576 -156)"/><path d="M793.67,797.8c4.48-8.26,3.25-18.79,13.53-23.15,6.86-2.91,10.93-8,10-16.06-.18-1.46.57-3,.33-4.46-1-6.09,1.58-10.19,6.55-13.37,2.18-1.4,3.82-3.68,6-5,1.33-.78,3.88-1.16,4.84-.4s1.73,3.65,1.09,4.77a28.25,28.25,0,0,1-5.77,6.7,9.93,9.93,0,0,0-3.5,7.07,154.39,154.39,0,0,1-2,16.34c-.36,2-1.84,3.89-3.21,5.49a16.13,16.13,0,0,1-4.24,3c-6.62,3.91-12.14,8.65-13.66,16.76a7.48,7.48,0,0,1-2.22,4.22,6.17,6.17,0,0,1-4.54,1.07C795.73,800.59,794.84,799,793.67,797.8Z" transform="translate(-576 -156)"/><path d="M808.57,679.79l29.31-22.32c2.15,14.06,4.13,27,6.23,40.73Z" transform="translate(-576 -156)"/><path d="M949.06,414.79a23.11,23.11,0,0,1,1.87-4.48c17.47-25.59,35.69-50.55,60.12-70.18,1.48-1.18,3.09-2.83,4.75-.69s.69,4.35-1.22,6.24c-6.29,6.2-12.81,12.22-18.68,18.81-14.09,15.82-27.85,31.94-41.78,47.91a47,47,0,0,1-3.56,3.34Z" transform="translate(-576 -156)"/><path d="M790.8,693c3.09-2.46,5.49-4.93,8.39-6.42,1.33-.69,3.83.17,5.5,1,9.32,4.47,18.56,9.13,27.83,13.72,3.12,1.55,6.23,3.11,9.38,4.59,3,1.41,4.66,4.73,3.53,7.17-1.24,2.66-3.89,3.27-7.21,1.74Z" transform="translate(-576 -156)"/><path d="M966.88,374.48c-1,1.46-1.83,2.83-2.82,4.07-15.61,19.56-32,38.51-45,60-1.21,2-2.61,4.18-5.25,2.59-2.84-1.72-1.47-4.23-.17-6.21,11.11-16.82,20.89-34.61,36.27-48.28,4.45-3.95,8.11-8.78,12.26-13.09a5.28,5.28,0,0,1,3.17-1.23C965.75,372.34,966.27,373.61,966.88,374.48Z" transform="translate(-576 -156)"/><path d="M927.29,697.3c-.21-2.54-.41-6.15-.84-9.74-.57-4.61-.4-9.07,2.89-12.7,4.34-4.8,2.79-10.2,2-15.58-.34-2.22-.77-4.43-.94-6.66-.19-2.42.9-4.56,3.43-4.31a5.93,5.93,0,0,1,4.13,3.18,84.91,84.91,0,0,1,3.73,13.66c.4,2.16.31,5-.81,6.75A30.26,30.26,0,0,0,935.78,693c.43,3.4-.29,7-.62,10.44-.12,1.22-.27,2.76-1,3.51-1.08,1.06-2.91,2.28-4.12,2s-2.74-2.11-3-3.47C926.61,703.19,927.11,700.75,927.29,697.3Z" transform="translate(-576 -156)"/><path d="M992.75,660c-1.49,5.27-2.93,9.78-4,14.37-1.32,5.42-2.29,10.93-3.58,16.36a11,11,0,0,1-2.09,4.62c-4.17,4.81-8.56,9.43-12.88,14.11-1.66,1.8-3.67,3.15-5.82,1.18s-1.93-4.47-.12-6.72c2.74-3.4,5.39-6.9,8.38-10.09,2.78-3,3.86-6.46,4.86-10.27,2.11-8.08,4.71-16,7.14-24,.71-2.34,2.5-3.26,4.62-2.48C990.59,657.55,991.6,659,992.75,660Z" transform="translate(-576 -156)"/><path d="M791.17,701.84l42.51,19.57-18,12.59-25-31.44Z" transform="translate(-576 -156)"/><path d="M873.8,644.1c7.83,4.33,15.67,8.62,23.48,13a98.68,98.68,0,0,1,9.26,5.61,3.74,3.74,0,0,1,.89,3.49,74,74,0,0,1-5.68,10c-1.54,2.26-3.55,2.48-5.4-.09-5.89-8.21-11.86-16.37-17.8-24.54l-5-7Z" transform="translate(-576 -156)"/><path d="M861.64,563.42a7.85,7.85,0,0,1-2,2.62q-18.12,11.6-36.39,23c-3.37,2.09-6.21,1.27-6.21-1.8a6.45,6.45,0,0,1,2.5-4.52c9.47-6.48,19.07-12.77,28.69-19a84.68,84.68,0,0,1,8.13-4.63C859.62,557.38,861.74,558.79,861.64,563.42Z" transform="translate(-576 -156)"/><path d="M904.55,753.32c2.08-8.39,1.36-16.57,7-23,2.93-3.35,5.13-7.35,7.71-11,1.52-2.15,3.39-4,6.21-2.33s2.34,4.37.88,6.82a91.44,91.44,0,0,1-5.19,8.2,38.12,38.12,0,0,0-7.75,18.69c-.14,1.21-.33,2.73-1.1,3.48-1.11,1.08-2.92,2.35-4.17,2.12C906.71,756,905.55,754.21,904.55,753.32Z" transform="translate(-576 -156)"/><path d="M849.61,666c3.53,7.76,7.08,15.51,10.57,23.29,1.37,3.07,2.71,6.16,3.8,9.32.32.93.12,2.69-.52,3.16-2.55,1.9-5.36,3.44-9.29,5.85l-5.79-41.36Z" transform="translate(-576 -156)"/><path d="M1158.34,845.8l-23.45-1.17.06-1.25c7.92-2.07,15.69-.17,23.49,1C1158.41,844.89,1158.37,845.34,1158.34,845.8Z" transform="translate(-576 -156)"/><path d="M874.31,633.75c-2.66-1.07-6.31-1-7.19-4.47l.82-1Z" transform="translate(-576 -156)"/><path class="cls-2" d="M1045.62,444.59l35.58-34c1.13,4.59,2,8.15,2.89,11.72q10.13,42.17,20.22,84.35a25.62,25.62,0,0,1,.82,4.4,11.49,11.49,0,0,1-.57,2.94c-.79-.66-1.89-1.16-2.31-2-5.23-10.22-10.45-20.43-15.48-30.75-6.39-13.11-12.59-26.32-18.88-39.48-.42-.88-1-1.7-1.76-3.11-4.72,5.11-9.26,9.87-13.55,14.83-.6.7-.36,2.6.11,3.67,3.59,8.23,7.39,16.37,11,24.59q8.47,19.17,16.79,38.42c.92,2.14,2.07,3.46,4.7,3.27,16.78-1.26,32,14.77,29.07,34.08-.39,2.57-1,5.1-1.54,8.07,3.35-1.15,3.81,1.07,4.37,3.43,5.28,21.94,11,43.77,15.64,65.84,1.34,6.44-.16,13.63-1.14,20.35-1.82,12.34-3.77,24.63-2.19,37.25-.47-.16-.85-.17-.9-.31-4.76-12.27-12.43-22.73-20.7-32.73-8-9.68-13.64-20.19-16.36-32.68-3.49-16-8.38-31.76-12.66-47.63-.12-.45-.16-.93-.27-1.61,3.88-1.26,7.57-3.13,11.42-3.58,9.07-1.08,13.21-6.88,15.15-14.78,3-12.07-3.69-23.6-15.1-26.18a24.52,24.52,0,0,0-10-.18c-3.15.65-4.24-.62-5.31-3-4.85-10.8-9.76-21.57-14.63-32.36q-15-33.22-29.93-66.46c-2.65-5.91-2.43-6.69,2.74-10.68,9.38-7.23,18.85-14.36,28.32-21.5,3.15-2.37,6.62-4.18,10.71-3.56,1.33.19,2.52,1.28,3.78,2-.68,1.06-1.14,2.4-2.08,3.15-9.64,7.72-19.36,15.34-29,23-5.37,4.24-5.51,4.84-2.94,11.15C1042.84,437.62,1044.07,440.73,1045.62,444.59Z" transform="translate(-576 -156)"/><path class="cls-2" d="M930.11,554c-4.42-5.83-8.79-11.51-13-17.28-.41-.57,0-1.73,0-2.61.74.22,1.75.2,2.2.69,4.21,4.56,8.34,9.21,12.48,13.84C933.92,551.05,932.25,552.36,930.11,554Z" transform="translate(-576 -156)"/><path class="cls-2" d="M909.19,595.35c-1.2,2.76-2.54,3.17-4.52,1.59-4-3.15-8.08-6.16-12-9.4-.79-.66-.89-2.13-1.3-3.22,1.18,0,2.71-.48,3.49.08C899.69,587.88,904.33,591.59,909.19,595.35Z" transform="translate(-576 -156)"/><path class="cls-2" d="M1041.69,673.11l-15.29,2.06c-1-4.19-.15-5.64,3.57-5.45,3.9.2,7.77.86,11.66,1.32Z" transform="translate(-576 -156)"/><path class="cls-2" d="M1041.79,691.65c-2.93,3.44-8.34,2.66-18.17-1.9,1.16-.8,2.16-2,2.86-1.89C1031.47,688.93,1036.4,690.28,1041.79,691.65Z" transform="translate(-576 -156)"/><path class="cls-2" d="M1036.45,633.3l-12.28,10C1022.89,638,1029.48,632.58,1036.45,633.3Z" transform="translate(-576 -156)"/><path class="cls-2" d="M1010.57,603.8c-2.37,3.26-4.71,6.55-7.17,9.74-.31.4-1.56.65-1.81.4-.49-.5-1-1.65-.78-2.07a70.62,70.62,0,0,1,5.62-8.33c.59-.72,2.36-.46,3.58-.66Z" transform="translate(-576 -156)"/><path class="cls-2" d="M1009.29,625.64c-.53-1.52-1.16-2.48-.93-2.78q3.84-4.92,7.95-9.61c.23-.25,1.52,0,1.87.41a2,2,0,0,1,0,1.91C1015.45,618.82,1012.57,622,1009.29,625.64Z" transform="translate(-576 -156)"/><path class="cls-2" d="M904.45,550.58c2.52.21,4.57-.24,5.39.56a52.3,52.3,0,0,1,5.95,7.58c.3.43-.26,1.46-.42,2.21-.64-.2-1.49-.21-1.9-.64C910.72,557.44,908.06,554.5,904.45,550.58Z" transform="translate(-576 -156)"/><path class="cls-2" d="M1004.72,413.52c-1.45,4.35-2.66,8-3.92,11.72C996.49,420.14,998.4,416.56,1004.72,413.52Z" transform="translate(-576 -156)"/><path class="cls-2" d="M1013.05,760.93h12.89l.09,1.38c-3.59.41-7.17,1-10.77,1.12C1014.62,763.46,1013.92,762,1013.05,760.93Z" transform="translate(-576 -156)"/><path class="cls-2" d="M988.91,576.68c-1.39,2.56-2.47,4.65-3.68,6.65a2.12,2.12,0,0,1-1.55.75c-.31,0-1-.77-.95-.93,1.1-2.42,2.26-4.82,3.55-7.16A13.18,13.18,0,0,1,988.91,576.68Z" transform="translate(-576 -156)"/><path class="cls-2" d="M1016.94,747.44l9.56,1.55-.19,1.34-9.6-1.07Z" transform="translate(-576 -156)"/><path class="cls-2" d="M1134.72,276.5c1.27-7.08,12.88-15,16.7-11.91Z" transform="translate(-576 -156)"/><path class="cls-2" d="M777.23,729.5c-4.21-1.6-5.49-4.69-7.53-7.49C773.21,721.77,775.37,723.85,777.23,729.5Z" transform="translate(-576 -156)"/></g></svg>