<svg id="Livello_1" data-name="Livello 1" xmlns="http://www.w3.org/2000/svg" viewBox="0 0 686 681"><defs><style>.cls-1{opacity:0.8;}.cls-2{fill:none;}.cls-3{fill:#0c222f;}.cls-4{fill:#0c2330;}.cls-5{fill:#10222c;}.cls-6{fill:#20292c;}.cls-7{fill:#142533;}.cls-8{fill:#11222d;}.cls-9{fill:#13252c;}.cls-10{fill:#0b2532;}.cls-11{fill:#0f1a1f;}.cls-12{fill:#101f27;}.cls-13{fill:#12222b;}.cls-14{fill:#122833;}.cls-15{fill:#152023;}.cls-16{fill:#131e22;}.cls-17{fill:#151c22;}.cls-18{fill:#0f212a;}.cls-19{fill:#162325;}.cls-20{fill:#c5ced4;}.cls-21{fill:#1b2830;}.cls-22{fill:#18262b;}.cls-23{fill:#2f454d;}.cls-24{fill:#112028;}.cls-25{fill:#1b282f;}.cls-26{fill:#06161e;}.cls-27{fill:#182831;}.cls-28{fill:#192f36;}.cls-29{fill:#1c2f33;}.cls-30{fill:#273436;}.cls-31{fill:#0d1720;}.cls-32{fill:#182626;}.cls-33{fill:#1b2d33;}.cls-34{fill:#122528;}.cls-35{fill:#1c2a2d;}.cls-36{fill:#122b35;}.cls-37{fill:#0e2028;}.cls-38{fill:#2d3c42;}.cls-39{fill:#111b1d;}.cls-40{fill:#010812;}.cls-41{fill:#0e151d;}.cls-42{fill:#7e939d;}.cls-43{fill:#00060f;}.cls-44{fill:#1a292f;}.cls-45{fill:#1a262c;}.cls-46{fill:#232f32;}.cls-47{fill:#1a2d38;}.cls-48{fill:#1c2a2f;}.cls-49{fill:#212f33;}.cls-50{fill:#212f34;}.cls-51{fill:#1b2f37;}.cls-52{fill:#1d2a2d;}.cls-53{fill:#172b2e;}.cls-54{fill:#182325;}.cls-55{fill:#20363a;}.cls-56{fill:#253234;}.cls-57{fill:#233032;}.cls-58{fill:#0d1f28;}.cls-59{fill:#263139;}.cls-60{fill:#101c1f;}.cls-61{fill:#5ddaea;}.cls-62{fill:#252f30;}.cls-63{fill:#243136;}.cls-64{fill:#2a3536;}.cls-65{fill:#223133;}.cls-66{fill:#071314;}.cls-67{fill:#0d3232;}.cls-68{fill:#2e3b3f;}.cls-69{fill:#071313;}.cls-70{fill:#1e2b30;}.cls-71{fill:#cce1e6;}.cls-72{fill:#c8dfe8;}.cls-73{fill:#0d2430;}.cls-74{fill:#0c222e;}.cls-75{fill:#dff2f6;}.cls-76{fill:#7ea6b8;}.cls-77{fill:#93bbc4;}.cls-78{fill:#e9f1f4;}.cls-79{fill:#aeced9;}.cls-80{fill:#acd4e3;}.cls-81{fill:#496873;}.cls-82{fill:#789aa7;}.cls-83{fill:#b1d2dd;}.cls-84{fill:#6a9eac;}.cls-85{fill:#4e7b8e;}.cls-86{fill:#b6ced5;}.cls-87{fill:#fafcfc;}.cls-88{fill:#f1f9f9;}.cls-89{fill:#0d1620;}.cls-90{fill:#0d232f;}.cls-91{fill:#a9c9d3;}.cls-92{fill:#b4d6e3;}.cls-93{fill:#a9c6d0;}.cls-94{fill:#05181f;}.cls-95{fill:#fefefe;}.cls-96{fill:#1a2d33;}.cls-97{fill:#95b4c0;}.cls-98{fill:#6eaeb9;}.cls-99{fill:#6b8793;}.cls-100{fill:#a8c4d0;}.cls-101{fill:#c1dbe4;}.cls-102{fill:#a6c5d5;}.cls-103{fill:#80bdd0;}.cls-104{fill:#e9f6f7;}.cls-105{fill:#85c4d4;}.cls-106{fill:#62a2be;}.cls-107{fill:#0e202b;}.cls-108{fill:#071719;}.cls-109{fill:#68f0f1;}.cls-110{fill:#e6f1f4;}.cls-111{fill:#0c232f;}.cls-112{fill:#1a3547;}.cls-113{fill:#091924;}.cls-114{fill:#67747b;}.cls-115{fill:#e2f4f7;}.cls-116{fill:#b2c7cf;}.cls-117{fill:#d6edf2;}.cls-118{fill:#8cb0be;}.cls-119{fill:#5a7e92;}.cls-120{fill:#435d68;}.cls-121{fill:#afc9d1;}.cls-122{fill:#dbedf3;}.cls-123{fill:#b6cfd9;}.cls-124{fill:#b0d2dd;}.cls-125{fill:#1d404b;}.cls-126{fill:#2d4f5f;}.cls-127{fill:#18313c;}.cls-128{fill:#162831;}.cls-129{fill:#e1edf0;}.cls-130{fill:#608fa5;}.cls-131{fill:#a9ccd8;}.cls-132{fill:#79a4b7;}.cls-133{fill:#eef6f8;}.cls-134{fill:#eef7f9;}.cls-135{fill:#14262d;}.cls-136{fill:#f8fafb;}.cls-137{fill:#f4f5f4;}.cls-138{fill:#10cef3;}.cls-139{fill:#24ddf4;}.cls-140{fill:#838c8a;}.cls-141{fill:#99a0a2;}.cls-142{fill:#0a1919;}.cls-143{fill:#18292b;}.cls-144{fill:#135972;}.cls-145{fill:#475559;}.cls-146{fill:#0b1f2c;}.cls-147{fill:#eaf4f3;}.cls-148{fill:#c0e4ee;}.cls-149{fill:#203139;}.cls-150{fill:#defbfc;}.cls-151{fill:#3bd5e5;}.cls-152{fill:#0d2633;}.cls-153{fill:#99cada;}.cls-154{fill:#e1e9e9;}.cls-155{fill:#f2f8f8;}.cls-156{fill:#f7fcfd;}.cls-157{fill:#0a1c2b;}.cls-158{fill:#081e28;}.cls-159{fill:#d6ecfc;}.cls-160{fill:#b3cfd9;}.cls-161{fill:#bad6e2;}.cls-162{fill:#8cb9d0;}.cls-163{fill:#f0f7f7;}.cls-164{fill:#fafbfa;}.cls-165{fill:#48b9cd;}.cls-166{fill:#0d212e;}.cls-167{fill:#96c7db;}.cls-168{fill:#dfeef1;}.cls-169{fill:#e6f2f5;}.cls-170{fill:#f9747a;}.cls-171{fill:#683653;}.cls-172{fill:#5096ae;}.cls-173{fill:#63a3b9;}.cls-174{fill:#528ca2;}.cls-175{fill:#b7d9e6;}.cls-176{fill:#151f28;}.cls-177{fill:#0f2b3b;}.cls-178{fill:#b5d9e7;}.cls-179{fill:#9bbac6;}.cls-180{fill:#9fcbdb;}.cls-181{fill:#f8ebe9;}.cls-182{fill:#833d50;}.cls-183{fill:#5b2f45;}.cls-184{fill:#1c1f27;}.cls-185{fill:#5499b3;}.cls-186{fill:#152a35;}.cls-187{fill:#7e6a78;}.cls-188{fill:#ba5768;}.cls-189{fill:#d1ebf3;}.cls-190{fill:#aad1da;}.cls-191{fill:#9dc5d2;}.cls-192{fill:#172e35;}.cls-193{fill:#83afc0;}.cls-194{fill:#8fbecd;}.cls-195{fill:#85b4c9;}.cls-196{fill:#f9fbfb;}.cls-197{fill:#d3e8ee;}.cls-198{fill:#ecf1f2;}.cls-199{fill:#d0e5e8;}.cls-200{fill:#bbd5e1;}.cls-201{fill:#d3e5ec;}.cls-202{fill:#f5fafa;}.cls-203{fill:#f3f7f8;}.cls-204{fill:#c5dae5;}.cls-205{fill:#e5f0f5;}.cls-206{fill:#1d303c;}.cls-207{fill:#32434c;}.cls-208{fill:#ecf6f7;}.cls-209{fill:#f8fcfc;}.cls-210{fill:#fbfdfd;}.cls-211{fill:#25c7e2;}.cls-212{fill:#363f42;}.cls-213{fill:#0c171f;}.cls-214{fill:#e0f0f3;}.cls-215{fill:#18bdf5;}.cls-216{fill:#0acbfa;}.cls-217{fill:#012032;}.cls-218{fill:#1ac6e4;}.cls-219{fill:#12cde5;}.cls-220{fill:#34bfda;}.cls-221{fill:#e9f4f6;}.cls-222{fill:#f59092;}.cls-223{fill:#01364a;}.cls-224{fill:#e3fbfb;}.cls-225{fill:#091720;}.cls-226{fill:#f9fcfd;}.cls-227{fill:#f1f6f4;}.cls-228{fill:#c3e0e7;}.cls-229{fill:#aed6e2;}.cls-230{fill:#df666f;}.cls-231{fill:#58354d;}.cls-232{fill:#b9dbe5;}.cls-233{fill:#4d99a2;}.cls-234{fill:#18c1f6;}.cls-235{fill:#20c6f4;}.cls-236{fill:#17b9e3;}.cls-237{fill:#0a7ea5;}.cls-238{fill:#14b9f3;}.cls-239{fill:#13b2ec;}.cls-240{fill:#0a90bb;}.cls-241{fill:#0f9bc4;}.cls-242{fill:#0c8aaf;}.cls-243{fill:#2ac6ee;}.cls-244{fill:#0e88a9;}.cls-245{fill:#1ecee1;}.cls-246{fill:#13789e;}.cls-247{fill:#24def8;}.cls-248{fill:#ccdee2;}.cls-249{fill:#e7f3f7;}.cls-250{fill:#e5f4f5;}.cls-251{fill:#4091a8;}.cls-252{fill:#d4616e;}.cls-253{fill:#f1ebeb;}.cls-254{fill:#edeff1;}.cls-255{fill:#0d1d28;}.cls-256{fill:#efd9d2;}.cls-257{fill:#a6bbc4;}.cls-258{fill:#192128;}.cls-259{fill:#aeccd8;}.cls-260{fill:#7f94a4;}.cls-261{fill:#e3e9ea;}.cls-262{fill:#436f80;}.cls-263{fill:#518ba5;}.cls-264{fill:#a2c6d6;}.cls-265{fill:#a3c3d2;}.cls-266{fill:#de7285;}.cls-267{fill:#a5b9c7;}.cls-268{fill:#bbced7;}.cls-269{fill:#e39a9a;}.cls-270{fill:#b9dae7;}.cls-271{fill:#a8bdc8;}.cls-272{fill:#dee8e9;}.cls-273{fill:#d77c85;}.cls-274{fill:#e9edef;}.cls-275{fill:#587e90;}.cls-276{fill:#b84552;}.cls-277{fill:#f3dcda;}.cls-278{fill:#edced2;}.cls-279{fill:#f1818c;}.cls-280{fill:#b6c7d0;}.cls-281{fill:#b3c6ce;}.cls-282{fill:#d96475;}.cls-283{fill:#152c35;}.cls-284{fill:#fbfcfd;}.cls-285{fill:#ef5b60;}.cls-286{fill:#b4d4df;}.cls-287{fill:#e65f6b;}.cls-288{fill:#793750;}.cls-289{fill:#e25f6e;}.cls-290{fill:#6aa9bc;}.cls-291{fill:#f38081;}.cls-292{fill:#ecf3f4;}.cls-293{fill:#fa7a7a;}.cls-294{fill:#7b3149;}.cls-295{fill:#67a5bc;}.cls-296{fill:#e9f3f6;}.cls-297{fill:#bbdce8;}.cls-298{fill:#e4f3f5;}.cls-299{fill:#0c8bb2;}.cls-300{fill:#0587ae;}.cls-301{fill:#ebf6f7;}.cls-302{fill:#f48487;}.cls-303{fill:#fd797d;}.cls-304{fill:#11c3fd;}.cls-305{fill:#13c2fc;}.cls-306{fill:#0dcef9;}.cls-307{fill:#2fccf2;}.cls-308{fill:#1cc3f5;}.cls-309{fill:#d9f7f8;}.cls-310{fill:#10bef6;}.cls-311{fill:#fd787c;}.cls-312{fill:#e7606d;}.cls-313{fill:#d95f6c;}.cls-314{fill:#568eaa;}.cls-315{fill:#f87f81;}.cls-316{fill:#f5f0ed;}.cls-317{fill:#ebf5f7;}</style></defs><g class="cls-1"><path class="cls-2" d="M617,870V189h686V870Zm508.09-323.5,0-32.94c-2.08-11.06-4.1-22.13-6.32-33.16-.2-1-1.67-1.78-2.55-2.65l-1.21.91c1,3.29,2,6.57,2.92,9.87,4.26,15.21,4.94,30.82,5.15,46.48-.41,4.88-.9,9.77-1.16,14.66,0,.73,1.06,1.51,1.63,2.27.5-.68,1.28-1.29,1.45-2A15.4,15.4,0,0,0,1125.09,546.5ZM799,533l2.61,18.07,2.68-.38-3.18-23V511.28c.72-5.75,1.54-11.49,2.12-17.26.54-5.28,3.54-10.36,2-15.85-1.06.26-1.51.57-1.63,1a130.64,130.64,0,0,0-4.85,50.16ZM780,748.91l-.09,3.16a11.48,11.48,0,0,0,2.79.72q42.17.11,84.33.13l4,0,13.43.11c5.62.19,11.24.51,16.86.55q39.35.24,78.7.37l24.38,8.22H993c-26.16-.05-52.32-.12-78.48-.06-1.16,0-2.31,1.13-3.47,1.74,1.21.55,2.41,1.57,3.62,1.58,10.34.09,20.67,0,31,0l64-.27c8.94.67,17.87,1.75,26.82,1.93,36.09.7,72.19,1.45,108.29,1.5,15.27,0,30.58-1.27,45.79-2.73,6.51-.62,13-2.72,19.18-5,4.81-1.81,4.84-5.82.47-8.57A26.3,26.3,0,0,0,1203,749q-41.91-11-83.87-21.77c17.11-.51,34.28.42,51.37-.58,0-1,0-1.93,0-2.89-17-.13-34-.5-51.09,0-12.62.3-24.55-3.09-36.42-6.8.08-3.8,3-2.3,4.75-2.31,20.21-.11,40.42,0,60.62-.16,1.52,0,3-1,4.54-1.6-1.46-.66-2.91-1.89-4.37-1.9-21.13-.13-42.25-.09-63.38-.1q1.52-8,3-15.93.48-6,.95-12l10.2-3.94-6.49-5.62a75.29,75.29,0,0,1,.57-8.2c1-5.14-.46-10.87,6.09-14.28,4.66-2.43,3.39-8.39-1.16-11.13-2.06-1.25-4.84-3.65-4.78-5.44s3-3.85,5.18-5c3.61-2,4.9-8.76,1.19-10.45-4.78-2.18-3-5.63-3.62-9l4.62-.89-2.79,5.57,1.66.82c9.74-10.91,15.08-24.2,19.42-38,2.12-6.25,4.17-12.51,3.82-19.07l-2.1-.37q-2.09,9-4.16,18-1.8,4.71-3.59,9.43c-.35-3.47-.71-6.94-1.06-10.38-2.13,0-4.42.49-6.33-.15-1.49-.5-3.69-2.53-3.57-3.67,1.28-12.46-5-25,.62-37.4a1,1,0,0,0,0-.49c-.5-4.6-1.34-9.18-1.46-13.79-.23-9,0-17.94-.09-26.91,0-4.41.71-9.37-1-13.06-1.58-3.33-6-5.31-9.35-7.76-.2-.15-1.26.86-1.92,1.34a7.89,7.89,0,0,0-.85-.08c-3.28-25.57-16.79-43.06-41.11-52,0-6.4-.25-12.81.08-19.19.08-1.6,1.92-3.11,3-4.67,4.91-1.4,7.64-4.94,7.7-9.73,0-3.75.28-7.19,2.33-10.36a32.8,32.8,0,0,0,.56-4.38c-.08-19.81-.13-39.62-.44-59.42,0-2.75-1.52-5.47-2.33-8.21-3.58-2.16-6.93-5.54-10.79-6.27-15.6-3-31.36-5.13-47.06-7.58-4.95-.34-9.9-.95-14.85-.94-8.9,0-17.8.54-26.7.57-6.42,0-12.84-.75-19.24-.6-4.54.1-9.05,1.4-13.61,1.68-5.2.33-10.52-.44-15.64.29-10.8,1.54-21.5,3.75-32.25,5.68-4.54,1.9-9.45,3.24-13.47,5.91-2.15,1.43-3.88,5.13-3.93,7.84-.34,19.79-.46,39.6-.09,59.39.12,6.39,1.68,12.8,3,19.1.41,1.9,2.38,3.45,3.63,5.16l7.21,4.81c0,4.6-.24,9.72.07,14.81.27,4.2-.34,7.4-5.19,8.12l-9.35,4.8c-19.07,12.41-27.71,30.32-27.7,52.71q0,105.24.11,210.46c0,2.8.5,5.59.77,8.39q.6,3.32,1.21,6.63l.9,4.84q-43.83,0-87.67,0a28.28,28.28,0,0,0-5.43,1.1c1,.82,1.88,2.23,2.92,2.34a87.33,87.33,0,0,0,9.44.2c25.89,0,51.77,0,77.65-.14,3,0,5,.55,6.09,3.65a39.94,39.94,0,0,0,3,5.68q-40.21-.06-80.44-.12c-9.16,0-18.33,0-27.48.2-1.25,0-2.47,1.42-3.7,2.18a40.13,40.13,0,0,0,6.53,1.1c33.49,0,67,.21,100.48-.22,6.49-.08,9.82,3.08,13.53,7.23l-10.16,3.27.13,1.95c10,3.85,20.49,6,31,7.9a58.14,58.14,0,0,1-7.71,1c-26,.05-51.92,0-77.88,0A38.46,38.46,0,0,0,780,748.91Zm325.85-383.48a8.06,8.06,0,0,0,.83,2.3,42.05,42.05,0,0,0,2.95,3.33,35.86,35.86,0,0,1,2.76-3.35c1.05-1,2.35-1.74,3.46-2.69.8-.68,2.14-1.6,2.06-2.27-.13-1-1.17-2-2-2.85-1.13-1.13-2.43-2.08-3.63-3.13-.89-.78-1.94-2.4-2.57-2.25-1.13.29-2,1.58-3,2.53s-1.79,2-2.68,3l-3.14,3.25ZM752.63,701.11l69.31.23c.14,0,.29-.15.44-.23L823,699a37.7,37.7,0,0,0-6.15-1.06c-10.62-.12-21.23-.06-31.85-.07q-14.93,0-29.86,0C753,697.88,750.39,697.65,752.63,701.11Zm414.5-2.16a13.26,13.26,0,0,0-3.19-.82q-30.74-.11-61.48-.11a4.75,4.75,0,0,0-2,.09,12.2,12.2,0,0,0-2.15,1.69,16.19,16.19,0,0,0,2.41,1.93c.52.28,1.31.07,2,.07q30.24,0,60.48,0A17.92,17.92,0,0,0,1167,701Zm-85.29,77.11c-3.83,0-7.66,0-11.5,0q-104.47,0-208.95,0a31.21,31.21,0,0,0-5.12.83v2.1a58.07,58.07,0,0,0,6.79.77c35.83,0,71.65-.05,107.48,0,20.15,0,40.31.2,60.46.3-3.22.34-6.47.5-9.65,1.08-2.68.49-6.2.67-7.69,2.41-3,3.46-5.85,2.6-9.6,2l2.16-3.93H957l6.06,5.64c-4.41-.39-8.66-1.14-12.91-1a150.8,150.8,0,0,0-20.5,1.47c-3,.47-5.72,3-8.56,4.57-.52,4.69,3.15,3,5.1,3q77.94.15,155.89,0c1.88,0,3.75-.83,5.62-1.27,2.4.91,3.22-.37,1.56-1.85-2.82-2.54-5.53-6-10.3-4.56-1,.29-2.13-.09-3.7-.19l10.47-9.13,2.47,4.71c-.11-2,6.15,2.15,2.84-2.92,20.12-.08,40.24-.12,60.36-.32,1.53,0,3.06-1.14,4.59-1.74-1.45-.61-2.9-1.73-4.36-1.74-21.46-.1-42.92-.06-64.37-.06ZM860,401.53c-14,2.73-50.22,46.67-47.81,59.08,10.46-23.65,26.9-42.21,47.45-57.31C860,403.06,859.92,402.22,860,401.53ZM1153.3,685.08l-.39-1.79a22.63,22.63,0,0,0-3.69-.64c-15.66,0-31.32,0-47,.13-1.31,0-2.61,1.19-3.91,1.83,1.33.67,2.67,1.92,4,1.93q23.23.16,46.48-.06C1150.32,686.47,1151.81,685.57,1153.3,685.08ZM805.67,427.72a8.4,8.4,0,0,0-8.15-8.36c-4.66-.12-8.25,3.41-8.5,8.35-.19,4,3.7,7.8,8,7.89C801.55,435.69,805.59,432,805.67,427.72Zm354.07,95a8.2,8.2,0,0,0-8-7.91c-4.78,0-8.93,3.93-8.8,8.33a8.41,8.41,0,0,0,16.81-.42ZM776.57,778.63c2.33.94,4.14,2,6.07,2.32,1.36.18,2.86-1.14,4.32-1.18,6.12-.2,12.26-.09,18.38-.28,1.54,0,3.06-.81,4.58-1.24l-.12-1.58a38.65,38.65,0,0,0-5-.69c-6-.07-11.93.12-17.89,0-1.92-.05-3.81-.86-5.73-1.33ZM903.8,765.05l.48-1.49c-1-.5-2-1.42-3-1.43q-18.48-.15-37,0c-.86,0-1.7,1.14-2.55,1.75l.52,1.15Zm211-291.56,1.49-.89c-4.16-13-9.33-25.45-18.36-35.88l-1.11.59Zm3.12-57.74c.05,3.5,1.61,5.88,5.45,6.23a6,6,0,0,0,6.72-5.7c0-3.86-2.4-5.81-5.87-6.1C1120.55,409.89,1118.19,411.7,1117.87,415.75Zm-271.65,362c-1.15-.83-1.54-1.35-1.94-1.36-8.76-.12-17.52-.23-26.29-.2-.63,0-1.27,1.1-1.91,1.69.84.61,1.68,1.75,2.52,1.75,8.27,0,16.55-.14,24.83-.33C844.09,779.24,844.73,778.56,846.22,777.71ZM791.43,515.77c-4.2,1.71-4.1,20.12,0,26.61Zm19.16,112.55,2.15-1.15q-7.41-11.2-14.83-22.42l-1.49,1C799.39,614.3,805.44,621,810.59,628.32Zm343.93-6.6c3.11,2.43,5.16,5.14,6.52,4.83a7.44,7.44,0,0,0,4.73-4.87c.23-1.24-2.73-4.15-4.53-4.4C1159.66,617.06,1157.71,619.48,1154.52,621.72Zm-83.66-214.54-1.51,1.56,17.74,17,1.34-1.38C1083.72,417.5,1077.41,412.22,1070.86,407.18Zm-263,261.1,2.94,2.52-5.4-5.8-5.21,5.47c1.82,1.85,3.64,3.68,5.46,5.51L804,674.32Zm321.85-88.66c-5.67,9.34-7.61,14.92-6.1,17.22C1128.45,591.52,1131.81,582.65,1129.73,579.62Zm-11.33,59.75-5.17,5.56,5,5.29,4.39-5.32ZM905,781.36l-.1.74c4.69.95,9.35,2.12,14.09,2.72,1.19.14,2.61-1.57,3.92-2.42l-.57-1ZM774.7,572.66l-1.37,1.47,10.09,10.76,2.21-1c-5.3-3.49-3.23-7,.07-10.54l-1.6-.42-4.76,3.78ZM1179.92,701.9a5.67,5.67,0,0,0,2,0c1.38-.55,2.68-1.3,4-2A23.47,23.47,0,0,0,1182,698a7,7,0,0,0-3.45,0,37.77,37.77,0,0,0-4.52,1.82c1.46.69,2.9,1.42,4.38,2A4.06,4.06,0,0,0,1179.92,701.9ZM837.49,412.46c-2.36-1.5-3.67-2.76-5.18-3.08-.56-.12-2.4,2.13-2.21,3a4.55,4.55,0,0,0,2.9,3.08C834,415.6,835.33,414,837.49,412.46Zm-7.73-27.34c5.46.2,10.91-4.69,10.18-8.42Zm260.39,13.14-1.77,1.59,9.52,10.61,1.83-1.63Zm24.79,272.53.07,1.7h10.84l0-1.7ZM808.62,567.5l-2.43,1.12q2.26,5.48,4.54,11l2.21-1Zm9.55,169.68,0,.89h15.38l0-.89Zm338.74-253.4-1.38.08c-.74,3.85-2.07,7.78,2.88,10.87ZM795.31,737.19l.09.89h13.87l-.07-.89Zm91.09,55.54.05,1.59c3.39,1.51,6.73,1.84,9.93-1.59Z" transform="translate(-617 -189)"/><path class="cls-3" d="M993,762.2h11.34L980,754a19.26,19.26,0,0,0-4.2-1q-45.67,0-91.36,0L871,753c5.87-1.31,11.72-2.7,17.62-3.88,1.41-.29,3.59-.51,4.34.27,4,4.19,9,2.77,13.56,2.51,6.65-.38,13.23-1.81,19.87-2.62a10.22,10.22,0,0,1,4.77.62c4.78,1.85,7.37.33,7.83-4.85h4c.41,3,5.59,7,9.54,6.89,1.33,0,2.59-1.4,3.92-2.09,1.11-.59,2.85-1.85,3.33-1.49,4.27,3.19,8.67.78,13,.71,5.66-.09,11.32,0,17,0,2.63,0,5-.37,3.21-4l12-.87c6.1,0,12.21,0,18.31-.15,4.55-.12,9.1-.52,13.65-.79,21.39-3.33,37.11-13.77,44-35.19.13-.66.25-1.33.38-2l2.59,5c-.3.91-.59,1.82-.88,2.73L1083,717c11.87,3.71,23.8,7.1,36.42,6.8H1108l11.11,3.44Q1161.05,738.11,1203,749a26.3,26.3,0,0,1,7.24,3.24c4.37,2.75,4.34,6.76-.47,8.57-6.17,2.31-12.67,4.41-19.18,5-15.21,1.46-30.52,2.75-45.79,2.73-36.1-.05-72.2-.8-108.29-1.5-9-.18-17.88-1.26-26.82-1.93l.76-1.19c-2.09-.32-4.17-.75-6.26-1C1000.46,762.68,996.75,762.47,993,762.2Z" transform="translate(-617 -189)"/><path class="cls-2" d="M1089,473.05c.66-.48,1.72-1.49,1.92-1.34,3.3,2.45,7.77,4.43,9.35,7.76,1.75,3.69,1,8.65,1,13.06.11,9-.14,18,.09,26.91.12,4.61,1,9.19,1.46,13.79a1,1,0,0,1,0,.49c-5.58,12.35.66,24.94-.62,37.4-.12,1.14,2.08,3.17,3.57,3.67,1.91.64,4.2.15,6.33.15.35,3.44.71,6.91,1.06,10.38L1100.89,609l-4.62.89c.6,3.37-1.16,6.82,3.62,9,3.71,1.69,2.42,8.42-1.19,10.45-2.13,1.2-5.12,3.28-5.18,5s2.72,4.19,4.78,5.44c4.55,2.74,5.82,8.7,1.16,11.13-6.55,3.41-5.13,9.14-6.09,14.28a75.29,75.29,0,0,0-.57,8.2l6.49,5.62-10.2,3.94c0-3.5-.09-7-.09-10.5Q1089,572.78,1089,473.05Z" transform="translate(-617 -189)"/><path class="cls-4" d="M1060.08,377c-2,3.17-2.28,6.61-2.33,10.36-.06,4.79-2.79,8.33-7.7,9.73l-2.11-2.31c6.47-4.2,7.63-7,4.85-13.35-.2,8.75-6.29,11.19-12.19,13.91-1,.48-1.73,1.72-2.58,2.61a27.22,27.22,0,0,0-4.9.52c-17.73,5.17-35.92,6.91-54.27,7.55l-21.61-.24c-1.34-.67-2.63-1.79-4-1.95-14.73-1.71-29.48-3.27-44.22-4.87l-32-7.11c-3.93-1.92-8-3.7-9.29-8.53,0-.17-1.07-.08-1.63-.12L868,380l18,4.91a1,1,0,0,0,.85.29L912,389.83a23.1,23.1,0,0,0,4.79,1.13q32.57.56,65.12,1l1.14,0c7.24-.51,14.48-.86,21.69-1.61,3.48-.36,6.88-1.49,10.32-2.27l21.22-2.84-2.44-3.11h2.94L1052,377l6-1.92Z" transform="translate(-617 -189)"/><path class="cls-2" d="M921.05,792.13c2.84-1.59,5.54-4.1,8.56-4.57a150.8,150.8,0,0,1,20.5-1.47c4.25-.09,8.5.66,12.91,1L957,781.5h49.26l-2.16,3.93c3.75.64,6.63,1.5,9.6-2,1.49-1.74,5-1.92,7.69-2.41,3.18-.58,6.43-.74,9.65-1.08,4.13-.07,8.26-.2,12.39-.22,11.58,0,23.16,0,34.75-.09,2.25,0,5.19.39,3.7-3.61l5.38,0c-1.93,4.42,2.25,2.84,3.78,3.86,3.31,5.07-3,.87-2.84,2.92l-2.47-4.71-10.47,9.13c1.57.1,2.73.48,3.7.19,4.77-1.42,7.48,2,10.3,4.56,1.66,1.48.84,2.76-1.56,1.85-1.8-.71-3.6-2-5.4-2q-74.38-.17-148.76-.08C929.35,791.78,925.2,792,921.05,792.13Z" transform="translate(-617 -189)"/><path class="cls-5" d="M943,745h-4c-4,0-8,0-11.93,0-17.16.1-34.31.2-51.46.4-.64,0-1.27,1.13-1.9,1.73l-2.87,0c-10.55-1.93-21-4-31-7.9l-.13-1.95,10.16-3.27c-3.71-4.15-7-7.31-13.53-7.23-33.49.43-67,.26-100.48.22a40.13,40.13,0,0,1-6.53-1.1,74.91,74.91,0,0,1,8.29-.77c3.29,0,6.58.81,9.86.77,16.69-.22,33.38-.7,50.08-.91,12.8-.15,25.62,0,38.42-.09,1.66,0,3.31-.82,5-1.26a39.94,39.94,0,0,1-3-5.68c-1.06-3.1-3.09-3.66-6.09-3.65-25.88.13-51.76.12-77.65.14a87.33,87.33,0,0,1-9.44-.2c-1-.11-2-1.52-2.92-2.34q44,0,88,0c1.69,0,3.37-.73,5.05-1.12L834,706q1.05-4.65,2.12-9.32,2.3,8.21,4.61,16.41a53.37,53.37,0,0,0,3.06,6.74c8.89,14,22.13,21,38.17,23.43a48.29,48.29,0,0,0,5.81.73q58.61.12,117.2.16L993,745Z" transform="translate(-617 -189)"/><path class="cls-6" d="M1081.84,776.06c1.49,4-1.45,3.6-3.7,3.61-11.59.07-23.17.05-34.75.09-4.13,0-8.26.15-12.39.22-20.15-.1-40.31-.28-60.46-.3-35.83,0-71.65,0-107.48,0a58.07,58.07,0,0,1-6.79-.77v-2.1a31.21,31.21,0,0,1,5.12-.83q104.48,0,208.95,0C1074.18,776,1078,776.05,1081.84,776.06Z" transform="translate(-617 -189)"/><path class="cls-7" d="M1084,711.05l-2.59-5c.56-2.59,1.12-5.19,1.67-7.78a20.3,20.3,0,0,0,.77-3.86q0-55.15,0-110.33c0-1.35,0-2.7,0-4.06l.35-54,1.83,1c.33,17.17.87,34.33,1,51.49.15,35.57,0,71.14.08,106.71a42.2,42.2,0,0,0,.8,5.76c.1,1.35.21,2.7.31,4q-1.52,8-3,15.93Z" transform="translate(-617 -189)"/><path class="cls-8" d="M1086,527l-1.83-1q-.17-19.49-.32-39-1.41-13-2.81-26a13.17,13.17,0,0,0-.44-2.38c-5-13.35-13.69-23.47-26.76-29.57l-13.73-4.72L1039,423a8.86,8.86,0,0,0,.4-.82c6.08-1.1,2.48-6.11,3.71-9.18.61-.73,1.73-1.43,1.76-2.18.18-3.9.09-7.82.09-11.73,1,3.44.84,6.88,1,10.31.19,3.87.66,7.72,1,11.58,24.32,8.92,37.83,26.41,41.11,52q-.15,17.53-.31,35.07c-.27,2.76-.56,5.51-.82,8.27C1086.66,519.88,1086.34,523.44,1086,527Z" transform="translate(-617 -189)"/><path class="cls-9" d="M832.83,699.36c-.27-2.8-.76-5.59-.77-8.39Q832,585.75,832,480.51c0-22.39,8.63-40.3,27.7-52.71.49,1.18,1,2.35,1.49,3.52-15.41,11.41-24.26,26.44-25,45.82-.27,7.28-.19,14.58-.27,21.86a42.18,42.18,0,0,0-.84,5.75c-.09,8.35,0,16.71,0,25.07h-1V478.26h-.94V505q0,94.2,0,188.41C833,695.37,832.89,697.36,832.83,699.36Z" transform="translate(-617 -189)"/><path class="cls-10" d="M873.71,747.13c.63-.6,1.26-1.72,1.9-1.73,17.15-.2,34.3-.3,51.46-.4,4,0,7.95,0,11.93,0-.46,5.18-3,6.7-7.83,4.85a10.22,10.22,0,0,0-4.77-.62c-6.64.81-13.22,2.24-19.87,2.62-4.53.26-9.56,1.68-13.56-2.51-.75-.78-2.93-.56-4.34-.27-5.9,1.18-11.75,2.57-17.62,3.88l-4,0a17.93,17.93,0,0,0-3.72-.93c-13.18-.38-26.37-.89-39.56-.92-14.2,0-28.41.39-42.62.62,4.73-.55,9.46-1.59,14.18-1.56,19.89.1,39.79.57,59.68.73,2.35,0,4.7-1,7-1.6,3.06-.08,6.13,0,9.17-.31C872.07,748.86,872.87,747.76,873.71,747.13Z" transform="translate(-617 -189)"/><path class="cls-11" d="M921.05,792.13c4.15-.12,8.3-.35,12.45-.35q74.38,0,148.76.08c1.8,0,3.6,1.32,5.4,2-1.87.44-3.74,1.27-5.62,1.27q-77.94.12-155.89,0C924.2,795.15,920.53,796.82,921.05,792.13Z" transform="translate(-617 -189)"/><path class="cls-12" d="M832.83,699.36c.06-2,.17-4,.17-6q0-94.2,0-188.41c.32,0,.63,0,.94,0v24.82h1c0-8.36,0-16.72,0-25.07a42.18,42.18,0,0,1,.84-5.75q0,20,0,40l-1.46-3.88a34.61,34.61,0,0,0,0,6.75c.12,3.61.11,7.22.18,10.83q.48,23,1,45.93c0,.13.2.25.3.38l.27,97.68Q835.1,701.34,834,706,833.43,702.68,832.83,699.36Z" transform="translate(-617 -189)"/><path class="cls-13" d="M1000,291.18c15.7,2.45,31.46,4.61,47.06,7.58,3.86.73,7.21,4.11,10.79,6.27-.94,1-2.83,2.19-2.65,2.84,1,3.46-1.3,4.61-3.48,6.08-.26.17.15,1.34.25,2.05l-24.8,7.07L1015,325l-10.91,1.22L994,328l-14,.2-6-.34c-.24-4.8,4.62-1.51,6-3.77,15.25-1.42,30.56-2.36,45.71-4.47,8-1.11,15.61-4.28,23.41-6.53l5.16-4.53-5-4.7c-3.26-1.18-6.42-2.86-9.78-3.43-12.11-2-24.29-3.71-36.45-5.52Z" transform="translate(-617 -189)"/><path class="cls-14" d="M1000,291.18c1,1.23,2,2.47,3,3.71l-20-.78-72,2a38.34,38.34,0,0,0-5.47.13c-9.52,1.55-19,3.22-28.52,4.85l1.55-3-.85-.27c10.75-1.93,21.45-4.14,32.25-5.68,5.12-.73,10.44,0,15.64-.29,4.56-.28,9.07-1.58,13.61-1.68,6.4-.15,12.82.61,19.24.6,8.9,0,17.8-.56,26.7-.57C990.12,290.23,995.07,290.84,1000,291.18Z" transform="translate(-617 -189)"/><path class="cls-15" d="M993,762.2c3.71.27,7.42.48,11.13.82,2.09.2,4.17.63,6.26,1l-.76,1.19-64,.27c-10.33,0-20.66.12-31,0-1.21,0-2.41-1-3.62-1.58,1.16-.61,2.31-1.74,3.47-1.74C940.72,762.08,966.88,762.15,993,762.2Z" transform="translate(-617 -189)"/><path class="cls-16" d="M1091,780c-1.53-1-5.71.56-3.78-3.86,21.45,0,42.91,0,64.37.06,1.46,0,2.91,1.13,4.36,1.74-1.53.6-3.06,1.72-4.59,1.74C1131.24,779.83,1111.12,779.87,1091,780Z" transform="translate(-617 -189)"/><path class="cls-17" d="M1167,701a17.92,17.92,0,0,1-3.75.79q-30.24.08-60.48,0c-.66,0-1.45.21-2-.07a16.19,16.19,0,0,1-2.41-1.93,12.2,12.2,0,0,1,2.15-1.69,4.75,4.75,0,0,1,2-.09q30.75,0,61.48.11a13.26,13.26,0,0,1,3.19.82h-21.21l0,2Z" transform="translate(-617 -189)"/><path class="cls-18" d="M877.73,297.86l.85.27-1.55,3-4.81,2c-7.59.22-10.5,3.63-9.47,10.84.14,1-.5,2.06-.79,3.1a1.24,1.24,0,0,0-.48-.11c-.12,0-.3.2-.3.3q0,20.28,0,40.55H862V354a42.86,42.86,0,0,1,1,5.56c.2,4.52.19,9.06.27,13.59L868,380l-1.83,3.22c.71,3.22,1.43,6.43,2.14,9.65l-1.35,2.37c-1.25-1.71-3.22-3.26-3.63-5.16-1.36-6.3-2.92-12.71-3-19.1-.37-19.79-.25-39.6.09-59.39,0-2.71,1.78-6.41,3.93-7.84C868.28,301.1,873.19,299.76,877.73,297.86Z" transform="translate(-617 -189)"/><path class="cls-19" d="M860,401.53c-.12.69,0,1.53-.36,1.77-20.55,15.1-37,33.66-47.45,57.31C809.82,448.2,846,404.26,860,401.53Z" transform="translate(-617 -189)"/><path class="cls-20" d="M1087.82,508q.15-17.54.31-35.07a7.89,7.89,0,0,1,.85.08q0,99.72,0,199.45c0,3.5.06,7,.09,10.5q-.48,6-.95,12l-.31-4c.06-23.66.18-47.31.17-71Q1088,564,1087.82,508Z" transform="translate(-617 -189)"/><path class="cls-21" d="M1153.3,685.08c-1.49.49-3,1.39-4.48,1.4q-23.23.19-46.48.06c-1.34,0-2.68-1.26-4-1.93,1.3-.64,2.6-1.82,3.91-1.83,15.66-.15,31.32-.15,47-.13a22.63,22.63,0,0,1,3.69.64Z" transform="translate(-617 -189)"/><path class="cls-22" d="M752.63,701.11c-2.24-3.46.35-3.23,2.5-3.23q14.94,0,29.86,0c10.62,0,21.23,0,31.85.07A37.7,37.7,0,0,1,823,699c-.2.7-.41,1.39-.61,2.08Z" transform="translate(-617 -189)"/><path class="cls-23" d="M1083,717l.15-3.23c7.22-.52,14.44-1.34,21.68-1.47,7.68-.13,15.37.49,23.07.6,8.33.12,16.67,0,25,0-1.52.56-3,1.59-4.54,1.6-20.2.12-40.41.05-60.62.16C1086,714.71,1083,713.21,1083,717Z" transform="translate(-617 -189)"/><path class="cls-24" d="M1119.11,727.25,1108,723.81h11.38c17-.53,34.06-.16,51.09,0,0,1,0,1.92,0,2.89C1153.39,727.67,1136.22,726.74,1119.11,727.25Z" transform="translate(-617 -189)"/><path class="cls-25" d="M1123.11,535c-.21-15.66-.89-31.27-5.15-46.48-.92-3.3-1.94-6.58-2.92-9.87l1.21-.91c.88.87,2.35,1.63,2.55,2.65,2.22,11,4.24,22.1,6.32,33.17,0,3.13,0,6.26-.15,9.38-.24,4.36-.64,8.71-1,13Z" transform="translate(-617 -189)"/><path class="cls-26" d="M840.91,723.68c-1.66.44-3.31,1.25-5,1.26-12.8.11-25.62-.06-38.42.09-16.7.21-33.39.69-50.08.91-3.28,0-6.57-.74-9.86-.77a74.91,74.91,0,0,0-8.29.77c1.23-.76,2.45-2.15,3.7-2.18,9.15-.23,18.32-.21,27.48-.2Q800.69,723.59,840.91,723.68Z" transform="translate(-617 -189)"/><path class="cls-27" d="M866.91,395.26l1.35-2.37c1.93,1,3.8,2.54,5.82,2.78,3.35.4,4,2,3.92,5-.16,4.47.28,9-.13,13.42-.44,4.74.7,8.21,5.38,10l-9.88,1.15L869,423c4.85-.72,5.46-3.92,5.19-8.12-.31-5.09-.07-10.21-.07-14.81Z" transform="translate(-617 -189)"/><path class="cls-28" d="M805.67,427.72c-.08,4.29-4.12,8-8.66,7.88-4.29-.09-8.18-3.93-8-7.89.25-4.94,3.84-8.47,8.5-8.35A8.4,8.4,0,0,1,805.67,427.72Zm-1.78,0c-2.91-2.27-4.37-4.21-6.18-4.63-2.73-.62-5.16,1.06-4.59,4.08.34,1.76,2.39,4.4,3.79,4.47C798.73,431.75,800.65,429.69,803.89,427.74Z" transform="translate(-617 -189)"/><path class="cls-29" d="M1159.74,522.76a8.41,8.41,0,0,1-16.81.42c-.13-4.4,4-8.34,8.8-8.33A8.2,8.2,0,0,1,1159.74,522.76Zm-1.66.4c-3-2.34-5-4.95-6.49-4.7-2,.34-3.7,2.84-5.53,4.42,1.72,1.69,3.24,4.34,5.22,4.76C1152.77,528,1154.87,525.4,1158.08,523.16Z" transform="translate(-617 -189)"/><path class="cls-30" d="M776.57,778.63l4.65-4c1.92.47,3.81,1.28,5.73,1.33,6,.16,11.93,0,17.89,0a38.65,38.65,0,0,1,5,.69l.12,1.58c-1.52.43-3,1.19-4.58,1.24-6.12.19-12.26.08-18.38.28-1.46,0-3,1.36-4.32,1.18C780.71,780.68,778.9,779.57,776.57,778.63Z" transform="translate(-617 -189)"/><path class="cls-31" d="M1052,316c-.1-.71-.51-1.88-.25-2.05,2.18-1.47,4.46-2.62,3.48-6.08-.18-.65,1.71-1.88,2.65-2.84.81,2.74,2.28,5.46,2.33,8.21.31,19.8.36,39.61.44,59.42a32.8,32.8,0,0,1-.56,4.38l-2-2a26,26,0,0,0,.9-4.72c.08-10.66,0-21.33,0-32,0-6,.11-12,0-18-.12-4.43-2.13-5.51-5.68-3.33Z" transform="translate(-617 -189)"/><path class="cls-32" d="M1100.89,609l12.26-23.68q1.8-4.71,3.59-9.43l2.44,1.48c-4.34,13.82-9.68,27.11-19.42,38l-1.66-.82Z" transform="translate(-617 -189)"/><path class="cls-33" d="M798.83,529.31a130.64,130.64,0,0,1,4.85-50.16c.12-.41.57-.72,1.63-1,1.5,5.49-1.5,10.57-2,15.85-.58,5.77-1.4,11.51-2.12,17.26-.13-.65-.25-1.3-.42-1.94,0-.08-.3-.1-.34-.12Q799.61,519.24,798.83,529.31Z" transform="translate(-617 -189)"/><path class="cls-34" d="M903.8,765.05H862.24l-.52-1.15c.85-.61,1.69-1.74,2.55-1.75q18.48-.18,37,0c1,0,2,.93,3,1.43Z" transform="translate(-617 -189)"/><path class="cls-35" d="M1114.75,473.49l-18-36.18,1.11-.59c9,10.43,14.2,22.89,18.36,35.88Z" transform="translate(-617 -189)"/><path class="cls-36" d="M1117.87,415.75c.32-4.05,2.68-5.86,6.3-5.57,3.47.29,5.89,2.24,5.87,6.1a6,6,0,0,1-6.72,5.7C1119.48,421.63,1117.92,419.25,1117.87,415.75Z" transform="translate(-617 -189)"/><path class="cls-37" d="M1104,360.08c.89-1,1.74-2.07,2.68-3s1.84-2.24,3-2.53c.63-.15,1.68,1.47,2.57,2.25,1.2,1.05,2.5,2,3.63,3.13.83.83,1.87,1.83,2,2.85.08.67-1.26,1.59-2.06,2.27-1.11,1-2.41,1.68-3.46,2.69a35.86,35.86,0,0,0-2.76,3.35,42.05,42.05,0,0,1-2.95-3.33,8.06,8.06,0,0,1-.83-2.3l3.45-3.09Z" transform="translate(-617 -189)"/><path class="cls-38" d="M781.09,751.69c14.21-.23,28.42-.66,42.62-.62,13.19,0,26.38.54,39.56.92a17.93,17.93,0,0,1,3.72.93q-42.16,0-84.33-.13a11.48,11.48,0,0,1-2.79-.72Z" transform="translate(-617 -189)"/><path class="cls-39" d="M846.22,777.71c-1.49.85-2.13,1.53-2.79,1.55-8.28.19-16.56.35-24.83.33-.84,0-1.68-1.14-2.52-1.75.64-.59,1.28-1.69,1.91-1.69,8.77,0,17.53.08,26.29.2C844.68,776.36,845.07,776.88,846.22,777.71Z" transform="translate(-617 -189)"/><path class="cls-40" d="M1152.87,712.94c-8.34,0-16.68.09-25,0-7.7-.11-15.39-.73-23.07-.6-7.24.13-14.46,1-21.68,1.47.29-.91.58-1.82.88-2.73l1.13-.11c21.13,0,42.25,0,63.38.1C1150,711.05,1151.41,712.28,1152.87,712.94Z" transform="translate(-617 -189)"/><path class="cls-41" d="M781.09,751.69l-1.22.38.09-3.16c1.66.06,3.31.16,5,.16l77.08.19c-2.35.56-4.7,1.62-7,1.6-19.89-.16-39.79-.63-59.68-.73C790.55,750.1,785.82,751.14,781.09,751.69Z" transform="translate(-617 -189)"/><path class="cls-42" d="M862,749.26l-77.08-.19c-1.65,0-3.3-.1-5-.16a38.46,38.46,0,0,1,5.29-.74c26,0,51.92.06,77.88,0a58.14,58.14,0,0,0,7.71-1l2.87,0c-.84.63-1.64,1.73-2.54,1.82C868.13,749.24,865.06,749.18,862,749.26Z" transform="translate(-617 -189)"/><path class="cls-10" d="M884.44,753.06q45.69,0,91.36,0a19.26,19.26,0,0,1,4.2,1q-39.35-.18-78.7-.37C895.68,753.57,890.06,753.25,884.44,753.06Z" transform="translate(-617 -189)"/><path class="cls-43" d="M834.94,710.83c-1.68.39-3.36,1.11-5.05,1.12q-44,.07-88,0a28.28,28.28,0,0,1,5.43-1.1Q791.1,710.76,834.94,710.83Z" transform="translate(-617 -189)"/><path class="cls-44" d="M791.43,515.77v26.61C787.33,535.89,787.23,517.48,791.43,515.77Z" transform="translate(-617 -189)"/><path class="cls-45" d="M810.59,628.32c-5.15-7.28-11.2-14-14.17-22.62l1.49-1q7.41,11.22,14.83,22.42Z" transform="translate(-617 -189)"/><path class="cls-46" d="M1154.52,621.72c3.19-2.24,5.14-4.66,6.72-4.44,1.8.25,4.76,3.16,4.53,4.4a7.44,7.44,0,0,1-4.73,4.87C1159.68,626.86,1157.63,624.15,1154.52,621.72Z" transform="translate(-617 -189)"/><path class="cls-47" d="M1047,421c-.35-3.86-.82-7.71-1-11.58-.17-3.43,0-6.87-1-10.31,0,3.91.09,7.83-.09,11.73,0,.75-1.15,1.45-1.76,2.18l-.23-16,5-2.19,2.11,2.31c-1,1.56-2.87,3.07-3,4.67C1046.77,408.18,1047,414.59,1047,421Z" transform="translate(-617 -189)"/><path class="cls-48" d="M752.63,701.11h69.75c-.15.08-.3.23-.44.23Z" transform="translate(-617 -189)"/><path class="cls-49" d="M1070.86,407.18c6.55,5,12.86,10.32,17.57,17.21l-1.34,1.38-17.74-17Z" transform="translate(-617 -189)"/><path class="cls-33" d="M801.15,527.71l3.18,23-2.68.38L799,533C803,532.52,799.85,529.23,801.15,527.71Z" transform="translate(-617 -189)"/><path class="cls-50" d="M1119.18,577.37l-2.44-1.48q2.07-9,4.16-18l2.1.37C1123.35,564.86,1121.3,571.12,1119.18,577.37Z" transform="translate(-617 -189)"/><path class="cls-51" d="M807.88,668.28l-3.93,6,1.72,1.66c-1.82-1.83-3.64-3.66-5.46-5.51l5.21-5.47,5.4,5.8Z" transform="translate(-617 -189)"/><path class="cls-52" d="M1129.73,579.62c2.08,3-1.28,11.9-6.1,17.22C1122.12,594.54,1124.06,589,1129.73,579.62Z" transform="translate(-617 -189)"/><path class="cls-53" d="M1118.4,639.37l4.22,5.53-4.39,5.32-5-5.29Z" transform="translate(-617 -189)"/><path class="cls-2" d="M905,781.36h17.34l.57,1c-1.31.85-2.73,2.56-3.92,2.42-4.74-.6-9.4-1.77-14.09-2.72Z" transform="translate(-617 -189)"/><path class="cls-54" d="M774.7,572.66l4.64,4,4.76-3.78,1.6.42c-3.3,3.53-5.37,7-.07,10.54l-2.21,1-10.09-10.76Z" transform="translate(-617 -189)"/><path class="cls-55" d="M869,423l4.37,2.19-12.23,6.13-1.49-3.52Z" transform="translate(-617 -189)"/><path class="cls-56" d="M1179.92,701.9a4.06,4.06,0,0,1-1.48,0c-1.48-.62-2.92-1.35-4.38-2a37.77,37.77,0,0,1,4.52-1.82,7,7,0,0,1,3.45,0,23.47,23.47,0,0,1,3.88,1.88c-1.33.67-2.63,1.42-4,2A5.67,5.67,0,0,1,1179.92,701.9Z" transform="translate(-617 -189)"/><path class="cls-57" d="M1123.11,535l.89,1q.54,5.25,1.09,10.5a15.4,15.4,0,0,1-.06,3.4c-.17.75-1,1.36-1.45,2-.57-.76-1.66-1.54-1.63-2.27C1122.21,544.78,1122.7,539.89,1123.11,535Z" transform="translate(-617 -189)"/><path class="cls-58" d="M801.15,527.71c-1.3,1.52,1.82,4.81-2.11,5.29l-.21-3.69q.78-10.06,1.56-20.09s.32,0,.34.12c.17.64.29,1.29.42,1.94Z" transform="translate(-617 -189)"/><path class="cls-59" d="M1125.09,546.5q-.55-5.25-1.09-10.5c.33-4.34.73-8.69,1-13,.16-3.12.11-6.25.15-9.38Z" transform="translate(-617 -189)"/><path class="cls-60" d="M1167,701h-21.06l0-2h21.21Z" transform="translate(-617 -189)"/><path class="cls-61" d="M837.49,412.46c-2.16,1.52-3.46,3.14-4.49,3a4.55,4.55,0,0,1-2.9-3.08c-.19-.85,1.65-3.1,2.21-3C833.82,409.7,835.13,411,837.49,412.46Z" transform="translate(-617 -189)"/><path class="cls-62" d="M829.76,385.12l10.18-8.42C840.67,380.43,835.22,385.32,829.76,385.12Z" transform="translate(-617 -189)"/><path class="cls-63" d="M1090.15,398.26l9.58,10.57-1.83,1.63-9.52-10.61Z" transform="translate(-617 -189)"/><path class="cls-64" d="M1114.94,670.79h10.88l0,1.7H1115Z" transform="translate(-617 -189)"/><path class="cls-65" d="M808.62,567.5l4.32,11.12-2.21,1q-2.28-5.48-4.54-11Z" transform="translate(-617 -189)"/><path class="cls-66" d="M818.17,737.18h15.38l0,.89H818.14Z" transform="translate(-617 -189)"/><path class="cls-67" d="M1104,360.08l5.24,2.26-3.45,3.09-4.93-2.1Z" transform="translate(-617 -189)"/><path class="cls-68" d="M1156.91,483.78l1.5,11c-5-3.09-3.62-7-2.88-10.87Z" transform="translate(-617 -189)"/><path class="cls-69" d="M795.31,737.19H809.2l.07.89H795.4Z" transform="translate(-617 -189)"/><path class="cls-70" d="M886.4,792.73h10c-3.2,3.43-6.54,3.1-9.93,1.59Z" transform="translate(-617 -189)"/><path class="cls-71" d="M1081,461q1.41,13,2.81,26c-.29,7.32-.78,14.64-.81,22-.11,21.91-.06,43.81,0,65.72a35.15,35.15,0,0,0,.78,5.26c0,1.36,0,2.71,0,4.06a18.19,18.19,0,0,0-.79,3.78q0,55.2,0,110.41c-.55,2.59-1.11,5.19-1.67,7.78-.13.67-.25,1.34-.38,2l-3.14-3.25.93-6.79c.06-1,.12-2,.19-3,.28-3.27.82-6.54.82-9.81q0-101.92-.07-203.83A52.5,52.5,0,0,0,1079,475c-.37-3.58-.75-7.16-1.12-10.74Z" transform="translate(-617 -189)"/><path class="cls-72" d="M1077.88,704.75,1081,708c-6.94,21.42-22.66,31.86-44,35.19l-3-.3-1-.9,3-3.08,1.17-1.74a1,1,0,0,1,.71-.24c10.74.43,19.23-4.74,27.2-11.06.46-.36,0-1.91-.08-2.91Z" transform="translate(-617 -189)"/><path class="cls-10" d="M943,745h50c1.78,3.62-.58,4-3.21,4-5.67,0-11.33-.06-17,0-4.34.07-8.74,2.48-13-.71-.48-.36-2.22.9-3.33,1.49-1.33.69-2.59,2-3.92,2.09C948.59,752,943.41,748.05,943,745Z" transform="translate(-617 -189)"/><path class="cls-10" d="M1034,742.89l3,.3c-4.55.27-9.1.67-13.65.79-6.1.16-12.21.11-18.31.15q-58.6-.06-117.2-.15a48.29,48.29,0,0,1-5.81-.73c9.3,0,18.59.16,27.88.13q42.55-.14,85.12-.36Z" transform="translate(-617 -189)"/><path class="cls-73" d="M1053.27,317c3.55-2.18,5.56-1.1,5.68,3.33.16,6,0,12,0,18,0,10.66,0,21.33,0,32a26,26,0,0,1-.9,4.72l-6,1.92-15.22,5.1h-2.94L1031,383a22.63,22.63,0,0,0-4.69-.3c-5.1.7-10.17,1.61-15.25,2.45-3.34.38-6.73.54-10,1.21-3.06.61-4.36-.25-4-3.37s.81-6.46.83-9.69c.09-14.58,0-29.15,0-43.89l8.19-.59-.1.23v46.88h1.11V329.17l8.94-1.35,13.87-2c3.25,0,3,2.26,3,4.48,0,11.13,0,22.25,0,33.38V372l1.29,0V324.22Z" transform="translate(-617 -189)"/><path class="cls-74" d="M978.85,406.06c18.35-.64,36.54-2.38,54.27-7.55a27.22,27.22,0,0,1,4.9-.52h.44l.42.07c0,3.79.21,7.58.06,11.36s-.63,7.69-1,11.53l-23.3,6.89-27.39,2.32c-3.49,0-7-.32-10.47-.11-8.62.53-16.92,0-23.89-6-1-.52-2-1-3.07-1.55L932.06,414c-.26,0-.52-.08-.79-.1-1.94-1-3.77-2.56-5.83-2.95-6.43-1.23-12.94-2-19.42-3a18.43,18.43,0,0,1,3.71-.86c5.89-.15,11.79-.16,17.68-.21,15.66.05,31.31.14,47,.12A22.21,22.21,0,0,0,978.85,406.06Z" transform="translate(-617 -189)"/><path class="cls-75" d="M978.85,406.06a22.21,22.21,0,0,1-4.47.92c-15.66,0-31.31-.07-47-.12L899,403.1a106,106,0,0,0-11.23-2c-1.58-.12-3.28,1.21-4.92,1.88.15,5.63.25,11.28.56,16.91,0,.4,1.6.72,2.45,1.07.55.65,1,1.58,1.66,1.89,2.51,1.12,5.11,2,7.67,3-4.52,2.87-8-1.05-11.92-1.88-4.68-1.78-5.82-5.25-5.38-10,.41-4.44,0-8.95.13-13.42.1-2.92-.57-4.56-3.92-5-2-.24-3.89-1.81-5.82-2.78-.71-3.22-1.43-6.43-2.14-9.65.56,0,1.58-.05,1.63.12,1.3,4.83,5.36,6.61,9.29,8.53,11.09,7.9,24.19,8.4,37,10,4.57.59,9.12,1.34,13.71,1.73,9.83.82,19.67,1.45,29.51,2.16Z" transform="translate(-617 -189)"/><path class="cls-76" d="M981.93,391.91q-32.56-.45-65.12-1a23.1,23.1,0,0,1-4.79-1.13c0-.27,0-.54,0-.81l39.07,1.89c8.41,0,16.82,0,25.23.11A37.86,37.86,0,0,1,981.93,391.91Z" transform="translate(-617 -189)"/><path class="cls-77" d="M957.24,405.82c-9.84-.71-19.68-1.34-29.51-2.16-4.59-.39-9.14-1.14-13.71-1.73L909,399c14.74,1.6,29.49,3.16,44.22,4.87C954.61,404,955.9,405.15,957.24,405.82Z" transform="translate(-617 -189)"/><path class="cls-78" d="M868,380l-4.72-6.87,15.48,5L883,380l2.94,4.93Z" transform="translate(-617 -189)"/><path class="cls-79" d="M909,399l5,2.93c-12.79-1.64-25.89-2.14-37-10Z" transform="translate(-617 -189)"/><path class="cls-80" d="M886,384.93,883,380l2,.62,8,1.54,4.22.74c5.67,1,11.35,1.88,17,2.84,4.24.73,8.48,1.49,12.73,2.24H913l-26.21-2.76A1,1,0,0,1,886,384.93Z" transform="translate(-617 -189)"/><path class="cls-81" d="M1031,383l2.86-.95,2.44,3.11L1015.08,388l-17,1,15.15-2.79Z" transform="translate(-617 -189)"/><path class="cls-82" d="M998.08,389l17-1c-3.44.78-6.84,1.91-10.32,2.27-7.21.75-14.45,1.1-21.69,1.61l1.28-1.95H976l0-.91Z" transform="translate(-617 -189)"/><path class="cls-83" d="M1038.88,398.05l-.42-.07H1038c.85-.89,1.54-2.13,2.58-2.61,5.9-2.72,12-5.16,12.19-13.91,2.78,6.39,1.62,9.15-4.85,13.35l-5,2.19Z" transform="translate(-617 -189)"/><path class="cls-84" d="M886.81,385.22,913,388l-1,1c0,.27,0,.54,0,.81Z" transform="translate(-617 -189)"/><path class="cls-85" d="M976,389.94h8.36l-1.28,1.95-1.14,0a37.86,37.86,0,0,0-5.63-.89c-8.41-.12-16.82-.09-25.23-.11a5.07,5.07,0,0,1,0-.87Z" transform="translate(-617 -189)"/><path class="cls-86" d="M1036.8,382.05,1052,377Z" transform="translate(-617 -189)"/><path class="cls-87" d="M883.25,424c3.94.83,7.4,4.75,11.92,1.88l16.82,2,26.68,2.32,8.16,1.61L957,432a31.5,31.5,0,0,1-15,2.07c-9.57-.85-19.27-.5-28.77-1.75-7-.92-13.71-1.43-20.32.88-6.82,2.38-13.82,4.63-20.07,8.14-12.58,7.06-21,17.51-22.82,32.39-.73,6.15-1.26,12.33-1.88,18.5q-1.53,2.33-3,4.66l0,.09-2.74-.89c-.6,1.94-1.76,3.89-1.7,5.81.31,11.74,1.19,23.47,1.34,35.21.25,18.61.07,37.22.06,55.84-.06,14.11-.21,28.22-.18,42.33,0,16.25.21,32.51.33,48.77q.25,6.78.52,13.56l1.71-.13q0-31.11,0-62.23c0-5.13-.19-10.26-.29-15.39q0-13.41-.1-26.83l0-2.07c2.42.18,4.15-.24,4-3.36-.17-4.75-.17-9.52,0-14.28.11-3.11-1.61-3.54-4-3.36.33-6.55.88-13.1.92-19.65,0-5.23-.81-10.46-.76-15.69,0-1.27,2-2.52,3.05-3.77l.32-.11.34,0,.78,2.43v30.3h1.47c0-6.38-.11-12.77,0-19.15.08-3.55.56-7.1.86-10.65,5.12,1.86,10.13,4.13,15.37,5.49,9.57,2.49,19.28,4.45,28.93,6.63a95.8,95.8,0,0,1-10.43.28,60.87,60.87,0,0,1-10-1.9c-3.73-.92-7.44-3.11-11.06-2.91-3.84.21-7.65,2.39-11.27,4.14-.92.44-1.47,2.5-1.51,3.84-.44,14.23-.74,28.47-1.08,42.71-.66,1-1.32,2-2,3l.06,98.81q.88,8.05,1.76,16.12l.54,6.08-5,2.05-4.64-5q-2.31-8.21-4.61-16.41L835.89,599V539l0-40c.08-7.28,0-14.58.27-21.86.73-19.38,9.58-34.41,25-45.82l12.23-6.13Z" transform="translate(-617 -189)"/><path class="cls-88" d="M840.77,713.08l4.64,5,5-2.05-.54-6.08,2.12,2.74,2.11,3.15c1.62,2.48,3.14,5,4.89,7.42a20.33,20.33,0,0,0,3.1,2.81L877,733l4.91,4.1c2,.62,4.07,1.75,6.11,1.77,22,.21,43.94.24,65.91.31l-8.75,1.3V742H993l2,1q-42.56.18-85.12.36c-9.29,0-18.58-.08-27.88-.13-16-2.41-29.28-9.42-38.17-23.43A53.37,53.37,0,0,1,840.77,713.08Z" transform="translate(-617 -189)"/><path class="cls-89" d="M1087.82,508q.09,56,.18,112c0,23.66-.11,47.31-.17,71a42.2,42.2,0,0,1-.8-5.76c0-35.57.07-71.14-.08-106.71-.08-17.16-.62-34.32-1-51.49.34-3.56.66-7.12,1-10.69C1087.26,513.55,1087.55,510.8,1087.82,508Z" transform="translate(-617 -189)"/><path class="cls-72" d="M1083.07,698.22q0-55.2,0-110.41a18.19,18.19,0,0,1,.79-3.78q0,55.17,0,110.33A20.3,20.3,0,0,1,1083.07,698.22Z" transform="translate(-617 -189)"/><path class="cls-72" d="M1083.82,580a35.15,35.15,0,0,1-.78-5.26c-.06-21.91-.11-43.81,0-65.72,0-7.32.52-14.64.81-22q.15,19.49.32,39Z" transform="translate(-617 -189)"/><path class="cls-90" d="M1077.88,464.27c.37,3.58.75,7.16,1.12,10.74l-.21,14.17q-1,2.55-2,5.1a.41.41,0,0,0-.38.4c-3.51-2.49-6.73-5.61-10.58-7.3-5.35-2.35-11.17-3.62-16.79-5.35.62-20-13-38.32-37.06-44.83l-4.14,7.81c2.4,1.1,4.55,2,6.59,3.06,11.71,6.2,20.45,14.84,22.77,28.5.22,1.32-.72,2.83-1.12,4.26-1.35-.85-3.5-1.4-3.94-2.59-4.42-11.89-12.95-19.51-24.41-24.23q-12.29-5.08-24.57-10.16-10.51-4.37-21-8.8c-1.15-.49-3.25-1.16-.11-2,8.73-.07,17.5.35,26.18-.32,10-.76,19.86-2.48,29.78-3.79L1039,423l1.07,1.32-2.06,1.57,13.89,6.27c4.26,3.26,8.78,6.22,12.71,9.83C1071.24,448,1074.78,456.06,1077.88,464.27Z" transform="translate(-617 -189)"/><path class="cls-72" d="M1077.88,464.27c-3.1-8.21-6.64-16.23-13.23-22.27-3.93-3.61-8.45-6.57-12.71-9.83l1.9-3.12c13.07,6.1,21.71,16.22,26.76,29.57A13.17,13.17,0,0,1,1081,461Z" transform="translate(-617 -189)"/><path class="cls-91" d="M1038.88,398.05l4-1q.11,8,.23,16c-1.23,3.07,2.37,8.08-3.71,9.18l-1.47-1.25c.34-3.84.82-7.68,1-11.53S1038.92,401.84,1038.88,398.05Z" transform="translate(-617 -189)"/><path class="cls-92" d="M1053.84,429.05l-1.9,3.12-13.89-6.27,2.06-1.57Z" transform="translate(-617 -189)"/><path class="cls-93" d="M1038,420.94l1.47,1.25a8.86,8.86,0,0,1-.4.82L1018,429l-3.31-1.12Z" transform="translate(-617 -189)"/><path class="cls-94" d="M834,505c-.31,0-.62,0-.94,0V478.27H834Z" transform="translate(-617 -189)"/><path class="cls-9" d="M835.9,539q0,30,0,60c-.1-.13-.3-.25-.3-.38q-.51-23-1-45.93c-.07-3.61-.06-7.22-.18-10.83a34.61,34.61,0,0,1,0-6.75Z" transform="translate(-617 -189)"/><path class="cls-95" d="M1049.11,313.07c-7.8,2.25-15.46,5.42-23.41,6.53-15.15,2.11-30.46,3-45.71,4.47l-35,0c-20.19.1-40-3-59.86-6.36l.12.08L873,314.21l-4.17-4c4.92-6.65,12.64-7.27,19.76-9,5.73-1.38,11.61-2.14,17.43-3.18,6.13-.31,12.25-.84,18.38-.89q32.39-.27,64.75-.2c7.29,0,14.58.6,21.87.92l35.86,7.27C1048.79,307.43,1051.57,309.51,1049.11,313.07Z" transform="translate(-617 -189)"/><path class="cls-96" d="M945,324.05l35,0c-1.36,2.26-6.22-1-6,3.77l-2,.45a22.32,22.32,0,0,0-.77,4.14c0,16.8,0,33.61.08,50.41-.78-1.16-2.23-2.34-2.22-3.5.14-15.26.52-30.52.74-45.78,0-1.51-.66-3-1-4.55-.82,16.56-.78,33-.88,49.39,0,1.83-.81,3.64-1.25,5.46q.1-26,.2-51.92c.08-1.27.15-2.54.25-4.14-2.26,0-4.24.14-6.19,0-3.7-.33-5.13,1.47-5.11,4.93q.14,25.14.25,50.26a24.91,24.91,0,0,1-1.13-5.08c-.09-13,.1-25.94-.18-38.9-.06-2.67-1.74-5.31-2.67-8-.08-.34-.16-.67-.25-1,.14-.7.58-1.88.37-2-5.71-3.52-12-.15-12,6.64-.1,15.76,0,31.52,0,47.27-.5-.84-1.43-1.68-1.44-2.54-.34-15.48-.55-31-.86-46.45a18.81,18.81,0,0,0-.91-3.79c-.31-.64-.58-1.82-.93-1.84-3-.19-6.06-.18-9.1-.23,1.67-.69,3.29-1.76,5-2C936.33,324.54,940.67,324.37,945,324.05Z" transform="translate(-617 -189)"/><path class="cls-97" d="M1006.06,328.83l-8.19.59c0,14.74,0,29.31,0,43.89,0,3.23-.54,6.46-.83,9.69l-1-1.1c.29-3.73.82-7.46.85-11.19.11-12.17,0-24.34,0-36.51h-1V381h-.83q-.09-25-.19-49.93L994,328l10.1-1.76Z" transform="translate(-617 -189)"/><path class="cls-98" d="M1046.85,305.12,1011,297.85c-4.17-.62-8.33-1.3-12.51-1.85-5.15-.69-10.32-1.27-15.48-1.89l20,.78c12.16,1.81,24.34,3.48,36.45,5.52,3.36.57,6.52,2.25,9.78,3.43Z" transform="translate(-617 -189)"/><path class="cls-99" d="M994,328l1,3.09h-7.11v47.16h-1.08V330.78l-5.93.5V344L980,331l0-2.79Z" transform="translate(-617 -189)"/><path class="cls-100" d="M1053.27,317l-19.08,7.23-4.67-.25-2.33-.9L1052,316Z" transform="translate(-617 -189)"/><path class="cls-101" d="M1006.06,328.83l-2-2.61L1015,325l3.12.55-2.11,2.27-8.94,1.35-1.11-.11Z" transform="translate(-617 -189)"/><path class="cls-102" d="M1016,327.82l2.11-2.27L1015,325l12.19-1.93,2.34.89c.12.62.23,1.23.35,1.84Z" transform="translate(-617 -189)"/><path class="cls-103" d="M1046.85,305.12l2.39-1.28,5,4.7-5.16,4.53C1051.57,309.51,1048.79,307.43,1046.85,305.12Z" transform="translate(-617 -189)"/><path class="cls-104" d="M980,328.18c0,.93,0,1.86,0,2.79l-6.06,1L972,328.29l2-.45Z" transform="translate(-617 -189)"/><path class="cls-105" d="M983,294.11c5.16.62,10.33,1.2,15.48,1.89,4.18.55,8.34,1.23,12.51,1.85-7.29-.32-14.58-.9-21.87-.92q-32.37-.1-64.75.2c-6.13.05-12.25.58-18.38.89l5-1.89Z" transform="translate(-617 -189)"/><path class="cls-106" d="M911,296.13,906,298c-5.82,1-11.7,1.8-17.43,3.18-7.12,1.71-14.84,2.33-19.76,9-3.46-1.34-2-3.15-.31-4.72a23,23,0,0,1,3.73-2.38l4.81-2c9.51-1.63,19-3.3,28.52-4.85A38.34,38.34,0,0,1,911,296.13Z" transform="translate(-617 -189)"/><path class="cls-107" d="M872.22,303.08a23,23,0,0,0-3.73,2.38c-1.69,1.57-3.15,3.38.31,4.72l4.17,4-3,1.84-6.11-1.33c0,17.11.11,33.5-.08,49.9,0,3.89,1.23,5.93,5.05,6.37l8,2.6V327.71c0-3,0-6.06,4-6.78l4.42-3.16-.12-.08c-1.18,1.44,5.17,1.18.76,3.36L881,324c-.65,5.65-1.85,11.3-1.84,16.94,0,11.52.77,23,1.08,34.56,0,.86-1,1.75-1.49,2.62l-15.48-5c-.08-4.53-.07-9.07-.27-13.59a42.86,42.86,0,0,0-1-5.56l0-37c.29-1,.93-2.12.79-3.1C861.72,306.71,864.63,303.3,872.22,303.08Z" transform="translate(-617 -189)"/><path class="cls-108" d="M862,317l0,37v3.77h-.82q0-20.26,0-40.55c0-.1.18-.28.3-.3A1.24,1.24,0,0,1,862,317Z" transform="translate(-617 -189)"/><path class="cls-109" d="M803.89,427.74c-3.24,1.95-5.16,4-7,3.92-1.4-.07-3.45-2.71-3.79-4.47-.57-3,1.86-4.7,4.59-4.08C799.52,423.53,801,425.47,803.89,427.74Z" transform="translate(-617 -189)"/><path class="cls-110" d="M1158.08,523.16c-3.21,2.24-5.31,4.8-6.8,4.48-2-.42-3.5-3.07-5.22-4.76,1.83-1.58,3.5-4.08,5.53-4.42C1153.07,518.21,1155,520.82,1158.08,523.16Z" transform="translate(-617 -189)"/><path class="cls-111" d="M1037.86,736.93a1,1,0,0,0-.71.24l-8.17.48c-2.51-.22-5-.62-7.53-.62-19-.06-38.09,0-57.13,0H895l8.77-6.53L902,730l2-1c4.69-1.35,10-1.83,11.38-7.92l3.93-3.22,8.57-4.91,13.94-11.1c.95,4,2,8.6,3.1,13.16l3.22,5.29,9.81,7.76c6.78,3.3,13,1.57,19.1-2,9.05-4.85,13.34-17.28,9.06-26.22l-3.33-7.75,3.33-1.16,2,1q.5,2.63,1,5.26c.86,4.67,2.57,9.4,2.32,14-.26,4.79,1.24,7.62,6.57,7.83l6.88,4.7c3.52,1.78,6.92,3.87,10.58,5.28a17.34,17.34,0,0,0,20.7-6.85l2.79-14.09,3.72.75,1.11-3.83c.21,1,.41,1.94.62,2.91l.83,2.12.65,8c7.62.61,13.37-2.35,17.16-9,.74-2.36,1.48-4.71,2.23-7.07a36.35,36.35,0,0,0,.6-4.84c-.15-13.36-.37-26.71-.57-40.07,0-3.15.08-6.31-.1-9.46-.6-10.74-5.68-14-15.27-9.75L1048,638c-2.31-1.29-6.14-2.14-6.65-3.94-1.51-5.29-3.93-4.17-7.46-1.93v-22h-1v-5l12.15-4c8.3,1.2,15.16-3.18,22.36-6,1-.38,1.21-2.46,2-4.2l-24.68,7L1033,599c0-16.45.1-32.91,0-49.37,0-3.78,1.23-5.38,5-5.67,3-.23,5.92-1.31,8.88-2l-.23-.86-11.86,2.16,3.32-3.09c8.13-.48,16.46.89,24.2-3,3.79-1.91,7.78-3.41,11.68-5.09,3.46-.21,3,2.27,3,4.41,0,11.13,0,22.26,0,33.4a30.2,30.2,0,0,0,1,5.18q0,58.6,0,117.2a42.25,42.25,0,0,0,.77,5.77l-.93,6.79L1065,723c-8.41,4-16.84,8-25.23,12.13C1039,735.46,1038.48,736.31,1037.86,736.93Z" transform="translate(-617 -189)"/><path class="cls-112" d="M1078.79,489.18,1079,475a52.5,52.5,0,0,1,.75,6.33q.09,101.91.07,203.83c0,3.27-.54,6.54-.82,9.81,0-1.83-.08-3.66-.08-5.49Q1078.84,589.34,1078.79,489.18Z" transform="translate(-617 -189)"/><path class="cls-113" d="M1078.79,489.18q.06,100.16.13,200.31c0,1.83,0,3.66.08,5.49-.07,1-.13,2-.19,3a42.25,42.25,0,0,1-.77-5.77q-.07-58.61,0-117.2l0-48,0-1c0-6.11.16-12.23,0-18.34-.07-3.21-.6-6.42-.93-9.63-.08-1.23-.17-2.47-.26-3.7Z" transform="translate(-617 -189)"/><path class="cls-114" d="M1029,737.65l8.17-.48-1.17,1.74-18,.3-38-.06a9.85,9.85,0,0,1-2.75.76c-7.78-.2-15.56-.49-23.35-.76-22-.07-43.94-.1-65.91-.31-2,0-4.07-1.15-6.11-1.77l10,0a40.42,40.42,0,0,0,6.21,1q62,.13,123.89.11C1024.36,738.1,1026.67,737.81,1029,737.65Z" transform="translate(-617 -189)"/><path class="cls-115" d="M980,739.15l38,.06c1.92.93,3.75,2.36,5.76,2.67,3,.45,6.15.11,9.23.11l1,.9L995,743l-2-1a33,33,0,0,0-5.2-1.94C985.25,739.54,982.63,739.44,980,739.15Z" transform="translate(-617 -189)"/><path class="cls-116" d="M1037.86,736.93c.62-.62,1.14-1.47,1.89-1.84C1048.14,731,1056.57,727,1065,723c0,1,.54,2.55.08,2.91C1057.09,732.19,1048.6,737.36,1037.86,736.93Z" transform="translate(-617 -189)"/><path class="cls-117" d="M1033,742c-3.08,0-6.22.34-9.23-.11-2-.31-3.84-1.74-5.76-2.67l18-.3Z" transform="translate(-617 -189)"/><path class="cls-118" d="M996,381.9l1,1.1c-.32,3.12,1,4,4,3.37,3.29-.67,6.68-.83,10-1.21l2.17,1L998.08,389,976,389l-5-.89,23.79-1.33c.13-2.26.23-4,.33-5.81H996C996,381.3,996,381.6,996,381.9Z" transform="translate(-617 -189)"/><path class="cls-119" d="M1029.88,325.8c-.12-.61-.23-1.22-.35-1.84l4.66.26V372l-1.29,0v-8.33c0-11.13,0-22.25,0-33.38C1032.91,328.06,1033.13,325.78,1029.88,325.8Z" transform="translate(-617 -189)"/><path class="cls-120" d="M1006,329.06l1.11.11v46.77H1006Z" transform="translate(-617 -189)"/><path class="cls-121" d="M1013.23,386.2l-2.17-1c5.08-.84,10.15-1.75,15.25-2.45a22.63,22.63,0,0,1,4.69.3Z" transform="translate(-617 -189)"/><path class="cls-122" d="M931.27,413.86c.27,0,.53.06.79.1l17.81,13.28,1,1.38-29.12-2.5,4.48-.55.22-1.26L901,414c1.28-.61,3.23-2.09,3.72-1.7,4,3.18,8.24.29,12.3.69Z" transform="translate(-617 -189)"/><path class="cls-123" d="M1014.67,427.83,1018,429c-9.92,1.31-19.81,3-29.78,3.79-8.68.67-17.45.25-26.18.32l-5-1-10.15-.23a35.9,35.9,0,0,1,5.09-.88c11.79-.31,23.57-.53,35.36-.78Z" transform="translate(-617 -189)"/><path class="cls-124" d="M931.27,413.86,917,413c-5.2-1-10.43-1.8-15.57-3-1.63-.39-3-1.84-4.48-2.8l4.64,0,4.41.72c6.48,1,13,1.75,19.42,3C927.5,411.3,929.33,412.84,931.27,413.86Z" transform="translate(-617 -189)"/><path class="cls-125" d="M987.28,430.15c-11.79.25-23.57.47-35.36.78a35.9,35.9,0,0,0-5.09.88l-8.16-1.61,12.21-1.58-1-1.39,3-3.14c7,6,15.27,6.48,23.89,6C980.28,429.83,983.79,430.1,987.28,430.15Z" transform="translate(-617 -189)"/><path class="cls-126" d="M952.92,424.09l-3,3.14L932.06,414l17.79,8.58C950.88,423,951.9,423.57,952.92,424.09Z" transform="translate(-617 -189)"/><path class="cls-127" d="M906,407.93l-4.41-.72,1.66-.67-6.65-1.82L899,403.1l28.43,3.76c-5.89.05-11.79.06-17.68.21A18.43,18.43,0,0,0,906,407.93Z" transform="translate(-617 -189)"/><path class="cls-128" d="M899,403.1l-2.36,1.62,6.65,1.82-1.66.67-4.64,0-7-1.46c.38,5.2.7,9.7,1,14.19L901,423l12.41,2.77-3.81.51,2.39,1.58-16.82-2c-2.56-1-5.16-1.91-7.67-3-.69-.31-1.11-1.24-1.66-1.89,0-3.75-.12-7.51.17-11.24.24-3-.5-5.26-3.18-6.74,1.64-.67,3.34-2,4.92-1.88A106,106,0,0,1,899,403.1Z" transform="translate(-617 -189)"/><path class="cls-129" d="M882.83,403c2.68,1.48,3.42,3.74,3.18,6.74-.29,3.73-.13,7.49-.17,11.24-.85-.35-2.43-.67-2.45-1.07C883.08,414.3,883,408.65,882.83,403Z" transform="translate(-617 -189)"/><path class="cls-130" d="M951,390a5.07,5.07,0,0,0,0,.87L912,389l1-1h14l4-.84,5.15.4,7.84.57Z" transform="translate(-617 -189)"/><path class="cls-18" d="M878.71,378.12c.52-.87,1.52-1.76,1.49-2.62-.31-11.52-1-23-1.08-34.56,0-5.64,1.19-11.29,1.84-16.94-.06,15.48-.18,31-.09,46.44,0,1.53,1.35,3.06,2.07,4.6l4.29,1.85c-2.65.1-3,1.58-2.24,3.73l-2-.62Z" transform="translate(-617 -189)"/><path class="cls-18" d="M931,387.14l-4,.84c-4.25-.75-8.49-1.51-12.73-2.24-5.68-1-11.36-1.89-17-2.84-1.43-3-.3-4.17,2.78-4l6,1.13c0-16-.08-31.37.08-46.76,0-2.7,1.11-5.38,1.75-8.28H906l-10.89.07-1.39-.18c-.17-.55-.22-1.47-.55-1.59-2.39-.83-4.84-1.5-7.28-2.22,4.41-2.18-1.94-1.92-.76-3.36,19.82,3.39,39.67,6.46,59.86,6.36-4.32.32-8.66.49-13,1-1.73.22-3.35,1.29-5,2l-1.79,2c-.42,1.84-1.18,3.67-1.23,5.52q-.53,22.2-.72,44.39c0,1,1.32,1.92,2,2.88l2.49.29,3.31,1.55Zm-19.13-6.93-.08,0L917,381l4.1,0c.64-5.35,1.33-10.69,1.81-16.06,0-.59-1.15-1.3-1.77-1.95q0-17-.1-34c.23-.57.77-1.54.64-1.64-3.63-2.81-7.31-2.48-10.56.86a8.12,8.12,0,0,0-1,2.63c-.07,15.53-.1,31.06,0,46.59C910,378.36,911.26,379.28,911.91,380.21Z" transform="translate(-617 -189)"/><path class="cls-107" d="M893.72,324.86l1.39.18c-.05,1.65-.11,3.3-.17,4.95a20.25,20.25,0,0,0-.93,4.18q-.09,18,0,36.11a18.51,18.51,0,0,0,.8,3.74c0,1.59,0,3.18.14,4.76s1.19,3.66-1.94,3.38l-8-1.54c-.76-2.15-.41-3.63,2.24-3.73l3.52,0c.41-1.32,1.17-2.65,1.18-4,.05-15.69,0-31.39,0-47.08l1.1-1.23A2.76,2.76,0,0,0,893.72,324.86Z" transform="translate(-617 -189)"/><path class="cls-131" d="M893,382.16c3.13.28,2.09-1.74,1.94-3.38s-.1-3.17-.14-4.76l.33-8a61.87,61.87,0,0,1,.69,8.23c-.14,3.2,1.32,4.09,4.12,3.86,0,.27,0,.54.06.81-3.08-.15-4.21,1.05-2.78,4Z" transform="translate(-617 -189)"/><path class="cls-132" d="M951,390l-7-1.93,27,0,5,.89,0,.91Z" transform="translate(-617 -189)"/><path class="cls-95" d="M850,592c.34-14.24.64-28.48,1.08-42.71,0-1.34.59-3.4,1.51-3.84,3.62-1.75,7.43-3.93,11.27-4.14,3.62-.2,7.33,2,11.06,2.91a60.87,60.87,0,0,0,10,1.9,95.8,95.8,0,0,0,10.43-.28L912,548l-4.48,2.2c.6,1.27,1.62,2.4,1.62,3.54,0,14.28-.08,28.57-.12,42.85,0,3.56-1.24,7.74,4.65,8.94-4.35-.14-4.83,2.07-4.72,5.19.2,5.48.06,11,.06,16.45,0,8.51,0,8.51-8.26,8.9-5.33.7-10.53-3.33-15-1.54l-12.19-3.77v10.12l-4.2.64c-.48-4.43-.92-8.48-1.35-12.52,0-8.1.11-16.21-.08-24.31,0-1.57-.83-4-2-4.52a44.92,44.92,0,0,0-11.44-4C851.68,595.66,850.32,594.68,850,592Z" transform="translate(-617 -189)"/><path class="cls-133" d="M957,432l5,1c-3.14.83-1,1.5.11,2q10.49,4.44,21,8.8Q995.42,449,1007.7,454c-5.56,10.36-3.74,13-18.93,12a17.38,17.38,0,0,0-2.5,0c-4,.28-6-1.17-6.52-5.56-.18-1.63-3.09-4.26-4.66-4.2-4.33.18-9.39-2.46-12.92,2.27-.18.23-.08.65-.15,1-.95,4.18-1.58,8.48-3,12.5-.68,1.92-3.34,4.91-4.3,4.63-2.94-.84-7.61-.37-7.67-5.37,0-3.11-2-3.42-4.33-4.35-6.89-2.76-13.55.84-20.31.22-.85-.07-1.78.71-2.64,1.08.61,2.53-4.13,8.87-7,9.84-4.2,1.44-7.56,1.27-8.91-3.84a2.79,2.79,0,0,0-1.06-1.62c-4.76-2.72-3.39-5.36-.4-8.67,2.78-3.07,5.42-6.66,1.58-10.92,6.83-3.09,13.69-6.11,20.44-9.35,1.36-.66,2.31-2.19,3.44-3.32-1.53-1.11-3-3-4.61-3.16-3-.26-6.17.5-9.27.83-.42-1.16-.84-2.32-1.42-3.89-6.31-.74-12.49,1.57-18.42,4.39C877.91,446.24,867.9,458.81,868,478c0,3,.6,6,.92,9.06l-8.11.84-12.75,4.34c.62-6.17,1.15-12.35,1.88-18.5,1.77-14.88,10.24-25.33,22.82-32.39,6.25-3.51,13.25-5.76,20.07-8.14,6.61-2.31,13.35-1.8,20.32-.88,9.5,1.25,19.2.9,28.77,1.75A31.5,31.5,0,0,0,957,432Z" transform="translate(-617 -189)"/><path class="cls-134" d="M850,592c.33,2.67,1.69,3.65,4.5,4.16a44.92,44.92,0,0,1,11.44,4c1.15.56,1.94,2.95,2,4.52.19,8.1.08,16.21.08,24.31l-16-5.1-1.82-1.06c0-7.83,0-15.66-.18-23.49a21.19,21.19,0,0,0-1-4.39l-1,0C848.67,594,849.33,593,850,592Z" transform="translate(-617 -189)"/><path class="cls-135" d="M912,548l-16.68-2.18c-9.65-2.18-19.36-4.14-28.93-6.63-5.24-1.36-10.25-3.63-15.37-5.49l-2.36-.5-.78-2.43,2.09-1.52,10.78,3.82,7.33,2.13,2.69.87,5.48,1.27,4,.76,5.22,1.27a.4.4,0,0,0-.2.5l-1.13.68c.07.1.13.28.22.29,7,1.14,13.94,2.47,21,3.33,11.61,1.42,23.23,3.13,34.89,3.64,14.25.63,28.55.3,42.82.07,4.36-.07,8.7-1.2,13-1.85,7.19-.36,14.4-.49,21.55-1.2,2.88-.29,5.64-1.85,8.45-2.83l.4-.17.42.06.18,3.89-1.09.37-19.88,2-5.38.72c-9,.36-17.94,1.14-26.9,1C953.16,549.49,932.58,548.67,912,548Z" transform="translate(-617 -189)"/><path class="cls-136" d="M851.94,712.68l-2.12-2.74q-.89-8.06-1.76-16.12l2-6.62c5.91-5.21,11.77-10.46,17.77-15.56,1.08-.91,2.73-1.16,4.11-1.72L875.9,672l-20.79,21.18,4,1.86c-1,1.42-1.83,3.66-3.19,4.1-5.22,1.69-4.61,5.25-3.68,9.19.34,1.44.47,2.93.69,4.39Z" transform="translate(-617 -189)"/><path class="cls-137" d="M847.21,530.89c-1.07,1.25-3,2.5-3.05,3.77,0,5.23.78,10.46.76,15.69,0,6.55-.59,13.1-.92,19.65v21l0,2.07-2-.08c0-18.62.19-37.23-.06-55.84-.15-11.74-1-23.47-1.34-35.21-.06-1.92,1.1-3.87,1.7-5.81,0,6.8-.2,13.59-.1,20.38.06,4,.53,8.09.81,12.14l1.2.39Z" transform="translate(-617 -189)"/><path class="cls-138" d="M848.1,492.27l12.75-4.34c2.43.66,6.94-1.65,6,3.45l-5.87.7c-2.15,1.05-4.45,1.74-1.92,5,1,1.29.51,3.76.74,6.09L848,499.93l-2.92-3Q846.58,494.59,848.1,492.27Z" transform="translate(-617 -189)"/><path class="cls-139" d="M845.06,496.93l2.92,3c0,.36,0,.73,0,1.09.14,8.78.26,17.56.51,26.33,0,.66.94,1.29,1.45,1.93l-2.09,1.52-.34,0-.32.11-3-1.85-.33-28L845,497Z" transform="translate(-617 -189)"/><path class="cls-140" d="M842,593l2,.08q0,13.42.1,26.83c-.44,1.61-1.26,3.22-1.27,4.83-.09,14.16,0,28.32,0,42.47,0,5.63-.41,11.26-.62,16.89-.12-16.26-.3-32.52-.33-48.77C841.78,621.21,841.93,607.1,842,593Z" transform="translate(-617 -189)"/><path class="cls-141" d="M850.1,687.2l-2,6.62L848,595l1,0q.07,14,.14,28.06v19l.09,42.92C849.51,685.68,849.8,686.44,850.1,687.2Z" transform="translate(-617 -189)"/><path class="cls-142" d="M842.14,684.09c.21-5.63.59-11.26.62-16.89.07-14.15,0-28.31,0-42.47,0-1.61.83-3.22,1.27-4.83.1,5.13.28,10.26.29,15.39q0,31.11,0,62.23l-1.71.13Q842.41,690.87,842.14,684.09Z" transform="translate(-617 -189)"/><path class="cls-95" d="M844,591V570c2.43-.18,4.15.25,4,3.36-.17,4.76-.17,9.53,0,14.28C848.15,590.76,846.42,591.18,844,591Z" transform="translate(-617 -189)"/><path class="cls-143" d="M912,427.88l-2.39-1.58,3.81-.51,8.35.33,29.12,2.5-12.21,1.58Z" transform="translate(-617 -189)"/><path class="cls-144" d="M845,497c-.39,1.35-.77,2.71-1.16,4.06a35.73,35.73,0,0,0-.73,4.77c-.11,7.6-.1,15.2-.14,22.8-.28-4-.75-8.09-.81-12.14-.1-6.79,0-13.58.1-20.38Z" transform="translate(-617 -189)"/><path class="cls-145" d="M848.65,533.23l2.36.51c-.3,3.54-.78,7.09-.86,10.64-.14,6.38,0,12.77,0,19.15h-1.47Z" transform="translate(-617 -189)"/><path class="cls-146" d="M851.94,712.68l1,.05,2.07.89,3,1.51c8.92,2.79,16.38-2.32,14.91-10.23L878.12,694l13-12.63,3,1.83-2.19,2.72c-2.21,2-4.53,3.84-6.61,5.94-7.84,7.91-9.15,16.38-4.15,26.09l2,3c1,1.57,1.79,3.46,3.15,4.65,4.49,3.87,9.9,4.93,15.7,4.35l1.77.48L895,737l-3.06,0-10,0L877,733l-1-3.48c.25-7.39-3-10.18-11.06-9.48l-11-4.18Z" transform="translate(-617 -189)"/><path class="cls-147" d="M980,739.15c2.59.29,5.21.39,7.76.91A33,33,0,0,1,993,742H945.2v-1.55l8.75-1.3c7.79.27,15.57.56,23.35.76A9.85,9.85,0,0,0,980,739.15Z" transform="translate(-617 -189)"/><path class="cls-148" d="M854.05,715.83,865,720c-.84,5.58,4.91,4.56,7.78,7.18L870,728l-7.91-2a20.33,20.33,0,0,1-3.1-2.81C857.19,720.86,855.67,718.31,854.05,715.83Z" transform="translate(-617 -189)"/><path class="cls-149" d="M862,726.06l7.91,2,6.11,1.47,1,3.48Z" transform="translate(-617 -189)"/><path class="cls-134" d="M904,453c3.84,4.26,1.2,7.85-1.58,10.92-3,3.31-4.36,5.95.4,8.67a2.79,2.79,0,0,1,1.06,1.62c1.35,5.11,4.71,5.28,8.91,3.84,2.85-1,7.59-7.31,7-9.84.86-.37,1.79-1.15,2.64-1.08,6.76.62,13.42-3,20.31-.22,2.33.93,4.29,1.24,4.33,4.35.06,5,4.73,4.53,7.67,5.37,1,.28,3.62-2.71,4.3-4.63,1.42-4,2.05-8.32,3-12.5.07-.33,0-.75.15-1,3.53-4.73,8.59-2.09,12.92-2.27,1.57-.06,4.48,2.57,4.66,4.2.48,4.39,2.52,5.84,6.52,5.56a17.38,17.38,0,0,1,2.5,0c15.19,1,13.37-1.64,18.93-12,11.46,4.72,20,12.34,24.41,24.23.44,1.19,2.59,1.74,3.94,2.59.4-1.43,1.34-2.94,1.12-4.26-2.32-13.66-11.06-22.3-22.77-28.5-2-1.08-4.19-2-6.59-3.06l4.14-7.81c24,6.51,37.68,24.85,37.06,44.83l-6.22,2.07c-8.25-.72-16.49-1.74-24.76-2.12-22.85-1-45.7-2-68.57-2.59-7.5-.19-15,1-22.56,1.55l-9.94.23-28.91,1.88L887,483l1-3h11.29v-2H888C889.3,467.09,894.6,458.73,904,453Z" transform="translate(-617 -189)"/><path class="cls-150" d="M887,483l1.07.09c-.07,7.94-.3,15.89-.06,23.82,0,1.27,2,3.45,3.31,3.58,13.48,1.4,27,2.47,40.49,3.63a25.24,25.24,0,0,0,4.36.65c24.72-.59,49.48-.62,74.14-2.14,13.3-.81,26.44-4.2,39.65-6.44,6.8-2.43,13.78-4.49,20.35-7.45,3.23-1.46,4.16-4.47-.37-6.34L1050,486.05l-1-.22-6.23-1.73L1049,482c5.62,1.73,11.44,3,16.79,5.35,3.85,1.69,7.07,4.81,10.57,7.29q-1.2,3.13-2.42,6.27l-12.29,5.86-25.7,6-28.15,3.51-37,2.06-4.46-.14c-14.55-.41-29.09-.79-43.63-1.24-6.88-.22-13.76-.59-20.65-.89l-4.82-1.24-9.4-1.71c0,7.47.16,14.28-.11,21.07-.07,1.74-1.51,3.42-2.31,5.14l-5.22-1.27c-.05-7.49,0-15-.2-22.46,0-1.5-.87-3-1.34-4.46l-1.78.47c0,2.79.06,5.58,0,8.36-.17,5.78-.41,11.55-.62,17.33l-5.48-1.27,5.29-.53c0-9.62-.11-18.86,0-28.11.12-7.86.55-15.72.84-23.58l.26.39V508l2.6,0V484.14L881,484c.22,7.44.61,14.88.6,22.31,0,9-.5,18-.4,27,0,1.66,1.88,3.3,2.89,4.95l1.3-.74c.59-8.93,1.47-17.84,1.65-26.77.14-6.54-.79-13.09-1-19.65C886,488.42,886.66,485.68,887,483Z" transform="translate(-617 -189)"/><path class="cls-151" d="M1074,500.94q1.21-3.13,2.42-6.27a.43.43,0,0,1,.39-.39c.08,1.23.17,2.47.25,3.7l-.18,27.94-2.69,1.27c.6-1.34,1.68-2.67,1.72-4,.18-6.61.15-13.23,0-19.85,0-.72-1.3-1.42-2-2.13Z" transform="translate(-617 -189)"/><path class="cls-18" d="M885.25,317.77l-4.42,3.16L870,316.68a.81.81,0,0,0,0-.63l3-1.84Z" transform="translate(-617 -189)"/><path class="cls-152" d="M971,388.14l-27,0-7.84-.57L950,384l1.94-1.14,1.25,3.86,6.79-2.65,6.73-.23c.44-1.82,1.24-3.63,1.25-5.46.1-16.41.06-32.83.88-49.39.35,1.52,1,3,1,4.55-.22,15.26-.6,30.52-.74,45.78,0,1.16,1.44,2.34,2.22,3.5l2.66.09,6.84.36v-52l5.93-.5v47.45h1.08V331.07H995q.09,25,.19,49.93l-.33,5.81Z" transform="translate(-617 -189)"/><path class="cls-153" d="M966.71,383.86l-6.73.23-3-1c3.21.05,3-2.15,3-4.4,0-9.43,0-18.85,0-28.28v-18l6.9-.5Z" transform="translate(-617 -189)"/><path class="cls-154" d="M940.26,381.92c0-15.75-.15-31.51,0-47.27,0-6.79,6.33-10.16,12-6.64.21.13-.23,1.31-.37,2l-1.06,1.88c-4.82-.62-6.05,1.51-5.93,6.22.34,13.1.05,26.21.2,39.31,0,1.79,1.1,3.57,1.68,5.35l-4.06.41Z" transform="translate(-617 -189)"/><path class="cls-155" d="M925.23,329.08l1.79-2c3,.05,6.08,0,9.1.23.35,0,.62,1.2.93,1.84L935.9,332l-5.9.34V338c0,13.11.08,26.22-.09,39.33,0,1.6-1.38,3.19-2.12,4.79l-2.49-.29Q925.27,355.48,925.23,329.08Z" transform="translate(-617 -189)"/><path class="cls-156" d="M966.91,331.94l-6.9.5v18c0,9.43,0,18.85,0,28.28,0,2.25.17,4.45-3,4.4l-.87-.16q-.12-25.12-.25-50.26c0-3.46,1.41-5.26,5.11-4.93,1.95.17,3.93,0,6.19,0C967.06,329.4,967,330.67,966.91,331.94Z" transform="translate(-617 -189)"/><path class="cls-157" d="M935.9,332l1.15-2.83a18.81,18.81,0,0,1,.91,3.79c.31,15.48.52,31,.86,46.45,0,.86.94,1.7,1.44,2.54l2.45,1.27L950,384l-13.81,3.52-5.15-.4.06-3.43,4.8-1.17Z" transform="translate(-617 -189)"/><path class="cls-158" d="M956.11,383l.87.16,3,1-6.79,2.65c-.42-1.29-.83-2.58-1.25-3.86,0-8.82-.13-17.64-.1-26.45,0-8.47.19-16.94.29-25.41.93,2.65,2.61,5.29,2.67,8,.28,13,.09,25.93.18,38.9A24.91,24.91,0,0,0,956.11,383Z" transform="translate(-617 -189)"/><path class="cls-159" d="M974,382.93l-2.66-.09c0-16.8-.1-33.61-.08-50.41a22.32,22.32,0,0,1,.77-4.14L973.9,332c0,4.77,0,9.54,0,14.31Q973.94,364.61,974,382.93Z" transform="translate(-617 -189)"/><path class="cls-160" d="M952.13,331c-.1,8.47-.26,16.94-.29,25.41,0,8.81.06,17.63.1,26.45L950,384l-7.29-.83,4.06-.41c1.39-2.65,3.89-5.28,4-8,.36-14.29.12-28.6.09-42.91l1.06-1.88C952,330.35,952.05,330.68,952.13,331Z" transform="translate(-617 -189)"/><path class="cls-161" d="M996,381.9c0-.3,0-.6-.07-.89V334.2h1c0,12.17.07,24.34,0,36.51C996.86,374.44,996.33,378.17,996,381.9Z" transform="translate(-617 -189)"/><path class="cls-162" d="M974,382.93q-.06-18.31-.1-36.64c0-4.77,0-9.54,0-14.31l6.06-1,.87,13v39.27Z" transform="translate(-617 -189)"/><path class="cls-163" d="M870,316.68l10.87,4.25c-4,.72-4,3.73-4,6.78v45.88l-8-2.6a15.07,15.07,0,0,1-.76-3.36c0-15-.07-29.92.1-44.87C868.22,320.72,869.35,318.71,870,316.68Z" transform="translate(-617 -189)"/><path class="cls-164" d="M893.72,324.86a2.76,2.76,0,0,1-.74-.28c-5.08.56-5.85,4.42-5.9,8.33-.17,12.28-.13,24.57-.06,36.86,0,3-.28,5.39-4.08,5.27-.72-1.54-2.06-3.07-2.07-4.6-.09-15.48,0-31,.09-46.44l4.93-2.95c2.44.72,4.89,1.39,7.28,2.22C893.5,323.39,893.55,324.31,893.72,324.86Z" transform="translate(-617 -189)"/><path class="cls-165" d="M870,316.68c-.61,2-1.74,4-1.77,6.08-.17,14.95-.14,29.91-.1,44.87a15.07,15.07,0,0,0,.76,3.36c-3.82-.44-5.1-2.48-5.05-6.37.19-16.4.08-32.79.08-49.9l6.11,1.33A.77.77,0,0,1,870,316.68Z" transform="translate(-617 -189)"/><path class="cls-166" d="M894.08,683.22l-3-1.83-.11-.47c3.49-1.91,3.64-4.72,2-7.9-2.76-5.51-6.77-6.73-13.09-4.07l-4.27.88-3.66.09c-1.38.56-3,.81-4.11,1.72-6,5.1-11.86,10.35-17.77,15.56-.3-.76-.59-1.52-.88-2.28.26-3.69.31-7.42.86-11.08.31-2.09,1.44-4.05,2.19-6.07,1.2.44,2.65,1.52,3.55,1.18,1.29-.49,3-2.06,3-3.11a5.09,5.09,0,0,0-2.67-3.81c-.92-.37-3,.87-3.84,2-.61.78-.07,2.47-.05,3.76a34.23,34.23,0,0,1-.27-25.69c2.66-.38,5.21-1.54,4.17-4.52-.47-1.35-3.38-1.86-5.18-2.75-.17-3.67-2.93-7.59,1-10.86l16,5.1c.43,4,.87,8.09,1.35,12.52l4.2-.64V630.79l12.19,3.77c4.48-1.79,9.68,2.24,15,1.54,10.22,1.42,20.4,3.63,30.67,4.07,13.82.6,27.7-.17,41.56-.35l29-1.76c9.16-1.26,18.33-2.43,27.45-3.89,1.25-.2,2.27-1.88,3.39-2.88V610.14h1v22c3.53-2.24,5.95-3.36,7.46,1.93.51,1.8,4.34,2.65,6.65,3.94l-5,2-2.72.12c-2.61-1-5.18-2.24-7.89-2.72-.49-.09-1.55,2.94-2.34,4.53l-1.87,3.14,0,17c-.06,8.89-.19,17.78-.1,26.67,0,1.14,1.18,2.26,1.8,3.39l4.17,1.87,3.37,2.91-5.58,1.26-4.7-1.25c-2-1.68-3.72-3.74-5.93-5-6.95-3.82-14.08-7.33-21.14-11l-14.24-7.73c-4-3.7-8.27-3.6-12.78-1.12-2.78-2.21-3.76.3-5.08,1.94l-.14-1.74-10,.84c3.47-1.41,7.07-2.57,10.38-4.28,4.68-2.42,2.84-7,2.6-10.69-.11-1.75-2.65-3.35-4.1-5-3.58-1.14-7.07-4.44-10.87-.47l-3.69.41-1.18-1.24-15.78-.72c-4.69-1.62-12.85,4.51-14.28,10.72a2.14,2.14,0,0,0-.84.38c-2.21,1.28-4.69,2.25-6.6,3.89C906.86,671.67,900.51,677.49,894.08,683.22Zm108-15.13,2.16-2c3.1-4.65,1.88-8.68-3.36-11.14l-7.68,3c-2.78,2.26-2.75,4.9-1,7.76.94.8,1.88,1.6,2.81,2.41Zm-121.86-4c5.42-3.26,6.74-6.53,5-12.35q-1.66-2.81-3.31-5.61c-7.13-4.87-13.57-3.84-17,2.74-.33,3.39-.65,6.78-1,10.18l3,3.9,6.14,2.89Zm29.53-20.84,2.59,1.88-7.52,5.66-.66-1.94,5.71,6.65,6.4-6.32Zm-12.11,22.94c1.78-2.87,3.6-4.52,3.36-5.78s-2.42-2.44-3.74-3.64c-1.1,1.21-3,2.41-3.06,3.63C894.16,661.84,895.81,663.32,897.62,666.18Zm123.46-15.11,1.58,1.55-4.54-4.33-5.21,4.31,5.21,4.71c-.57-.53-1.13-1.07-1.69-1.61Zm-36.54,1.15c-1.62-1.37-2.66-2.94-3.71-3a3.78,3.78,0,0,0-2.72,2.62,3.65,3.65,0,0,0,2.34,2.82C981.55,654.77,982.74,653.4,984.54,652.22Z" transform="translate(-617 -189)"/><path class="cls-167" d="M1032.85,631.29c-1.12,1-2.14,2.68-3.39,2.88-9.12,1.46-18.29,2.63-27.45,3.89,6.36-2.73,7.36-8,7-14.13-.31-5.28,0-10.59,0-15.88,3.77-.59,7.53-1.32,11.33-1.73,3.27-.37,3.33-1.94,2.1-4.47l-13.45,1c0-15.8.11-31.6-.09-47.39,0-3.48.77-5.64,4.31-6.33l12.75-2.92,1.09-.37h5.27c0,15.09,0,29.72,0,44.34,0,2.94.46,5.87.7,8.8l11.66-1.06,3,.28-2.64,3-12.15,4Z" transform="translate(-617 -189)"/><path class="cls-168" d="M982.78,692.11l3.33,7.75c-2.49,8.32-8.71,13.75-14.9,19.19l-9.34-9.76c-.29-.77-.57-1.53-.85-2.29,4.54-4.46,9.17-8.84,13.58-13.43,1.16-1.21,1.63-3.07,2.42-4.63Z" transform="translate(-617 -189)"/><path class="cls-169" d="M1037.39,696.83l-3.37-2.91c.33-1.61,1-3.24.9-4.81-.3-3.8.83-5.52,5-5.16s8.65.11,13,.13c0,5.58.21,11.17.08,16.74-.11,4.83-4.24,8.13-8.57,7.14l-.62-2.91Z" transform="translate(-617 -189)"/><path class="cls-170" d="M961.87,709.29l9.34,9.76a2.64,2.64,0,0,0-.17.67L958,728.05l-9.81-7.76c2.89-2.93,5.65-6,8.74-8.73C958.19,710.41,960.18,710,961.87,709.29Z" transform="translate(-617 -189)"/><path class="cls-171" d="M927.88,712.94l-8.57,4.91L918.08,712l12.22-11.94L942,688.46l1.1-.16q1.85,1.89,3.67,3.8l-1.86,2.75c-2.51,2.77-5,5.59-7.55,8.32C934.24,706.46,931,709.68,927.88,712.94Z" transform="translate(-617 -189)"/><path class="cls-172" d="M1045.87,718.1c-.22-2.67-.43-5.35-.65-8,.78,2.46,1.93,3.3,4.69,2.08,5.89-2.61,7.89-5.19,8-11.77.11-5.48.15-11,.22-16.44l5.83-1a1,1,0,0,0,0,.54q-.95,11.81-1.88,23.61c-2.43,5.34-7,7.65-12.39,8.91C1048.35,716.32,1047.15,717.38,1045.87,718.1Z" transform="translate(-617 -189)"/><path class="cls-173" d="M971,719.72a2.64,2.64,0,0,1,.17-.67c6.19-5.44,12.41-10.87,14.9-19.19,4.28,8.94,0,21.37-9.06,26.22Z" transform="translate(-617 -189)"/><path class="cls-174" d="M1049.92,637.88c9.59-4.2,14.67-1,15.27,9.75.18,3.15.07,6.31.1,9.46L1064,658l-6.09-.38a97.21,97.21,0,0,0-.07-9.81C1057.35,643,1055.1,639.19,1049.92,637.88Z" transform="translate(-617 -189)"/><path class="cls-175" d="M1058.14,684c-.07,5.48-.11,11-.22,16.44-.12,6.58-2.12,9.16-8,11.77-2.76,1.22-3.91.38-4.69-2.08l-.83-2.12c4.33,1,8.46-2.31,8.57-7.14.13-5.57,0-11.16-.08-16.74a1.12,1.12,0,0,0,.11-.54l4.89-.16A1.64,1.64,0,0,0,1058.14,684Z" transform="translate(-617 -189)"/><path class="cls-176" d="M891.94,737l3.06,0h69.32c19,0,38.09,0,57.13,0,2.51,0,5,.4,7.53.62-2.31.16-4.62.45-6.94.45q-61.95,0-123.89-.11A40.42,40.42,0,0,1,891.94,737Z" transform="translate(-617 -189)"/><path class="cls-177" d="M1074.14,527.19l2.69-1.27,1.09,0c0,.35,0,.7,0,1l-4,5c-3.9,1.68-7.89,3.18-11.68,5.09-7.74,3.91-16.07,2.54-24.2,3l-.26-.32A72.45,72.45,0,0,0,1045,538c9.71-3.53,19.38-7.18,29.07-10.79Z" transform="translate(-617 -189)"/><path class="cls-177" d="M1033,599c-.24-2.93-.68-5.86-.7-8.8-.07-14.62,0-29.25,0-44.34H1027c-.06-1.29-.12-2.59-.17-3.89l6.38-1.8,4.64-.33.26.32-3.32,3.09,11.86-2.16.23.86c-3,.7-5.88,1.78-8.88,2-3.82.29-5.08,1.89-5,5.67C1033.11,566,1033,582.5,1033,599Z" transform="translate(-617 -189)"/><path class="cls-178" d="M1049.92,637.88c5.18,1.31,7.43,5.08,7.93,10a97.21,97.21,0,0,1,.07,9.81,2.38,2.38,0,0,0-.39.45l-4.59-.49a2.32,2.32,0,0,0-.07-.69c.05-2.16.14-4.32.14-6.48,0-8.5-1.71-10.3-10.06-10.49l5-2Z" transform="translate(-617 -189)"/><path class="cls-179" d="M1045,601.12l2.64-3-3-.28,24.68-7c-.78,1.74-1,3.82-2,4.2C1060.16,597.94,1053.3,602.32,1045,601.12Z" transform="translate(-617 -189)"/><path class="cls-180" d="M1036.15,722.22a17.34,17.34,0,0,1-20.7,6.85c-3.66-1.41-7.06-3.5-10.58-5.28.77-1.24,1.53-2.49,2.29-3.73,8.25,8.07,18.86,10.55,25.89,2Z" transform="translate(-617 -189)"/><path class="cls-181" d="M961.87,709.29c-1.69.73-3.68,1.12-5,2.27-3.09,2.71-5.85,5.8-8.74,8.73L944.92,715c0-.67,0-1.35,0-2,7.08,2.91,7.89-4.59,13.08-7l-10.2-9c.11-.65.21-1.3.31-2a7.16,7.16,0,0,1,.8-.19l8,7.14c1.77,1.32-1.25,6.52,4,5C961.3,707.76,961.58,708.52,961.87,709.29Z" transform="translate(-617 -189)"/><path class="cls-182" d="M971,719.72l6,6.36c-6.07,3.54-12.32,5.27-19.1,2Z" transform="translate(-617 -189)"/><path class="cls-183" d="M998,719.09c-5.33-.21-6.83-3-6.57-7.83.25-4.61-1.46-9.34-2.32-14q-.48-2.64-1-5.26l1,.27c1,4.09,1.88,8.2,3,12.26.89,3.29,1.28,7.09,5.91,7.48.39.61.78,1.22,1.18,1.83Z" transform="translate(-617 -189)"/><path class="cls-184" d="M945,713c0,.68,0,1.36,0,2-1.07-4.56-2.15-9.12-3.1-13.16l-13.94,11.1c3.16-3.26,6.36-6.48,9.48-9.77,2.57-2.73,5-5.55,7.55-8.32l3.24.2c-.1.65-.2,1.3-.31,2C944.06,701.81,943.61,707.23,945,713Z" transform="translate(-617 -189)"/><path class="cls-185" d="M918.08,712l1.23,5.82-3.93,3.22-6.32,3c-.22-1-.95-2.26-.57-2.87a69.53,69.53,0,0,1,4.56-6.06l3.8-3.35Z" transform="translate(-617 -189)"/><path class="cls-186" d="M1037.39,696.83l6.38,8.22-1.11,3.83-3.72-.75a4.11,4.11,0,0,0-.76-.37l-6.37-9.67Z" transform="translate(-617 -189)"/><path class="cls-187" d="M1064,658l1.28-.95c.2,13.36.42,26.71.57,40.07a36.35,36.35,0,0,1-.6,4.84c-.07-2.15-.07-4.31-.23-6.47-.3-4-.68-8-1-12a1,1,0,0,1,0-.54Q1064,670.49,1064,658Z" transform="translate(-617 -189)"/><path class="cls-188" d="M998,719.09l1.23-5.26,8.58,4.22c-.21.67-.43,1.34-.64,2-.76,1.24-1.52,2.49-2.29,3.73Z" transform="translate(-617 -189)"/><path class="cls-189" d="M989.16,692.26l-1-.27-2-1-11-7.1a6.48,6.48,0,0,0-.26-.78c7.76-.18,15.21,3.82,17.13,9.2Z" transform="translate(-617 -189)"/><path class="cls-90" d="M1074,532l4-5,0,48a30.2,30.2,0,0,1-1-5.18c-.08-11.14,0-22.27,0-33.4C1077,534.27,1077.46,531.79,1074,532Z" transform="translate(-617 -189)"/><path class="cls-190" d="M902,730c-5.8.58-11.21-.48-15.7-4.35-1.36-1.19-2.11-3.08-3.15-4.65l3.85,2,7,4.06L904,729Z" transform="translate(-617 -189)"/><path class="cls-191" d="M904,729l-10-1.93c5.2-.14,10.6.73,15.08-3l6.32-3C914,727.16,908.69,727.64,904,729Z" transform="translate(-617 -189)"/><path class="cls-192" d="M975.07,683.85l11,7.1-3.33,1.16L977,688.94q-2.67-1.38-5.32-2.78Z" transform="translate(-617 -189)"/><path class="cls-193" d="M1038.18,707.76a4.11,4.11,0,0,1,.76.37l-2.79,14.09-3.1-.14c.68-2.35,1.37-4.7,2-7a5.46,5.46,0,0,1,0-1,26.11,26.11,0,0,1,1-4.53C1036.38,708.77,1037.46,708.34,1038.18,707.76Z" transform="translate(-617 -189)"/><path class="cls-194" d="M1045.87,718.1c1.28-.72,2.48-1.78,3.86-2.1,5.41-1.26,10-3.57,12.39-8.91.3.66.6,1.32.91,2C1059.24,715.75,1053.49,718.71,1045.87,718.1Z" transform="translate(-617 -189)"/><path class="cls-195" d="M1063,709.07c-.31-.66-.61-1.32-.91-2q.95-11.8,1.88-23.61c.35,4,.73,8,1,12,.16,2.16.16,4.32.23,6.47C1064.51,704.36,1063.77,706.71,1063,709.07Z" transform="translate(-617 -189)"/><path class="cls-112" d="M1077.92,526l-1.09,0L1077,498c.33,3.21.86,6.42.93,9.63C1078.08,513.72,1077.94,519.84,1077.92,526Z" transform="translate(-617 -189)"/><path class="cls-196" d="M921.76,426.12l-8.35-.33L901,423v-7c0-.67,0-1.33,0-2l25.46,10.31-.22,1.26Z" transform="translate(-617 -189)"/><path class="cls-197" d="M901,414c0,.66,0,1.32,0,2l-10-6.55V419.9c-.33-4.49-.65-9-1-14.19l7,1.46c1.48,1,2.85,2.41,4.48,2.8,5.14,1.22,10.37,2,15.57,3-4.06-.4-8.26,2.49-12.3-.69C904.23,411.91,902.28,413.39,901,414Z" transform="translate(-617 -189)"/><path class="cls-198" d="M891,419.9V409.44L901,416c0,2.34,0,4.69,0,7Z" transform="translate(-617 -189)"/><path class="cls-199" d="M882.94,375c3.8.12,4.1-2.29,4.08-5.27-.07-12.29-.11-24.58.06-36.86,0-3.91.82-7.77,5.9-8.33l-1.1,1.23a50.48,50.48,0,0,0-.94,6.75c-.13,14.77-.14,29.54-.19,44.31l-3.52,0Z" transform="translate(-617 -189)"/><path class="cls-200" d="M935.9,332v50.57l-4.8,1.17-3.31-1.55c.74-1.6,2.1-3.19,2.12-4.79.17-13.11.09-26.22.09-39.33v-5.73Z" transform="translate(-617 -189)"/><path class="cls-201" d="M900,378.88c0-.27,0-.54-.06-.81.32-.72.93-1.45.92-2.16-.24-10.88-.39-21.76-.92-32.62-.34-7,.06-13.52,6-18.32h1.8c-.64,2.9-1.72,5.58-1.75,8.28C905.89,348.64,906,364,906,380Z" transform="translate(-617 -189)"/><path class="cls-202" d="M906,325c-6,4.8-6.38,11.33-6,18.32.53,10.86.68,21.74.92,32.62,0,.71-.6,1.44-.92,2.16-2.8.23-4.26-.66-4.12-3.86a61.87,61.87,0,0,0-.69-8.23l-.21-36c.06-1.65.12-3.3.17-4.95Z" transform="translate(-617 -189)"/><path class="cls-203" d="M911.07,328.21c3.25-3.34,6.93-3.67,10.56-.86.13.1-.41,1.07-.64,1.64l-3.92,2c-1,1.12-2.91,2.21-2.93,3.34-.18,8.59,0,17.19.09,25.78.07,6.18.29,12.36.22,18.54,0,.5-1.71,1-2.62,1.47l.08,0a34.18,34.18,0,0,1-.86-5.33C911,359.32,911.05,343.76,911.07,328.21Z" transform="translate(-617 -189)"/><path class="cls-204" d="M917.07,331l3.92-2q.06,17,.1,34,0,9,0,18l-4.1,0Z" transform="translate(-617 -189)"/><path class="cls-205" d="M917.07,331,917,381l-5.12-.87c.91-.49,2.62-1,2.62-1.47.07-6.18-.15-12.36-.22-18.54-.11-8.59-.27-17.19-.09-25.78C914.16,333.24,916.05,332.15,917.07,331Z" transform="translate(-617 -189)"/><path class="cls-206" d="M925.23,329.08q0,26.4.07,52.79c-.7-1-2-1.92-2-2.88q.18-22.2.72-44.39C924.05,332.75,924.81,330.92,925.23,329.08Z" transform="translate(-617 -189)"/><path class="cls-205" d="M911.07,328.21c0,15.55-.07,31.11,0,46.67a34.18,34.18,0,0,0,.86,5.33c-.65-.93-1.87-1.85-1.87-2.78-.1-15.53-.07-31.06,0-46.59A8.12,8.12,0,0,1,911.07,328.21Z" transform="translate(-617 -189)"/><path class="cls-206" d="M921.05,381q0-9,0-18c.62.65,1.82,1.36,1.77,1.95C922.38,370.31,921.69,375.65,921.05,381Z" transform="translate(-617 -189)"/><path class="cls-207" d="M890.75,376.87c0-14.77.06-29.54.19-44.31a50.48,50.48,0,0,1,.94-6.75c0,15.69.1,31.39,0,47.08C891.92,374.22,891.16,375.55,890.75,376.87Z" transform="translate(-617 -189)"/><path class="cls-207" d="M894.94,330l.21,36-.33,8a18.51,18.51,0,0,1-.8-3.74q-.09-18.06,0-36.11A20.25,20.25,0,0,1,894.94,330Z" transform="translate(-617 -189)"/><path class="cls-208" d="M973,639.82c-13.86.18-27.74.95-41.56.35-10.27-.44-20.45-2.65-30.67-4.07,8.26-.39,8.26-.39,8.26-8.9,0-5.48.14-11-.06-16.45-.11-3.12.37-5.33,4.72-5.19-5.89-1.2-4.66-5.38-4.65-8.94,0-14.28.16-28.57.12-42.85,0-1.14-1-2.27-1.62-3.54L912,548c20.59.64,41.17,1.46,61.77,1.83,9,.16,17.93-.62,26.9-1l2.28.32,0,.74L981,552H952.11l-.06.59,6.08,1.22c-1.93,2.81-3.35,5-4.87,7-1,1.41-2.19,2.72-3.29,4.07l-2.85,1.33v18.92h-18v23.53H947.4v19.1h22.19l2.17-3.95c3,2.39,3,3,.06,5.22-4.26,3.21-8.61,6.29-13,9.5Z" transform="translate(-617 -189)"/><path class="cls-209" d="M876.93,483.88c-.29,7.86-.72,15.72-.84,23.58-.15,9.25,0,18.49,0,28.11l-5.29.53-2.7-.87q0-13.14,0-26.28c0-.93,0-1.86,0-2.79q.48-9.54,1-19.07c-.32-3-.9-6-.92-9.06-.14-19.22,9.87-31.79,26.12-39.53,5.93-2.82,12.11-5.13,18.42-4.39.58,1.57,1,2.73,1.42,3.89l-5,2c.55-4-2-1.43-2.82-1.1C892.1,444.22,873.11,460.31,876.93,483.88Z" transform="translate(-617 -189)"/><path class="cls-210" d="M909,440l5-2c3.1-.33,6.23-1.09,9.27-.83,1.62.14,3.08,2.05,4.61,3.16-1.13,1.13-2.08,2.66-3.44,3.32-6.75,3.24-13.61,6.26-20.44,9.35-9.4,5.73-14.7,14.09-16,25,0,.67,0,1.33,0,2l-1,3c-.32,2.72-1,5.46-.91,8.17.18,6.56,1.11,13.11,1,19.65-.18,8.93-1.06,17.84-1.65,26.77l-1.3.74c-1-1.65-2.87-3.29-2.89-4.95-.1-9,.4-18,.4-27,0-7.43-.38-14.87-.6-22.31-2.59-10.61-1-20.3,6.26-28.76A54.73,54.73,0,0,1,909,440Z" transform="translate(-617 -189)"/><path class="cls-211" d="M869,487.09q-.48,9.54-1,19.07c-3.38.38-4.39-1.44-4.08-4.44a53.59,53.59,0,0,1,.68-5.37c.63-3.05-.51-4.44-3.6-4.27l5.87-.7c.91-5.1-3.6-2.79-6-3.45Z" transform="translate(-617 -189)"/><path class="cls-212" d="M849.13,623.05q-.06-14-.14-28.06a21.19,21.19,0,0,1,1,4.39c.15,7.83.14,15.66.18,23.49Z" transform="translate(-617 -189)"/><path class="cls-213" d="M849.13,623.05l1.08-.18,1.82,1.06c-4,3.27-1.21,7.19-1,10.86q-.36,3.54-.7,7.08l-1.16.13Z" transform="translate(-617 -189)"/><path class="cls-214" d="M973,639.82l-14.18-1.26c4.42-3.21,8.77-6.29,13-9.5,3-2.26,2.9-2.83-.06-5.22l-2.17,3.95V608.57h18.94V585H970V566.24H947.12l2.85-1.33c5.66,0,11.32.17,17,0,2.95-.07,4.27.85,4.11,4a78.39,78.39,0,0,0,.09,11.47c.13,1.27,1.71,3.34,2.77,3.43,4.41.39,8.89.16,13.48.16-.14-2.65-.82-4.94-.25-6.84,2.48-8.29-.4-14.75-5.95-20.7-.77-.82-.16-2.92-.19-4.44l21.92-2.06,0-.74-2.28-.32,5.38-.72,7.13.94c-3.54.69-4.35,2.85-4.31,6.33.2,15.79.09,31.59.09,47.39l-4.92.73c.08,1.62.15,3,.22,4.5H1009c0,5.29-.28,10.6,0,15.88.37,6.17-.63,11.4-7,14.13Z" transform="translate(-617 -189)"/><path class="cls-215" d="M885.41,539.4c.8-1.72,2.24-3.4,2.31-5.14.27-6.79.11-13.6.11-21.07l9.39,1.71c-2.16.68-6.1-1.33-6.12,3.4a12,12,0,0,0,1.59.5c3.3.24,6.65.91,9.89.59,6.78-.66,3.35,4.9,4.87,7.41.51.84.78,2.15,1.52,2.5,5.77,2.75,5,6.68,2.27,11.1-.11.18.17.6.28,1L919,543l-8.21.11-25.58-3.19A.4.4,0,0,1,885.41,539.4Z" transform="translate(-617 -189)"/><path class="cls-216" d="M850,529.28c-.51-.64-1.43-1.27-1.45-1.93-.25-8.77-.37-17.55-.51-26.33,1.06.73,2,1.87,3.2,2.13,8,1.74,9.55,7.17,8.55,14.28a26.13,26.13,0,0,0,0,5.93c.3,3.21.81,6.39,1.24,9.58l-.24.15Z" transform="translate(-617 -189)"/><path class="cls-217" d="M885.21,539.9l25.58,3.18a6.78,6.78,0,0,0,1.86.62q28.67,1.14,57.32,2.2h20.84l5.2.17c-4.35.65-8.69,1.78-13,1.85-14.27.23-28.57.56-42.82-.07-11.66-.51-23.28-2.22-34.89-3.64-7-.86-14-2.19-21-3.33-.09,0-.15-.19-.22-.29Z" transform="translate(-617 -189)"/><path class="cls-218" d="M868,509q0,13.14,0,26.28l-7.32-2.13.24-.16c3.18.64,3-1.58,3-3.58,0-7,0-14,0-21.05Z" transform="translate(-617 -189)"/><path class="cls-219" d="M876.24,537.37c.21-5.78.45-11.55.62-17.33.07-2.78,0-5.57,0-8.36l1.78-.47c.47,1.48,1.31,3,1.34,4.46.18,7.48.15,15,.2,22.46Z" transform="translate(-617 -189)"/><path class="cls-177" d="M996,546.06l-5.2-.17c2.09-.3,4.17-.67,6.26-.9,5.69-.63,11.38-1.21,17.08-1.81L1026,542c-2.81,1-5.57,2.54-8.45,2.83C1010.41,545.57,1003.2,545.7,996,546.06Z" transform="translate(-617 -189)"/><path class="cls-220" d="M1026,542l-11.86,1.15-4.74-.33,3.64-1.82,8-1.09,8-.86,4.21,1-6.38,1.8-.43-.06Z" transform="translate(-617 -189)"/><path class="cls-208" d="M1013.17,549.1l-7.13-.94,19.88-2Z" transform="translate(-617 -189)"/><path class="cls-221" d="M872,669.92l3.67-.09c4.61-.32,7.69,1.82,9.72,5.88,1.77,3.54-.49,5.83-2.31,8.3-1.44,1.57-2.8,3.21-4.32,4.68-4,3.82-8,7.56-12,11.34l-1.75-.18-5.9-4.8-4-1.86L875.9,672Z" transform="translate(-617 -189)"/><path class="cls-222" d="M859.13,695.05l5.9,4.8c-2.82,3-5.79,5.95-8.39,9.15-1,1.19-1.11,3.06-1.62,4.62l-2.07-.89c-.22-1.46-.35-3-.69-4.39-.93-3.94-1.54-7.5,3.68-9.19C857.3,698.71,858.08,696.47,859.13,695.05Z" transform="translate(-617 -189)"/><path class="cls-223" d="M843,528.65c0-7.6,0-15.2.14-22.8a35.73,35.73,0,0,1,.73-4.77l.33,28Z" transform="translate(-617 -189)"/><path class="cls-224" d="M868,509l-4-.64c0,7.1,0,14.07,0,21.05,0,2,.16,4.22-3,3.58-.43-3.19-.94-6.37-1.24-9.58a26.13,26.13,0,0,1,0-5.93c1-7.11-.54-12.54-8.55-14.28-1.17-.26-2.14-1.4-3.2-2.13,0-.36,0-.73,0-1.09l11.85,3.22c-.23-2.33.27-4.8-.74-6.09-2.53-3.24-.23-3.93,1.92-5,3.09-.17,4.23,1.22,3.6,4.27a53.59,53.59,0,0,0-.68,5.37c-.31,3,.7,4.82,4.08,4.44C868,507.09,868,508,868,509Z" transform="translate(-617 -189)"/><path class="cls-225" d="M849.13,642l1.16-.13,1.71.19a34.23,34.23,0,0,0,.27,25.69v0c-.75,2-1.88,4-2.19,6.07-.55,3.66-.6,7.39-.86,11.08Z" transform="translate(-617 -189)"/><path class="cls-226" d="M881.13,718c-5-9.71-3.69-18.18,4.15-26.09,2.08-2.1,4.4-4,6.61-5.94.75,1,1.44,2.06,2.26,3s2,2,2.93,3l1,.92c-2.85,4-5.47,8.24-8.6,12s-3.42,6.92-.26,10.71c1,1.23,2.16,2.38,3.68,4L889,720Z" transform="translate(-617 -189)"/><path class="cls-227" d="M897.09,692c-1-1-2-2-2.94-3s-1.51-2-2.26-3l2.19-2.72c6.43-5.73,12.78-11.55,19.33-17.13,1.91-1.64,4.39-2.61,6.6-3.89l6.11,5L923,669c-2.45-2.44-4.57-2.29-6.87.41s-4.82,4.9-7.25,7.32c-3.91,3.52-7.7,7.18-11.77,10.49C894.85,689.06,895.6,690.38,897.09,692Z" transform="translate(-617 -189)"/><path class="cls-228" d="M881.13,718,889,720a33.07,33.07,0,0,0,5.52.22c8.16-1,12.84-7.46,18.55-12.27l1.94,1,1.88,2.83-3.8,3.35c-7.26,7.34-15.92,10-26,7.88l-3.85-2Z" transform="translate(-617 -189)"/><path class="cls-229" d="M866.78,700c4-3.78,8-7.52,12-11.34,1.52-1.47,2.88-3.11,4.32-4.68,3.86-.55,5.69-3.24,4.76-6.58-.83-3-3.16-5.63-4.82-8.42,5.59,1.19,7,3.28,8,11.91l.11.47-13,12.63-8.06,9.66Z" transform="translate(-617 -189)"/><path class="cls-230" d="M866.78,700c1.09,1.22,2.18,2.43,3.27,3.66.09.38.19.77.28,1.16L858,715.13l-3-1.51c.51-1.56.65-3.43,1.62-4.62,2.6-3.2,5.57-6.12,8.39-9.15Z" transform="translate(-617 -189)"/><path class="cls-231" d="M858,715.13l12.36-10.28,2.55,0C874.35,712.81,866.89,717.92,858,715.13Z" transform="translate(-617 -189)"/><path class="cls-232" d="M876.06,729.49,870,728l2.83-.83c-2.87-2.62-8.62-1.6-7.78-7.18C873.05,719.31,876.31,722.1,876.06,729.49Z" transform="translate(-617 -189)"/><path class="cls-233" d="M872.88,704.9l-2.55,0c-.09-.39-.19-.78-.28-1.16l8.07-9.67Z" transform="translate(-617 -189)"/><path class="cls-234" d="M917,481.17l9.94-.23c3.05,0,6.1.07,9.15.07,17.26,0,34.52,0,51.77,0A29.51,29.51,0,0,1,993,482c-7.4.62-14.79,1.49-22.2,1.75-3.82.14-7.67-1.16-11.51-1.19-7-.05-14.07.36-21.1.58,0,.88,0,1.75,0,2.63H959.4l0,1.56L954.8,489c2.3,4.05-.87,9.77,4.94,12.16L958,503c-.47-.75-.84-2.07-1.42-2.16-5.59-.91-7.72-4.75-8.73-9.72a14.38,14.38,0,0,0-1.63-3c-.56,1.29-1.11,2-1.13,2.69-.18,5.86-2.7,9.47-8.91,10.13-1.44.15-2.77,1.38-4.15,2.1h-2c-4.69-5.3-2.37-10.89-.13-16.73L911,483Z" transform="translate(-617 -189)"/><path class="cls-235" d="M917,481.17,911,483l-11,1-11,1.36c0,6.23-.44,12,.15,17.74.41,4,2.17,6.72,7.83,6.49,7.62-.31,15.32,1.48,23,2.37l24.06,1.34v-7.49l2.9,2.45,2.95-3.51q0,4.1.08,8.19l-18.21,1.11c-13.5-1.16-27-2.23-40.49-3.63-1.27-.13-3.28-2.31-3.31-3.58-.24-7.93,0-15.88.06-23.82Z" transform="translate(-617 -189)"/><path class="cls-236" d="M993,482a29.51,29.51,0,0,0-5.19-.94c-17.25-.07-34.51,0-51.77,0-3,0-6.1,0-9.15-.07,7.52-.55,15.06-1.74,22.56-1.55,22.87.56,45.72,1.55,68.57,2.59,8.27.38,16.51,1.4,24.76,2.12l6.23,1.74c0,.39,0,.79-.08,1.19L1033,485a6.85,6.85,0,0,0-2.17-.94C1018.23,483.32,1005.62,482.66,993,482Z" transform="translate(-617 -189)"/><path class="cls-133" d="M888,480c0-.67,0-1.33,0-2h11.3v2Z" transform="translate(-617 -189)"/><path class="cls-237" d="M1021,539.94l-8,1.09c-3.85.4-5.38-1.33-5.09-5.17.21-2.94,0-5.91,0-8.86.33-3,.65-6,1-9,2.62-.34,5.26-.53,7.84-1,6.4-1.3,12.77-2.75,19.14-4.13l25.7-6c1.41,2.34,2.34,5.24,4.31,6.89,3.91,3.26,4.63,6.63,1.4,10.49-1.25,1.5-2.26,3.2-3.38,4.8l-18.82,6.1c-2.31-.65-4.93-2.33-6.88-1.75C1032.39,535.06,1026.75,537.67,1021,539.94Zm-.52-8.88c-.62-3.22-.58-6.81-2.11-9.51-.89-1.57-4.28-2.13-6.6-2.27-.85,0-2.51,2.37-2.64,3.77-.37,4-.15,8-.13,12,0,2.48.61,3.82,3.76,3.78C1020,538.68,1020,538.93,1020.49,531.06Z" transform="translate(-617 -189)"/><path class="cls-238" d="M919,543l-7.48-1.61c-.11-.37-.39-.79-.28-1,2.71-4.42,3.5-8.35-2.27-11.1-.74-.35-1-1.66-1.52-2.5-1.52-2.51,1.91-8.07-4.87-7.41-3.24.32-6.59-.35-9.89-.59a12,12,0,0,1-1.59-.5c0-4.73,4-2.72,6.12-3.4l4.83,1.24c4.2.62,8.37,1.51,12.59,1.81,11.52.82,23.07,1.3,34.58,2.17,1.45.11,4.09,2.09,4,2.52-1.14,3.64-1.09,8.11-5.52,9.93-3.06,1.25-6,3-9.21,3.61-4.59.83-7,3.22-7.3,7.65Z" transform="translate(-617 -189)"/><path class="cls-239" d="M919,543l12.15.85c.33-4.43,2.71-6.82,7.3-7.65,3.18-.58,6.15-2.36,9.21-3.61,4.43-1.82,4.38-6.29,5.52-9.93.13-.43-2.51-2.41-4-2.52-11.51-.87-23.06-1.35-34.58-2.17-4.22-.3-8.39-1.19-12.59-1.81,6.89.3,13.77.67,20.65.89,14.54.45,29.08.83,43.63,1.24l4.46.14q.11,12.8.22,25.59l-1,1.9q-28.65-1.08-57.32-2.2a6.78,6.78,0,0,1-1.86-.62Z" transform="translate(-617 -189)"/><path class="cls-240" d="M971,544q-.1-12.79-.22-25.59l37-2.06-2.36,1.67H1009c-.33,3-.65,6-1,9-.63,1.77-1.25,3.54-1.46,4.14-4.2.43-8.21-.24-10.83,1.36-4.79,2.94,1.64,6.52.54,10.32-3.09,0-6.21-.14-9.3,0C981.63,543.13,976.32,543.61,971,544Z" transform="translate(-617 -189)"/><path class="cls-241" d="M1048.94,487c0-.4.06-.8.08-1.19l1,.21,15.17,10.69,4.72-4.38c4.53,1.87,3.6,4.88.37,6.34-6.57,3-13.55,5-20.35,7.45-.35-.36-.71-.72-1.06-1.09Z" transform="translate(-617 -189)"/><path class="cls-242" d="M1064,529c1.12-1.6,2.13-3.3,3.38-4.8,3.23-3.86,2.51-7.23-1.4-10.49-2-1.65-2.9-4.55-4.31-6.89l12.29-5.86-.09.25c-.12,2.6-.28,5.2-.36,7.8-.19,5.41-.33,10.81-.49,16.22Z" transform="translate(-617 -189)"/><path class="cls-243" d="M1048.88,505.06c.35.37.71.73,1.06,1.09-13.21,2.24-26.35,5.63-39.65,6.44-24.66,1.52-49.42,1.55-74.14,2.14a25.24,25.24,0,0,1-4.36-.65L950,513l6,1c8.49,0,17,.25,25.46-.06,5.53-.21,11-1.24,16.56-1.9,2.11-.2,4.22-.37,6.33-.62q14.34-1.69,28.67-3.42Z" transform="translate(-617 -189)"/><path class="cls-133" d="M909,440a54.73,54.73,0,0,0-21.74,15.24C880,463.7,878.41,473.39,881,484l-1.21.14-2.6.13-.26-.39c-3.82-23.57,15.17-39.66,29.25-45C907.05,438.57,909.55,436,909,440Z" transform="translate(-617 -189)"/><path class="cls-244" d="M1069.92,492.36l-4.72,4.38L1050,486.05Z" transform="translate(-617 -189)"/><path class="cls-245" d="M877.19,484.27l2.6-.13V508l-2.6,0Z" transform="translate(-617 -189)"/><path class="cls-246" d="M1009,518h-3.52l2.36-1.67,28.14-3.51c-6.37,1.38-12.74,2.83-19.14,4.13C1014.24,517.49,1011.6,517.68,1009,518Z" transform="translate(-617 -189)"/><path class="cls-247" d="M1073,525.21c.16-5.41.3-10.81.49-16.22.08-2.6.24-5.2.36-7.8.7.71,2,1.41,2,2.13.15,6.62.18,13.24,0,19.85,0,1.35-1.12,2.68-1.72,4h0Z" transform="translate(-617 -189)"/><path class="cls-248" d="M950.82,331.9c0,14.31.27,28.62-.09,42.91-.07,2.69-2.57,5.32-4,8-.58-1.78-1.66-3.56-1.68-5.35-.15-13.1.14-26.21-.2-39.31C944.77,333.41,946,331.28,950.82,331.9Z" transform="translate(-617 -189)"/><path class="cls-249" d="M923,669l3.1-1.79-6.11-5a2.14,2.14,0,0,1,.84-.38c6-1.85,10.51-5.82,14.28-10.72l15.78.72c-5.79,5.3-5.7,12.3.25,18.9l-13,13.31Z" transform="translate(-617 -189)"/><path class="cls-250" d="M1043,640c8.35.19,10.09,2,10.06,10.49,0,2.16-.09,4.32-.14,6.48-8.63-.25-18.23-5.17-24.72,5.06l0-17,10.87-4,1.23-.92Z" transform="translate(-617 -189)"/><path class="cls-251" d="M946.77,692.1q-1.83-1.9-3.67-3.8c3.94-3.89,7.95-7.71,11.76-11.71.78-.82.83-2.34,1.22-3.53l1.69.05,10-.84c0,.2.08,1,.14,1.74-.51,6.11-4.15,8.23-9.86,9.83C953.87,685,950.51,689.24,946.77,692.1Z" transform="translate(-617 -189)"/><path class="cls-252" d="M955.78,652.65c3.8-4,7.29-.67,10.88.47a15.38,15.38,0,0,1,1.67,3c1.1,3.74,1.75,7.51-1.55,10.62-5,4.69-7.69,5.22-12.67,2.53,2.54-3.18,5.35-6.2,7.46-9.64.59-1-.49-3.52-1.51-4.77S957.25,653.37,955.78,652.65Z" transform="translate(-617 -189)"/><path class="cls-253" d="M1028.15,662c6.49-10.23,16.09-5.31,24.72-5.06a2,2,0,0,1,.06.69c0,.18,0,.35,0,.53l-18.82,0c-.63.37-1.83.76-1.82,1.12.16,8.23.45,16.46.72,24.69-.7,2.84,2,7-3.14,8.11-.62-1.13-1.78-2.25-1.8-3.39C1028,679.77,1028.09,670.88,1028.15,662Z" transform="translate(-617 -189)"/><path class="cls-254" d="M864.87,648.86c3.43-6.58,9.87-7.61,17-2.74q-3.48,4.27-7,8.56L872,656.06l-5.16,6.88-3-3.9,7-6Z" transform="translate(-617 -189)"/><path class="cls-255" d="M946.77,692.1c3.74-2.86,7.1-7.08,11.31-8.26,5.71-1.6,9.35-3.72,9.86-9.83,1.32-1.64,2.3-4.15,5.08-1.94-.58,1-1.16,2-1.75,3-.82,2.29-1.63,4.57-2.76,7.72l5.37-.67.93.94a6.48,6.48,0,0,1,.26.78l-3.37,2.31c-7.35-.79-14.4-.53-19.87,5.49L949,694.86a7.16,7.16,0,0,0-.8.19l-3.24-.2Z" transform="translate(-617 -189)"/><path class="cls-256" d="M955.78,652.65c1.47.72,3.35,1.1,4.28,2.25s2.1,3.79,1.51,4.77c-2.11,3.44-4.92,6.46-7.46,9.64-6-5.2-6.41-8.48-2-16.25Z" transform="translate(-617 -189)"/><path class="cls-257" d="M1000,680.92c7.06,3.63,14.19,7.14,21.14,11,2.21,1.22,4,3.28,5.93,5a3.08,3.08,0,0,1-.32.48l-4.78,1.47-1.1.1q-11-7-22.1-14a3.57,3.57,0,0,0,0-.8Z" transform="translate(-617 -189)"/><path class="cls-258" d="M952.09,653.06c-4.39,7.77-4,11.05,2,16.25,5,2.69,7.71,2.16,12.67-2.53,3.3-3.11,2.65-6.88,1.55-10.62a15.38,15.38,0,0,0-1.67-3c1.44,1.67,4,3.27,4.09,5,.24,3.65,2.08,8.27-2.6,10.69-3.31,1.71-6.91,2.87-10.38,4.28l-1.7-.05-4.91-2.34c-5.95-6.6-6-13.6-.25-18.9Z" transform="translate(-617 -189)"/><path class="cls-259" d="M1000,680.92,998.81,684c-1.45-.69-2.93-1.33-4.36-2.07-4.47-2.29-8.92-4.61-13.38-6.92l4.73-1.86Z" transform="translate(-617 -189)"/><path class="cls-260" d="M874.9,654.67l7-8.55q1.65,2.8,3.31,5.61l-3.11,4.42-2,3Z" transform="translate(-617 -189)"/><path class="cls-261" d="M909.73,643.24l6.52,5.93-6.4,6.32-5.71-6.65.66,1.94,7.52-5.66Z" transform="translate(-617 -189)"/><path class="cls-262" d="M935.13,651.1c-3.77,4.9-8.23,8.87-14.28,10.72C922.28,655.61,930.44,649.48,935.13,651.1Z" transform="translate(-617 -189)"/><path class="cls-263" d="M985.8,673.19l-4.73,1.86-2.14.92-7.66-.89c.59-1,1.17-2,1.75-3C977.53,669.59,981.83,669.49,985.8,673.19Z" transform="translate(-617 -189)"/><path class="cls-264" d="M891,680.92c-1-8.63-2.37-10.72-8-11.91l-3.09-.06c6.32-2.66,10.33-1.44,13.09,4.07C894.6,676.2,894.45,679,891,680.92Z" transform="translate(-617 -189)"/><path class="cls-265" d="M1038.18,707.76c-.72.58-1.8,1-2.1,1.76a26.11,26.11,0,0,0-1,4.53c.68-6.32-1-11.51-7-14.68-.62-.33-.88-1.35-1.31-2a3.08,3.08,0,0,0,.32-.48l4.7,1.25Z" transform="translate(-617 -189)"/><path class="cls-266" d="M1000.86,655c5.24,2.46,6.46,6.49,3.36,11.14l-6.37-4.21a6.8,6.8,0,0,1,.22-.89C1000.55,659.74,1002.72,658.3,1000.86,655Z" transform="translate(-617 -189)"/><path class="cls-267" d="M852.27,667.75c0-1.29-.56-3,.05-3.76.85-1.09,2.92-2.33,3.84-2a5.09,5.09,0,0,1,2.67,3.81c0,1-1.72,2.62-3,3.11-.9.34-2.35-.74-3.55-1.18Z" transform="translate(-617 -189)"/><path class="cls-268" d="M897.62,666.18c-1.81-2.86-3.46-4.34-3.44-5.79,0-1.22,2-2.42,3.06-3.63,1.32,1.2,3.47,2.24,3.74,3.64S899.4,663.31,897.62,666.18Z" transform="translate(-617 -189)"/><path class="cls-269" d="M864.87,648.86l6,4.17-7,6C864.22,655.64,864.54,652.25,864.87,648.86Z" transform="translate(-617 -189)"/><path class="cls-270" d="M879.91,669,883,669c1.66,2.79,4,5.4,4.82,8.42.93,3.34-.9,6-4.76,6.58,1.82-2.47,4.08-4.76,2.31-8.3-2-4.06-5.11-6.2-9.72-5.88Z" transform="translate(-617 -189)"/><path class="cls-271" d="M1021.08,651.07l-4.65,4.63c.56.54,1.12,1.08,1.69,1.61l-5.21-4.71,5.21-4.31,4.54,4.33Z" transform="translate(-617 -189)"/><path class="cls-272" d="M1029.85,692.05c5.14-1.12,2.44-5.27,3.14-8.11l2-.91,17.93,0,0,.47a1.12,1.12,0,0,1-.11.54c-4.33,0-8.68.23-13-.13s-5.28,1.36-5,5.16c.13,1.57-.57,3.2-.9,4.81Z" transform="translate(-617 -189)"/><path class="cls-273" d="M866.86,662.94l5.16-6.88c.39,1.61.78,3.21,1.16,4.82l-.18,5Z" transform="translate(-617 -189)"/><path class="cls-274" d="M852,642.06l-1.71-.19q.35-3.54.7-7.08c1.8.89,4.71,1.4,5.18,2.75C857.21,640.52,854.66,641.68,852,642.06Z" transform="translate(-617 -189)"/><path class="cls-111" d="M1040.23,640.08,1039,641l-9,.89c.79-1.59,1.85-4.62,2.34-4.53C1035.05,637.84,1037.62,639.1,1040.23,640.08Z" transform="translate(-617 -189)"/><path class="cls-275" d="M880,659.1l2-3,3.11-4.42c1.76,5.82.44,9.09-5,12.35.16-1,.31-2.08.47-3.12Z" transform="translate(-617 -189)"/><path class="cls-276" d="M880.66,661c-.16,1-.31,2.08-.47,3.12L873,665.83l.18-5Z" transform="translate(-617 -189)"/><path class="cls-277" d="M1000.86,655c1.86,3.3-.31,4.74-2.79,6l-4.89-3Z" transform="translate(-617 -189)"/><path class="cls-278" d="M993.18,658l4.89,3a6.8,6.8,0,0,0-.22.89l-5.72,3.83C990.43,662.9,990.4,660.26,993.18,658Z" transform="translate(-617 -189)"/><path class="cls-279" d="M1002.06,668.09l-7.12.08c1.37-1.17,2.61-2.68,4.2-3.31C999.61,664.68,1001.06,667,1002.06,668.09Z" transform="translate(-617 -189)"/><path class="cls-280" d="M984.54,652.22c-1.8,1.18-3,2.55-4.09,2.49a3.65,3.65,0,0,1-2.34-2.82,3.78,3.78,0,0,1,2.72-2.62C981.88,649.28,982.92,650.85,984.54,652.22Z" transform="translate(-617 -189)"/><path class="cls-281" d="M1030,641.89l9-.89-10.87,4Z" transform="translate(-617 -189)"/><path class="cls-282" d="M1002.06,668.09c-1-1.14-2.45-3.41-2.92-3.23-1.59.63-2.83,2.14-4.2,3.31-.93-.81-1.87-1.61-2.81-2.41l5.72-3.83,6.37,4.21Z" transform="translate(-617 -189)"/><path class="cls-283" d="M1009,608.05h-4.72c-.07-1.54-.14-2.88-.22-4.5l4.92-.73,13.45-1c1.23,2.53,1.17,4.1-2.1,4.47C1016.5,606.73,1012.74,607.46,1009,608.05Z" transform="translate(-617 -189)"/><path class="cls-284" d="M951.83,691.65c5.47-6,12.52-6.28,19.87-5.49q2.65,1.4,5.32,2.78c-.79,1.56-1.26,3.42-2.42,4.63-4.41,4.59-9,9-13.58,13.43-5.29,1.52-2.27-3.68-4-5,0-1.21.34-2.66-.21-3.57A80.83,80.83,0,0,0,951.83,691.65Z" transform="translate(-617 -189)"/><path class="cls-285" d="M942,688.46l-11.7,11.63L917,708.19,916,707l22.08-22Z" transform="translate(-617 -189)"/><path class="cls-286" d="M942,688.46l-4-3.53c0-.3.06-.6.1-.9l13-13.31,4.91,2.34c-.38,1.19-.43,2.71-1.21,3.53-3.81,4-7.82,7.82-11.76,11.71Z" transform="translate(-617 -189)"/><path class="cls-287" d="M916,707l1,1.23,13.32-8.1L918.08,712l-1.23-.26L915,708.94c0-.65,0-1.31,0-2h1Z" transform="translate(-617 -189)"/><path class="cls-288" d="M1064,658q0,12.45,0,24.9l-5.83,1a1.64,1.64,0,0,1-.26-.57q-.18-12.63-.35-25.27a2.38,2.38,0,0,1,.39-.45Z" transform="translate(-617 -189)"/><path class="cls-289" d="M1057.53,658.11q.18,12.63.35,25.27l-4.89.16,0-.47q0-12.47,0-24.92c0-.18,0-.35,0-.53Z" transform="translate(-617 -189)"/><path class="cls-151" d="M1073,525.21l1.1,2c-9.69,3.61-19.36,7.26-29.07,10.79a72.45,72.45,0,0,1-7.18,1.8l-4.64.33-4.21-1,16.16-4L1064,529Z" transform="translate(-617 -189)"/><path class="cls-290" d="M1035.1,715c-.68,2.34-1.37,4.69-2,7-7,8.53-17.64,6-25.89-2,.21-.67.43-1.34.64-2a1.81,1.81,0,0,0,.66-.07,1.12,1.12,0,0,0,.6.1l4.8,3C1022.59,726.59,1030.61,724.29,1035.1,715Z" transform="translate(-617 -189)"/><path class="cls-291" d="M945,713c-1.35-5.74-.9-11.16,2.88-16l10.2,9C952.85,708.38,952,715.88,945,713Z" transform="translate(-617 -189)"/><path class="cls-292" d="M951.83,691.65a80.83,80.83,0,0,1,4.94,6.78c.55.91.17,2.36.21,3.57l-8-7.14Z" transform="translate(-617 -189)"/><path class="cls-293" d="M1007.8,718.05l-8.58-4.22c-.4-.61-.79-1.22-1.18-1.83l-2.19-14.11,18.3,8.81L1008.46,718A1.81,1.81,0,0,1,1007.8,718.05Z" transform="translate(-617 -189)"/><path class="cls-294" d="M995.85,697.88,998,712c-4.63-.39-5-4.19-5.91-7.48-1.09-4.06-2-8.17-3-12.26h2.78l2.13,1.57.12.22.26-.08C994.91,695.28,995.38,696.58,995.85,697.88Z" transform="translate(-617 -189)"/><path class="cls-295" d="M887,723c10.13,2.16,18.79-.54,26-7.88a69.53,69.53,0,0,0-4.56,6.06c-.38.61.35,1.89.57,2.87-4.48,3.74-9.88,2.87-15.08,3Z" transform="translate(-617 -189)"/><path class="cls-296" d="M994.07,693.84l-2.13-1.57c-1.92-5.38-9.37-9.38-17.13-9.2l-.93-.94,5-6.16,2.14-.92c4.46,2.31,8.91,4.63,13.38,6.92,1.43.74,2.91,1.38,4.36,2.07a3.57,3.57,0,0,1,0,.8Z" transform="translate(-617 -189)"/><path class="cls-297" d="M1035.1,715c-4.49,9.25-12.51,11.55-21.24,6.08,2,0,4,0,5.95-.18,7.75-.78,12-5.77,11.15-12.86-.68-5.3-5.09-6.89-9-9l0-.31,4.78-1.47c.43.7.69,1.72,1.31,2,6,3.17,7.65,8.36,7,14.68A5.46,5.46,0,0,0,1035.1,715Z" transform="translate(-617 -189)"/><path class="cls-90" d="M947.12,566.24H970V585h18.57v23.56H969.59v19.22H947.4v-19.1H929.14V585.16h18Z" transform="translate(-617 -189)"/><path class="cls-298" d="M981,552c0,1.52-.58,3.62.19,4.44,5.55,5.95,8.43,12.41,5.95,20.7-.57,1.9.11,4.19.25,6.84-4.59,0-9.07.23-13.48-.16-1.06-.09-2.64-2.16-2.77-3.43a78.39,78.39,0,0,1-.09-11.47c.16-3.12-1.16-4-4.11-4-5.65.13-11.31,0-17,0,1.1-1.35,2.26-2.66,3.29-4.07,1.52-2.08,2.94-4.22,4.87-7l-6.08-1.22.06-.59Z" transform="translate(-617 -189)"/><path class="cls-299" d="M971,544c5.31-.39,10.62-.87,15.94-1.15,3.09-.17,6.21,0,9.3,0,1.1-3.8-5.33-7.38-.54-10.32,2.62-1.6,6.63-.93,10.83-1.36.21-.6.83-2.37,1.46-4.14,0,3,.17,5.92,0,8.86-.29,3.84,1.24,5.57,5.09,5.17l-3.64,1.82,4.74.33c-5.7.6-11.39,1.18-17.08,1.81-2.09.23-4.17.6-6.26.9H970Z" transform="translate(-617 -189)"/><path class="cls-300" d="M1045.17,535.08l-16.16,4-8,.86c5.74-2.27,11.38-4.88,17.28-6.61C1040.24,532.75,1042.86,534.43,1045.17,535.08Z" transform="translate(-617 -189)"/><path class="cls-301" d="M913,708c-5.71,4.81-10.39,11.23-18.55,12.27A33.07,33.07,0,0,1,889,720l3.91-.36c-1.52-1.65-2.65-2.8-3.68-4-3.16-3.79-2.81-7,.26-10.71s5.75-8,8.6-12Z" transform="translate(-617 -189)"/><path class="cls-302" d="M913,708l-15-15.09-1-.92c-1.48-1.59-2.23-2.91,0-4.75,4.07-3.31,7.86-7,11.77-10.49-1.2,1.7-2.08,3.84-3.67,5-2.87,2.09-5.18,4-2.55,7.66l-3,1.13-1.57,1.86L915,707c0,.66,0,1.32,0,2Z" transform="translate(-617 -189)"/><path class="cls-303" d="M915,707l-16.84-14.59,1.57-1.86,3-1.13c-2.63-3.68-.32-5.57,2.55-7.66,1.59-1.16,2.47-3.3,3.67-5,2.43-2.42,5-4.71,7.25-7.32s4.42-2.85,6.87-.41l15.13,15c0,.3-.07.6-.1.9L916,707h-1Z" transform="translate(-617 -189)"/><path class="cls-304" d="M956,514l-6-1q0-4.1-.08-8.19l2.81-1.91L958,503l1.75-1.83c-5.81-2.39-2.64-8.11-4.94-12.16l4.64-1.67,0-1.56H938.19c0-.88,0-1.75,0-2.63,7-.22,14.07-.63,21.1-.58,3.84,0,7.69,1.33,11.51,1.19,7.41-.26,14.8-1.13,22.2-1.75,12.61.67,25.22,1.33,37.83,2.06a6.85,6.85,0,0,1,2.17.94q0,11.49,0,23-14.34,1.71-28.67,3.42c-2.11.25-4.22.42-6.33.62-2.93-.28-5.88-.92-8.8-.78-9.51.44-19,1.14-28.53,1.81A37,37,0,0,0,956,514Z" transform="translate(-617 -189)"/><path class="cls-305" d="M900,484l11-1,18.86,3.26c-2.24,5.84-4.56,11.43.13,16.73-.85.44-2.46,1-2.42,1.31.8,6.1-4,5.64-7.58,6.7-9.58.13-15.9-7.36-24.13-10.39a1.75,1.75,0,0,1-.7-1.15c3.36-3.75-4.8-11.14,4.13-13.17C899.69,486.2,899.78,484.81,900,484Z" transform="translate(-617 -189)"/><path class="cls-306" d="M920,511c3.54-1.06,8.38-.6,7.58-6.7,0-.32,1.57-.87,2.42-1.31h2l8.86,0,3.19,2.82v7.49L920,512C920,511.66,920,511.33,920,511Z" transform="translate(-617 -189)"/><path class="cls-307" d="M940.88,503,932,503c1.38-.72,2.71-2,4.15-2.1,6.21-.66,8.73-4.27,8.91-10.13,0-.71.57-1.4,1.13-2.69a14.38,14.38,0,0,1,1.63,3c1,5,3.14,8.81,8.73,9.72.58.09.95,1.41,1.42,2.16l-5.26-.11-6-6.22Z" transform="translate(-617 -189)"/><path class="cls-308" d="M920,511c0,.33,0,.66,0,1-7.66-.89-15.36-2.68-23-2.37-5.66.23-7.42-2.45-7.83-6.49-.59-5.7-.15-11.51-.15-17.74L900,484c-.23.78-.32,2.17-.71,2.26-8.93,2-.77,9.42-4.13,13.17a1.75,1.75,0,0,0,.7,1.15C904.1,503.64,910.42,511.13,920,511Z" transform="translate(-617 -189)"/><path class="cls-309" d="M940.88,503l5.81-6.37,6,6.22-2.81,1.91L947,508.29l-2.9-2.45Z" transform="translate(-617 -189)"/><path class="cls-310" d="M1033,508q0-11.47,0-23l15.93,2-.06,18Z" transform="translate(-617 -189)"/><path class="cls-246" d="M1020.49,531.06c-.45,7.87-.45,7.62-7.72,7.72-3.15,0-3.76-1.3-3.76-3.78,0-4-.24-8,.13-12,.13-1.4,1.79-3.82,2.64-3.77,2.32.14,5.71.7,6.6,2.27C1019.91,524.25,1019.87,527.84,1020.49,531.06Z" transform="translate(-617 -189)"/><path class="cls-235" d="M956,514a37,37,0,0,1,4.69-.93c9.51-.67,19-1.37,28.53-1.81,2.92-.14,5.87.5,8.8.78-5.52.66-11,1.69-16.56,1.9C973,514.21,964.47,514,956,514Z" transform="translate(-617 -189)"/><path class="cls-311" d="M1052.91,658.15q0,12.47,0,24.92L1035,683l-.93-24.9Z" transform="translate(-617 -189)"/><path class="cls-312" d="M1034.09,658.13,1035,683l-2,.91c-.27-8.23-.56-16.46-.72-24.69C1032.26,658.89,1033.46,658.5,1034.09,658.13Z" transform="translate(-617 -189)"/><path class="cls-313" d="M880.66,661l-7.48-.08c-.38-1.61-.77-3.21-1.16-4.82l2.88-1.38L880,659.1Z" transform="translate(-617 -189)"/><path class="cls-314" d="M978.93,676l-5,6.16-5.37.67c1.13-3.15,1.94-5.43,2.76-7.72Z" transform="translate(-617 -189)"/><path class="cls-315" d="M994.07,693.84l4.74-9q11.06,7,22.1,14l-4.4,5.81c-3.41-2.17-6.29-4.45-9.53-6-4-1.9-8.34-3.18-12.53-4.74l-.26.08Z" transform="translate(-617 -189)"/><path class="cls-316" d="M994.45,694c4.19,1.56,8.5,2.84,12.53,4.74,3.24,1.53,6.12,3.81,9.53,6l4.4-5.81,1.1-.1,0,.31c-2.32,3-4.77,5.94-6.9,9.07s-4,6.6-6,9.91a1.12,1.12,0,0,1-.6-.1l5.69-11.28-18.3-8.81C995.38,696.58,994.91,695.28,994.45,694Z" transform="translate(-617 -189)"/><path class="cls-317" d="M1009.06,718.08c2-3.31,3.84-6.71,6-9.91s4.58-6.06,6.9-9.07c3.9,2.09,8.31,3.68,9,9,.9,7.09-3.4,12.08-11.15,12.86-2,.2-4,.13-5.95.18Z" transform="translate(-617 -189)"/></g></svg>