<svg id="_2" data-name="2" xmlns="http://www.w3.org/2000/svg" viewBox="0 0 800.12 800.12"><defs><style>.cls-1{opacity:0.7;}.cls-2{fill:none;}</style></defs><g class="cls-1"><path d="M627.28,389,421.46,185.54l.05.1A119,119,0,1,0,253.17,354l48.57,48c-1.46,0-2.93,0-4.39,0-39.84,0-76,10-103.1,27-13.51,8.5-24.81,18.75-32.84,30.71s-12.8,25.61-12.8,40.07v81.17c0,14.45,4.73,28.16,12.8,40.07,12.1,17.9,31.32,32.12,54.76,42.1s51.31,15.58,81.18,15.63c39.78-.05,76-10.06,103-27,13.56-8.46,24.8-18.76,32.88-30.71S446,595.36,446,580.91V544.67l13,12.81-.05-.1A119,119,0,1,0,627.28,389Zm-340-84.95c-19.7-19.74-19.7-52.2.28-72.19a50.86,50.86,0,0,1,36.2-15Zm-115,195.66c.05-9.31,2.93-18.19,8.75-26.89,5.1-7.6,12.61-14.88,22-21.35L383.76,557.29a140.84,140.84,0,0,1-13,6.33c-20.74,8.83-46.06,14-73.37,14-36.48.05-69.37-9.31-92.56-23.91-11.62-7.32-20.79-15.88-26.93-25a60.26,60.26,0,0,1-5.63-10.39V499.74Zm250.18,81.17c0,9.31-2.93,18.19-8.74,26.88-8.7,13-24.14,25-44.41,33.56s-45.08,13.75-71.91,13.75c-35.82,0-68.09-9.22-90.53-23.39-11.25-7.05-20-15.32-25.84-23.92s-8.7-17.57-8.75-26.88v-33.5c11.43,12.66,27,23.2,45.41,31,23,9.75,50.32,15.32,79.71,15.32,39.17,0,74.7-9.88,101.06-26.42a110.58,110.58,0,0,0,24-19.84Zm0-62.6a19.18,19.18,0,0,1-1,2.08,56.07,56.07,0,0,1-4.67,8.31,79.82,79.82,0,0,1-15.64,16.82l-179-104.7c1.09-.48,2.13-1.05,3.22-1.47,20.22-8.59,45.07-13.75,72-13.75A200.71,200.71,0,0,1,328,427.92c23.35,3.54,44,11.1,59.87,21,1.93,1.18,3.78,2.46,5.52,3.74a80.1,80.1,0,0,1,20.08,19.9,1,1,0,0,1,.24.27c5.81,8.7,8.74,17.58,8.74,26.89v18.57Zm184.84,19a90.73,90.73,0,0,1-128.28,0l-.05,0L446,504.79v-5.05c0-14.46-4.73-28.16-12.76-40.07C423.17,444.79,408.19,432.46,390,423a165.34,165.34,0,0,1,8.7-18.94c10-18.82,25-39.23,44.93-54.91s44.13-26.79,74.23-28.5l89.39,88.4h0a90.75,90.75,0,0,1,0,128.28Z" transform="translate(-1.38 0.12)"/></g><rect class="cls-2" width="800.12" height="800.12"/></svg>