<svg id="Livello_1" data-name="Livello 1" xmlns="http://www.w3.org/2000/svg" viewBox="0 0 6.03 6.03"><defs><style>.cls-1{opacity:0.7;}.cls-2{fill:none;}</style></defs><path class="cls-1" d="M2.44,2.52A.59.59,0,0,1,3,1.93h.3a.59.59,0,0,1,.59.59v0A.57.57,0,0,1,3.65,3l-.39.25A.82.82,0,0,0,2.89,4h0a.29.29,0,0,0,.29.29A.3.3,0,0,0,3.48,4h0a.21.21,0,0,1,.1-.19L4,3.54a1.2,1.2,0,0,0,.54-1v0A1.18,1.18,0,0,0,3.33,1.34H3A1.17,1.17,0,0,0,1.86,2.52a.29.29,0,1,0,.58,0Zm.74,2.94a.37.37,0,1,0-.37-.37A.37.37,0,0,0,3.18,5.46Z" transform="translate(-0.16 -0.34)"/><rect class="cls-2" width="6.03" height="6.03"/></svg>